%TF.GenerationSoftware,KiCad,Pcbnew,5.99.0+really5.1.10+dfsg1-1*%
%TF.CreationDate,2022-02-11T21:54:35+01:00*%
%TF.ProjectId,vierfach_LFO,76696572-6661-4636-985f-4c464f2e6b69,rev?*%
%TF.SameCoordinates,Original*%
%TF.FileFunction,Legend,Top*%
%TF.FilePolarity,Positive*%
%FSLAX46Y46*%
G04 Gerber Fmt 4.6, Leading zero omitted, Abs format (unit mm)*
G04 Created by KiCad (PCBNEW 5.99.0+really5.1.10+dfsg1-1) date 2022-02-11 21:54:35*
%MOMM*%
%LPD*%
G01*
G04 APERTURE LIST*
%ADD10C,0.120000*%
%ADD11C,0.150000*%
G04 APERTURE END LIST*
D10*
%TO.C,R_freq501*%
X30864000Y-127406000D02*
X30864000Y-121165000D01*
X46864000Y-127406000D02*
X46864000Y-121165000D01*
X46864000Y-121165000D02*
X30864000Y-121165000D01*
X46864000Y-127406000D02*
X30864000Y-127406000D01*
X46864000Y-129406000D02*
X46864000Y-119166000D01*
X55864000Y-129406000D02*
X55864000Y-119166000D01*
X55864000Y-119166000D02*
X46864000Y-119166000D01*
X55864000Y-129406000D02*
X46864000Y-129406000D01*
X55864000Y-132406000D02*
X55864000Y-116166000D01*
X64104000Y-132406000D02*
X64104000Y-116166000D01*
X64104000Y-116166000D02*
X55864000Y-116166000D01*
X64104000Y-132406000D02*
X55864000Y-132406000D01*
%TO.C,R_freq401*%
X30864000Y-103704000D02*
X30864000Y-97463000D01*
X46864000Y-103704000D02*
X46864000Y-97463000D01*
X46864000Y-97463000D02*
X30864000Y-97463000D01*
X46864000Y-103704000D02*
X30864000Y-103704000D01*
X46864000Y-105704000D02*
X46864000Y-95464000D01*
X55864000Y-105704000D02*
X55864000Y-95464000D01*
X55864000Y-95464000D02*
X46864000Y-95464000D01*
X55864000Y-105704000D02*
X46864000Y-105704000D01*
X55864000Y-108704000D02*
X55864000Y-92464000D01*
X64104000Y-108704000D02*
X64104000Y-92464000D01*
X64104000Y-92464000D02*
X55864000Y-92464000D01*
X64104000Y-108704000D02*
X55864000Y-108704000D01*
%TO.C,R_freq301*%
X30610000Y-73732000D02*
X30610000Y-67491000D01*
X46610000Y-73732000D02*
X46610000Y-67491000D01*
X46610000Y-67491000D02*
X30610000Y-67491000D01*
X46610000Y-73732000D02*
X30610000Y-73732000D01*
X46610000Y-75732000D02*
X46610000Y-65492000D01*
X55610000Y-75732000D02*
X55610000Y-65492000D01*
X55610000Y-65492000D02*
X46610000Y-65492000D01*
X55610000Y-75732000D02*
X46610000Y-75732000D01*
X55610000Y-78732000D02*
X55610000Y-62492000D01*
X63850000Y-78732000D02*
X63850000Y-62492000D01*
X63850000Y-62492000D02*
X55610000Y-62492000D01*
X63850000Y-78732000D02*
X55610000Y-78732000D01*
%TO.C,R_freq201*%
X30610000Y-50110000D02*
X30610000Y-43869000D01*
X46610000Y-50110000D02*
X46610000Y-43869000D01*
X46610000Y-43869000D02*
X30610000Y-43869000D01*
X46610000Y-50110000D02*
X30610000Y-50110000D01*
X46610000Y-52110000D02*
X46610000Y-41870000D01*
X55610000Y-52110000D02*
X55610000Y-41870000D01*
X55610000Y-41870000D02*
X46610000Y-41870000D01*
X55610000Y-52110000D02*
X46610000Y-52110000D01*
X55610000Y-55110000D02*
X55610000Y-38870000D01*
X63850000Y-55110000D02*
X63850000Y-38870000D01*
X63850000Y-38870000D02*
X55610000Y-38870000D01*
X63850000Y-55110000D02*
X55610000Y-55110000D01*
%TO.C,J504*%
X111700000Y-136846000D02*
X113030000Y-136846000D01*
X111700000Y-138176000D02*
X111700000Y-136846000D01*
X111700000Y-139446000D02*
X114360000Y-139446000D01*
X114360000Y-139446000D02*
X114360000Y-139506000D01*
X111700000Y-139446000D02*
X111700000Y-139506000D01*
X111700000Y-139506000D02*
X114360000Y-139506000D01*
%TO.C,J503*%
X81347000Y-121352000D02*
X82677000Y-121352000D01*
X81347000Y-122682000D02*
X81347000Y-121352000D01*
X81347000Y-123952000D02*
X84007000Y-123952000D01*
X84007000Y-123952000D02*
X84007000Y-124012000D01*
X81347000Y-123952000D02*
X81347000Y-124012000D01*
X81347000Y-124012000D02*
X84007000Y-124012000D01*
%TO.C,J502*%
X108398000Y-121606000D02*
X109728000Y-121606000D01*
X108398000Y-122936000D02*
X108398000Y-121606000D01*
X108398000Y-124206000D02*
X111058000Y-124206000D01*
X111058000Y-124206000D02*
X111058000Y-124266000D01*
X108398000Y-124206000D02*
X108398000Y-124266000D01*
X108398000Y-124266000D02*
X111058000Y-124266000D01*
%TO.C,J404*%
X106874000Y-114240000D02*
X108204000Y-114240000D01*
X106874000Y-115570000D02*
X106874000Y-114240000D01*
X106874000Y-116840000D02*
X109534000Y-116840000D01*
X109534000Y-116840000D02*
X109534000Y-116900000D01*
X106874000Y-116840000D02*
X106874000Y-116900000D01*
X106874000Y-116900000D02*
X109534000Y-116900000D01*
%TO.C,J403*%
X74489000Y-92269000D02*
X75819000Y-92269000D01*
X74489000Y-93599000D02*
X74489000Y-92269000D01*
X74489000Y-94869000D02*
X77149000Y-94869000D01*
X77149000Y-94869000D02*
X77149000Y-94929000D01*
X74489000Y-94869000D02*
X74489000Y-94929000D01*
X74489000Y-94929000D02*
X77149000Y-94929000D01*
%TO.C,J402*%
X106112000Y-110176000D02*
X107442000Y-110176000D01*
X106112000Y-111506000D02*
X106112000Y-110176000D01*
X106112000Y-112776000D02*
X108772000Y-112776000D01*
X108772000Y-112776000D02*
X108772000Y-112836000D01*
X106112000Y-112776000D02*
X106112000Y-112836000D01*
X106112000Y-112836000D02*
X108772000Y-112836000D01*
%TO.C,J304*%
X97476000Y-63948000D02*
X98806000Y-63948000D01*
X97476000Y-65278000D02*
X97476000Y-63948000D01*
X97476000Y-66548000D02*
X100136000Y-66548000D01*
X100136000Y-66548000D02*
X100136000Y-66608000D01*
X97476000Y-66548000D02*
X97476000Y-66608000D01*
X97476000Y-66608000D02*
X100136000Y-66608000D01*
%TO.C,J303*%
X81474000Y-67250000D02*
X82804000Y-67250000D01*
X81474000Y-68580000D02*
X81474000Y-67250000D01*
X81474000Y-69850000D02*
X84134000Y-69850000D01*
X84134000Y-69850000D02*
X84134000Y-69910000D01*
X81474000Y-69850000D02*
X81474000Y-69910000D01*
X81474000Y-69910000D02*
X84134000Y-69910000D01*
%TO.C,J302*%
X106747000Y-65345000D02*
X108077000Y-65345000D01*
X106747000Y-66675000D02*
X106747000Y-65345000D01*
X106747000Y-67945000D02*
X109407000Y-67945000D01*
X109407000Y-67945000D02*
X109407000Y-68005000D01*
X106747000Y-67945000D02*
X106747000Y-68005000D01*
X106747000Y-68005000D02*
X109407000Y-68005000D01*
%TO.C,J204*%
X110684000Y-43494000D02*
X110684000Y-42164000D01*
X112014000Y-43494000D02*
X110684000Y-43494000D01*
X113284000Y-43494000D02*
X113284000Y-40834000D01*
X113284000Y-40834000D02*
X113344000Y-40834000D01*
X113284000Y-43494000D02*
X113344000Y-43494000D01*
X113344000Y-43494000D02*
X113344000Y-40834000D01*
%TO.C,J203*%
X81982000Y-42866000D02*
X83312000Y-42866000D01*
X81982000Y-44196000D02*
X81982000Y-42866000D01*
X81982000Y-45466000D02*
X84642000Y-45466000D01*
X84642000Y-45466000D02*
X84642000Y-45526000D01*
X81982000Y-45466000D02*
X81982000Y-45526000D01*
X81982000Y-45526000D02*
X84642000Y-45526000D01*
%TO.C,J202*%
X110684000Y-47812000D02*
X110684000Y-46482000D01*
X112014000Y-47812000D02*
X110684000Y-47812000D01*
X113284000Y-47812000D02*
X113284000Y-45152000D01*
X113284000Y-45152000D02*
X113344000Y-45152000D01*
X113284000Y-47812000D02*
X113344000Y-47812000D01*
X113344000Y-47812000D02*
X113344000Y-45152000D01*
%TO.C,D101*%
X110310000Y-81334000D02*
X110310000Y-84274000D01*
X110310000Y-84274000D02*
X115750000Y-84274000D01*
X115750000Y-84274000D02*
X115750000Y-81334000D01*
X115750000Y-81334000D02*
X110310000Y-81334000D01*
X109290000Y-82804000D02*
X110310000Y-82804000D01*
X116770000Y-82804000D02*
X115750000Y-82804000D01*
X111210000Y-81334000D02*
X111210000Y-84274000D01*
X111330000Y-81334000D02*
X111330000Y-84274000D01*
X111090000Y-81334000D02*
X111090000Y-84274000D01*
%TO.C,D102*%
X114970000Y-101546000D02*
X114970000Y-98606000D01*
X114730000Y-101546000D02*
X114730000Y-98606000D01*
X114850000Y-101546000D02*
X114850000Y-98606000D01*
X109290000Y-100076000D02*
X110310000Y-100076000D01*
X116770000Y-100076000D02*
X115750000Y-100076000D01*
X110310000Y-101546000D02*
X115750000Y-101546000D01*
X110310000Y-98606000D02*
X110310000Y-101546000D01*
X115750000Y-98606000D02*
X110310000Y-98606000D01*
X115750000Y-101546000D02*
X115750000Y-98606000D01*
%TO.C,D201*%
X71649000Y-56114000D02*
X68559000Y-56114000D01*
X72604000Y-58674000D02*
G75*
G03*
X72604000Y-58674000I-2500000J0D01*
G01*
X70103538Y-61664000D02*
G75*
G03*
X71648830Y-56114000I462J2990000D01*
G01*
X70104462Y-61664000D02*
G75*
G02*
X68559170Y-56114000I-462J2990000D01*
G01*
%TO.C,D202*%
X81638000Y-54741000D02*
X79398000Y-54741000D01*
X81638000Y-54981000D02*
X79398000Y-54981000D01*
X81638000Y-54861000D02*
X79398000Y-54861000D01*
X80518000Y-59031000D02*
X80518000Y-58381000D01*
X80518000Y-53491000D02*
X80518000Y-54141000D01*
X81638000Y-58381000D02*
X81638000Y-54141000D01*
X79398000Y-58381000D02*
X81638000Y-58381000D01*
X79398000Y-54141000D02*
X79398000Y-58381000D01*
X81638000Y-54141000D02*
X79398000Y-54141000D01*
%TO.C,D203*%
X82065000Y-58381000D02*
X84305000Y-58381000D01*
X84305000Y-58381000D02*
X84305000Y-54141000D01*
X84305000Y-54141000D02*
X82065000Y-54141000D01*
X82065000Y-54141000D02*
X82065000Y-58381000D01*
X83185000Y-59031000D02*
X83185000Y-58381000D01*
X83185000Y-53491000D02*
X83185000Y-54141000D01*
X82065000Y-57661000D02*
X84305000Y-57661000D01*
X82065000Y-57541000D02*
X84305000Y-57541000D01*
X82065000Y-57781000D02*
X84305000Y-57781000D01*
%TO.C,D204*%
X66000000Y-58674000D02*
G75*
G03*
X66000000Y-58674000I-2500000J0D01*
G01*
X61955000Y-61234000D02*
X65045000Y-61234000D01*
X63499538Y-55684000D02*
G75*
G02*
X65044830Y-61234000I462J-2990000D01*
G01*
X63500462Y-55684000D02*
G75*
G03*
X61955170Y-61234000I-462J-2990000D01*
G01*
%TO.C,D205*%
X116690000Y-43600000D02*
X114450000Y-43600000D01*
X114450000Y-43600000D02*
X114450000Y-47840000D01*
X114450000Y-47840000D02*
X116690000Y-47840000D01*
X116690000Y-47840000D02*
X116690000Y-43600000D01*
X115570000Y-42950000D02*
X115570000Y-43600000D01*
X115570000Y-48490000D02*
X115570000Y-47840000D01*
X116690000Y-44320000D02*
X114450000Y-44320000D01*
X116690000Y-44440000D02*
X114450000Y-44440000D01*
X116690000Y-44200000D02*
X114450000Y-44200000D01*
%TO.C,D206*%
X116990000Y-47240000D02*
X119230000Y-47240000D01*
X116990000Y-47000000D02*
X119230000Y-47000000D01*
X116990000Y-47120000D02*
X119230000Y-47120000D01*
X118110000Y-42950000D02*
X118110000Y-43600000D01*
X118110000Y-48490000D02*
X118110000Y-47840000D01*
X116990000Y-43600000D02*
X116990000Y-47840000D01*
X119230000Y-43600000D02*
X116990000Y-43600000D01*
X119230000Y-47840000D02*
X119230000Y-43600000D01*
X116990000Y-47840000D02*
X119230000Y-47840000D01*
%TO.C,D301*%
X72350000Y-82550000D02*
G75*
G03*
X72350000Y-82550000I-2500000J0D01*
G01*
X71395000Y-79990000D02*
X68305000Y-79990000D01*
X69850462Y-85540000D02*
G75*
G02*
X68305170Y-79990000I-462J2990000D01*
G01*
X69849538Y-85540000D02*
G75*
G03*
X71394830Y-79990000I462J2990000D01*
G01*
%TO.C,D302*%
X81384000Y-77728000D02*
X79144000Y-77728000D01*
X81384000Y-77968000D02*
X79144000Y-77968000D01*
X81384000Y-77848000D02*
X79144000Y-77848000D01*
X80264000Y-82018000D02*
X80264000Y-81368000D01*
X80264000Y-76478000D02*
X80264000Y-77128000D01*
X81384000Y-81368000D02*
X81384000Y-77128000D01*
X79144000Y-81368000D02*
X81384000Y-81368000D01*
X79144000Y-77128000D02*
X79144000Y-81368000D01*
X81384000Y-77128000D02*
X79144000Y-77128000D01*
%TO.C,D303*%
X81938000Y-81368000D02*
X84178000Y-81368000D01*
X84178000Y-81368000D02*
X84178000Y-77128000D01*
X84178000Y-77128000D02*
X81938000Y-77128000D01*
X81938000Y-77128000D02*
X81938000Y-81368000D01*
X83058000Y-82018000D02*
X83058000Y-81368000D01*
X83058000Y-76478000D02*
X83058000Y-77128000D01*
X81938000Y-80648000D02*
X84178000Y-80648000D01*
X81938000Y-80528000D02*
X84178000Y-80528000D01*
X81938000Y-80768000D02*
X84178000Y-80768000D01*
%TO.C,D304*%
X66000000Y-82550000D02*
G75*
G03*
X66000000Y-82550000I-2500000J0D01*
G01*
X61955000Y-85110000D02*
X65045000Y-85110000D01*
X63499538Y-79560000D02*
G75*
G02*
X65044830Y-85110000I462J-2990000D01*
G01*
X63500462Y-79560000D02*
G75*
G03*
X61955170Y-85110000I-462J-2990000D01*
G01*
%TO.C,D305*%
X114658000Y-66552000D02*
X112418000Y-66552000D01*
X114658000Y-66792000D02*
X112418000Y-66792000D01*
X114658000Y-66672000D02*
X112418000Y-66672000D01*
X113538000Y-70842000D02*
X113538000Y-70192000D01*
X113538000Y-65302000D02*
X113538000Y-65952000D01*
X114658000Y-70192000D02*
X114658000Y-65952000D01*
X112418000Y-70192000D02*
X114658000Y-70192000D01*
X112418000Y-65952000D02*
X112418000Y-70192000D01*
X114658000Y-65952000D02*
X112418000Y-65952000D01*
%TO.C,D306*%
X109878000Y-70192000D02*
X112118000Y-70192000D01*
X112118000Y-70192000D02*
X112118000Y-65952000D01*
X112118000Y-65952000D02*
X109878000Y-65952000D01*
X109878000Y-65952000D02*
X109878000Y-70192000D01*
X110998000Y-70842000D02*
X110998000Y-70192000D01*
X110998000Y-65302000D02*
X110998000Y-65952000D01*
X109878000Y-69472000D02*
X112118000Y-69472000D01*
X109878000Y-69352000D02*
X112118000Y-69352000D01*
X109878000Y-69592000D02*
X112118000Y-69592000D01*
%TO.C,D401*%
X71649000Y-109962000D02*
X68559000Y-109962000D01*
X72604000Y-112522000D02*
G75*
G03*
X72604000Y-112522000I-2500000J0D01*
G01*
X70103538Y-115512000D02*
G75*
G03*
X71648830Y-109962000I462J2990000D01*
G01*
X70104462Y-115512000D02*
G75*
G02*
X68559170Y-109962000I-462J2990000D01*
G01*
%TO.C,D402*%
X82173000Y-111529000D02*
X82173000Y-113769000D01*
X82413000Y-111529000D02*
X82413000Y-113769000D01*
X82293000Y-111529000D02*
X82293000Y-113769000D01*
X86463000Y-112649000D02*
X85813000Y-112649000D01*
X80923000Y-112649000D02*
X81573000Y-112649000D01*
X85813000Y-111529000D02*
X81573000Y-111529000D01*
X85813000Y-113769000D02*
X85813000Y-111529000D01*
X81573000Y-113769000D02*
X85813000Y-113769000D01*
X81573000Y-111529000D02*
X81573000Y-113769000D01*
%TO.C,D403*%
X85813000Y-111102000D02*
X85813000Y-108862000D01*
X85813000Y-108862000D02*
X81573000Y-108862000D01*
X81573000Y-108862000D02*
X81573000Y-111102000D01*
X81573000Y-111102000D02*
X85813000Y-111102000D01*
X86463000Y-109982000D02*
X85813000Y-109982000D01*
X80923000Y-109982000D02*
X81573000Y-109982000D01*
X85093000Y-111102000D02*
X85093000Y-108862000D01*
X84973000Y-111102000D02*
X84973000Y-108862000D01*
X85213000Y-111102000D02*
X85213000Y-108862000D01*
%TO.C,D404*%
X61955000Y-115082000D02*
X65045000Y-115082000D01*
X66000000Y-112522000D02*
G75*
G03*
X66000000Y-112522000I-2500000J0D01*
G01*
X63500462Y-109532000D02*
G75*
G03*
X61955170Y-115082000I-462J-2990000D01*
G01*
X63499538Y-109532000D02*
G75*
G02*
X65044830Y-115082000I462J-2990000D01*
G01*
%TO.C,D405*%
X112926000Y-114642000D02*
X115166000Y-114642000D01*
X115166000Y-114642000D02*
X115166000Y-110402000D01*
X115166000Y-110402000D02*
X112926000Y-110402000D01*
X112926000Y-110402000D02*
X112926000Y-114642000D01*
X114046000Y-115292000D02*
X114046000Y-114642000D01*
X114046000Y-109752000D02*
X114046000Y-110402000D01*
X112926000Y-113922000D02*
X115166000Y-113922000D01*
X112926000Y-113802000D02*
X115166000Y-113802000D01*
X112926000Y-114042000D02*
X115166000Y-114042000D01*
%TO.C,D406*%
X112626000Y-111002000D02*
X110386000Y-111002000D01*
X112626000Y-111242000D02*
X110386000Y-111242000D01*
X112626000Y-111122000D02*
X110386000Y-111122000D01*
X111506000Y-115292000D02*
X111506000Y-114642000D01*
X111506000Y-109752000D02*
X111506000Y-110402000D01*
X112626000Y-114642000D02*
X112626000Y-110402000D01*
X110386000Y-114642000D02*
X112626000Y-114642000D01*
X110386000Y-110402000D02*
X110386000Y-114642000D01*
X112626000Y-110402000D02*
X110386000Y-110402000D01*
%TO.C,D501*%
X71649000Y-133330000D02*
X68559000Y-133330000D01*
X72604000Y-135890000D02*
G75*
G03*
X72604000Y-135890000I-2500000J0D01*
G01*
X70103538Y-138880000D02*
G75*
G03*
X71648830Y-133330000I462J2990000D01*
G01*
X70104462Y-138880000D02*
G75*
G02*
X68559170Y-133330000I-462J2990000D01*
G01*
%TO.C,D502*%
X81384000Y-130341000D02*
X79144000Y-130341000D01*
X79144000Y-130341000D02*
X79144000Y-134581000D01*
X79144000Y-134581000D02*
X81384000Y-134581000D01*
X81384000Y-134581000D02*
X81384000Y-130341000D01*
X80264000Y-129691000D02*
X80264000Y-130341000D01*
X80264000Y-135231000D02*
X80264000Y-134581000D01*
X81384000Y-131061000D02*
X79144000Y-131061000D01*
X81384000Y-131181000D02*
X79144000Y-131181000D01*
X81384000Y-130941000D02*
X79144000Y-130941000D01*
%TO.C,D503*%
X81684000Y-133981000D02*
X83924000Y-133981000D01*
X81684000Y-133741000D02*
X83924000Y-133741000D01*
X81684000Y-133861000D02*
X83924000Y-133861000D01*
X82804000Y-129691000D02*
X82804000Y-130341000D01*
X82804000Y-135231000D02*
X82804000Y-134581000D01*
X81684000Y-130341000D02*
X81684000Y-134581000D01*
X83924000Y-130341000D02*
X81684000Y-130341000D01*
X83924000Y-134581000D02*
X83924000Y-130341000D01*
X81684000Y-134581000D02*
X83924000Y-134581000D01*
%TO.C,D504*%
X66000000Y-135890000D02*
G75*
G03*
X66000000Y-135890000I-2500000J0D01*
G01*
X61955000Y-138450000D02*
X65045000Y-138450000D01*
X63499538Y-132900000D02*
G75*
G02*
X65044830Y-138450000I462J-2990000D01*
G01*
X63500462Y-132900000D02*
G75*
G03*
X61955170Y-138450000I-462J-2990000D01*
G01*
%TO.C,D505*%
X114958000Y-136994000D02*
X117198000Y-136994000D01*
X117198000Y-136994000D02*
X117198000Y-132754000D01*
X117198000Y-132754000D02*
X114958000Y-132754000D01*
X114958000Y-132754000D02*
X114958000Y-136994000D01*
X116078000Y-137644000D02*
X116078000Y-136994000D01*
X116078000Y-132104000D02*
X116078000Y-132754000D01*
X114958000Y-136274000D02*
X117198000Y-136274000D01*
X114958000Y-136154000D02*
X117198000Y-136154000D01*
X114958000Y-136394000D02*
X117198000Y-136394000D01*
%TO.C,D506*%
X119738000Y-133354000D02*
X117498000Y-133354000D01*
X119738000Y-133594000D02*
X117498000Y-133594000D01*
X119738000Y-133474000D02*
X117498000Y-133474000D01*
X118618000Y-137644000D02*
X118618000Y-136994000D01*
X118618000Y-132104000D02*
X118618000Y-132754000D01*
X119738000Y-136994000D02*
X119738000Y-132754000D01*
X117498000Y-136994000D02*
X119738000Y-136994000D01*
X117498000Y-132754000D02*
X117498000Y-136994000D01*
X119738000Y-132754000D02*
X117498000Y-132754000D01*
%TO.C,J201*%
X79308000Y-48828000D02*
X77978000Y-48828000D01*
X79308000Y-47498000D02*
X79308000Y-48828000D01*
X79308000Y-46228000D02*
X76648000Y-46228000D01*
X76648000Y-46228000D02*
X76648000Y-46168000D01*
X79308000Y-46228000D02*
X79308000Y-46168000D01*
X79308000Y-46168000D02*
X76648000Y-46168000D01*
%TO.C,J301*%
X75124000Y-81594000D02*
X77784000Y-81594000D01*
X75124000Y-81534000D02*
X75124000Y-81594000D01*
X77784000Y-81534000D02*
X77784000Y-81594000D01*
X75124000Y-81534000D02*
X77784000Y-81534000D01*
X75124000Y-80264000D02*
X75124000Y-78934000D01*
X75124000Y-78934000D02*
X76454000Y-78934000D01*
%TO.C,J401*%
X75251000Y-108017000D02*
X76581000Y-108017000D01*
X75251000Y-109347000D02*
X75251000Y-108017000D01*
X75251000Y-110617000D02*
X77911000Y-110617000D01*
X77911000Y-110617000D02*
X77911000Y-110677000D01*
X75251000Y-110617000D02*
X75251000Y-110677000D01*
X75251000Y-110677000D02*
X77911000Y-110677000D01*
%TO.C,J501*%
X74362000Y-134045000D02*
X77022000Y-134045000D01*
X74362000Y-133985000D02*
X74362000Y-134045000D01*
X77022000Y-133985000D02*
X77022000Y-134045000D01*
X74362000Y-133985000D02*
X77022000Y-133985000D01*
X74362000Y-132715000D02*
X74362000Y-131385000D01*
X74362000Y-131385000D02*
X75692000Y-131385000D01*
%TO.C,Q201*%
X75375001Y-51076000D02*
X75375001Y-47476000D01*
X74647796Y-46951816D02*
G75*
G02*
X75375001Y-47476000I-1122795J-2324184D01*
G01*
X72426194Y-46919600D02*
G75*
G03*
X70925001Y-49276000I1098807J-2356400D01*
G01*
X72426194Y-51632400D02*
G75*
G02*
X70925001Y-49276000I1098807J2356400D01*
G01*
X74647796Y-51600184D02*
G75*
G03*
X75375001Y-51076000I-1122795J2324184D01*
G01*
%TO.C,Q202*%
X70430000Y-51076000D02*
X70430000Y-47476000D01*
X69702795Y-46951816D02*
G75*
G02*
X70430000Y-47476000I-1122795J-2324184D01*
G01*
X67481193Y-46919600D02*
G75*
G03*
X65980000Y-49276000I1098807J-2356400D01*
G01*
X67481193Y-51632400D02*
G75*
G02*
X65980000Y-49276000I1098807J2356400D01*
G01*
X69702795Y-51600184D02*
G75*
G03*
X70430000Y-51076000I-1122795J2324184D01*
G01*
%TO.C,Q301*%
X76780000Y-75460000D02*
X76780000Y-71860000D01*
X76052795Y-71335816D02*
G75*
G02*
X76780000Y-71860000I-1122795J-2324184D01*
G01*
X73831193Y-71303600D02*
G75*
G03*
X72330000Y-73660000I1098807J-2356400D01*
G01*
X73831193Y-76016400D02*
G75*
G02*
X72330000Y-73660000I1098807J2356400D01*
G01*
X76052795Y-75984184D02*
G75*
G03*
X76780000Y-75460000I-1122795J2324184D01*
G01*
%TO.C,Q302*%
X71700000Y-75460000D02*
X71700000Y-71860000D01*
X70972795Y-75984184D02*
G75*
G03*
X71700000Y-75460000I-1122795J2324184D01*
G01*
X68751193Y-76016400D02*
G75*
G02*
X67250000Y-73660000I1098807J2356400D01*
G01*
X68751193Y-71303600D02*
G75*
G03*
X67250000Y-73660000I1098807J-2356400D01*
G01*
X70972795Y-71335816D02*
G75*
G02*
X71700000Y-71860000I-1122795J-2324184D01*
G01*
%TO.C,Q401*%
X76145000Y-104416000D02*
X76145000Y-100816000D01*
X75417795Y-100291816D02*
G75*
G02*
X76145000Y-100816000I-1122795J-2324184D01*
G01*
X73196193Y-100259600D02*
G75*
G03*
X71695000Y-102616000I1098807J-2356400D01*
G01*
X73196193Y-104972400D02*
G75*
G02*
X71695000Y-102616000I1098807J2356400D01*
G01*
X75417795Y-104940184D02*
G75*
G03*
X76145000Y-104416000I-1122795J2324184D01*
G01*
%TO.C,Q402*%
X71319000Y-104416000D02*
X71319000Y-100816000D01*
X70591795Y-104940184D02*
G75*
G03*
X71319000Y-104416000I-1122795J2324184D01*
G01*
X68370193Y-104972400D02*
G75*
G02*
X66869000Y-102616000I1098807J2356400D01*
G01*
X68370193Y-100259600D02*
G75*
G03*
X66869000Y-102616000I1098807J-2356400D01*
G01*
X70591795Y-100291816D02*
G75*
G02*
X71319000Y-100816000I-1122795J-2324184D01*
G01*
%TO.C,Q501*%
X76272000Y-128038000D02*
X76272000Y-124438000D01*
X75544795Y-128562184D02*
G75*
G03*
X76272000Y-128038000I-1122795J2324184D01*
G01*
X73323193Y-128594400D02*
G75*
G02*
X71822000Y-126238000I1098807J2356400D01*
G01*
X73323193Y-123881600D02*
G75*
G03*
X71822000Y-126238000I1098807J-2356400D01*
G01*
X75544795Y-123913816D02*
G75*
G02*
X76272000Y-124438000I-1122795J-2324184D01*
G01*
%TO.C,Q502*%
X71192000Y-128038000D02*
X71192000Y-124438000D01*
X70464795Y-128562184D02*
G75*
G03*
X71192000Y-128038000I-1122795J2324184D01*
G01*
X68243193Y-128594400D02*
G75*
G02*
X66742000Y-126238000I1098807J2356400D01*
G01*
X68243193Y-123881600D02*
G75*
G03*
X66742000Y-126238000I1098807J-2356400D01*
G01*
X70464795Y-123913816D02*
G75*
G02*
X71192000Y-124438000I-1122795J-2324184D01*
G01*
%TO.C,R204*%
X110082000Y-48546000D02*
X107342000Y-48546000D01*
X107342000Y-48546000D02*
X107342000Y-55086000D01*
X107342000Y-55086000D02*
X110082000Y-55086000D01*
X110082000Y-55086000D02*
X110082000Y-48546000D01*
X108712000Y-47776000D02*
X108712000Y-48546000D01*
X108712000Y-55856000D02*
X108712000Y-55086000D01*
%TO.C,R211*%
X86360000Y-54078000D02*
X86360000Y-53308000D01*
X86360000Y-45998000D02*
X86360000Y-46768000D01*
X87730000Y-53308000D02*
X87730000Y-46768000D01*
X84990000Y-53308000D02*
X87730000Y-53308000D01*
X84990000Y-46768000D02*
X84990000Y-53308000D01*
X87730000Y-46768000D02*
X84990000Y-46768000D01*
%TO.C,R214*%
X91210000Y-41910000D02*
X91980000Y-41910000D01*
X99290000Y-41910000D02*
X98520000Y-41910000D01*
X91980000Y-43280000D02*
X98520000Y-43280000D01*
X91980000Y-40540000D02*
X91980000Y-43280000D01*
X98520000Y-40540000D02*
X91980000Y-40540000D01*
X98520000Y-43280000D02*
X98520000Y-40540000D01*
%TO.C,R304*%
X109447000Y-71406000D02*
X106707000Y-71406000D01*
X106707000Y-71406000D02*
X106707000Y-77946000D01*
X106707000Y-77946000D02*
X109447000Y-77946000D01*
X109447000Y-77946000D02*
X109447000Y-71406000D01*
X108077000Y-70636000D02*
X108077000Y-71406000D01*
X108077000Y-78716000D02*
X108077000Y-77946000D01*
%TO.C,R311*%
X86233000Y-78462000D02*
X86233000Y-77692000D01*
X86233000Y-70382000D02*
X86233000Y-71152000D01*
X87603000Y-77692000D02*
X87603000Y-71152000D01*
X84863000Y-77692000D02*
X87603000Y-77692000D01*
X84863000Y-71152000D02*
X84863000Y-77692000D01*
X87603000Y-71152000D02*
X84863000Y-71152000D01*
%TO.C,R314*%
X93948000Y-66394000D02*
X93948000Y-63654000D01*
X93948000Y-63654000D02*
X87408000Y-63654000D01*
X87408000Y-63654000D02*
X87408000Y-66394000D01*
X87408000Y-66394000D02*
X93948000Y-66394000D01*
X94718000Y-65024000D02*
X93948000Y-65024000D01*
X86638000Y-65024000D02*
X87408000Y-65024000D01*
%TO.C,R404*%
X104140000Y-104164000D02*
X104140000Y-104934000D01*
X104140000Y-112244000D02*
X104140000Y-111474000D01*
X102770000Y-104934000D02*
X102770000Y-111474000D01*
X105510000Y-104934000D02*
X102770000Y-104934000D01*
X105510000Y-111474000D02*
X105510000Y-104934000D01*
X102770000Y-111474000D02*
X105510000Y-111474000D01*
%TO.C,R411*%
X80618000Y-96806000D02*
X77878000Y-96806000D01*
X77878000Y-96806000D02*
X77878000Y-103346000D01*
X77878000Y-103346000D02*
X80618000Y-103346000D01*
X80618000Y-103346000D02*
X80618000Y-96806000D01*
X79248000Y-96036000D02*
X79248000Y-96806000D01*
X79248000Y-104116000D02*
X79248000Y-103346000D01*
%TO.C,R414*%
X82550000Y-97560000D02*
X82550000Y-98330000D01*
X82550000Y-105640000D02*
X82550000Y-104870000D01*
X81180000Y-98330000D02*
X81180000Y-104870000D01*
X83920000Y-98330000D02*
X81180000Y-98330000D01*
X83920000Y-104870000D02*
X83920000Y-98330000D01*
X81180000Y-104870000D02*
X83920000Y-104870000D01*
%TO.C,R504*%
X111098000Y-127667000D02*
X108358000Y-127667000D01*
X108358000Y-127667000D02*
X108358000Y-134207000D01*
X108358000Y-134207000D02*
X111098000Y-134207000D01*
X111098000Y-134207000D02*
X111098000Y-127667000D01*
X109728000Y-126897000D02*
X109728000Y-127667000D01*
X109728000Y-134977000D02*
X109728000Y-134207000D01*
%TO.C,R511*%
X85979000Y-131675000D02*
X85979000Y-130905000D01*
X85979000Y-123595000D02*
X85979000Y-124365000D01*
X87349000Y-130905000D02*
X87349000Y-124365000D01*
X84609000Y-130905000D02*
X87349000Y-130905000D01*
X84609000Y-124365000D02*
X84609000Y-130905000D01*
X87349000Y-124365000D02*
X84609000Y-124365000D01*
%TO.C,R514*%
X111787000Y-128238000D02*
X114527000Y-128238000D01*
X114527000Y-128238000D02*
X114527000Y-121698000D01*
X114527000Y-121698000D02*
X111787000Y-121698000D01*
X111787000Y-121698000D02*
X111787000Y-128238000D01*
X113157000Y-129008000D02*
X113157000Y-128238000D01*
X113157000Y-120928000D02*
X113157000Y-121698000D01*
%TO.C,U201*%
X106292000Y-55940000D02*
X106292000Y-45660000D01*
X88272000Y-55940000D02*
X106292000Y-55940000D01*
X88272000Y-45660000D02*
X88272000Y-55940000D01*
X106292000Y-45660000D02*
X88272000Y-45660000D01*
X106232000Y-53450000D02*
X106232000Y-51800000D01*
X88332000Y-53450000D02*
X106232000Y-53450000D01*
X88332000Y-48150000D02*
X88332000Y-53450000D01*
X106232000Y-48150000D02*
X88332000Y-48150000D01*
X106232000Y-49800000D02*
X106232000Y-48150000D01*
X106232000Y-51800000D02*
G75*
G02*
X106232000Y-49800000I0J1000000D01*
G01*
%TO.C,U301*%
X105998000Y-72730000D02*
X105998000Y-71080000D01*
X105998000Y-71080000D02*
X88098000Y-71080000D01*
X88098000Y-71080000D02*
X88098000Y-76380000D01*
X88098000Y-76380000D02*
X105998000Y-76380000D01*
X105998000Y-76380000D02*
X105998000Y-74730000D01*
X106058000Y-68590000D02*
X88038000Y-68590000D01*
X88038000Y-68590000D02*
X88038000Y-78870000D01*
X88038000Y-78870000D02*
X106058000Y-78870000D01*
X106058000Y-78870000D02*
X106058000Y-68590000D01*
X105998000Y-74730000D02*
G75*
G02*
X105998000Y-72730000I0J1000000D01*
G01*
%TO.C,U401*%
X102346000Y-98302000D02*
X102346000Y-96652000D01*
X102346000Y-96652000D02*
X84446000Y-96652000D01*
X84446000Y-96652000D02*
X84446000Y-101952000D01*
X84446000Y-101952000D02*
X102346000Y-101952000D01*
X102346000Y-101952000D02*
X102346000Y-100302000D01*
X102406000Y-94162000D02*
X84386000Y-94162000D01*
X84386000Y-94162000D02*
X84386000Y-104442000D01*
X84386000Y-104442000D02*
X102406000Y-104442000D01*
X102406000Y-104442000D02*
X102406000Y-94162000D01*
X102346000Y-100302000D02*
G75*
G02*
X102346000Y-98302000I0J1000000D01*
G01*
%TO.C,U501*%
X106038000Y-131378000D02*
X106038000Y-121098000D01*
X88018000Y-131378000D02*
X106038000Y-131378000D01*
X88018000Y-121098000D02*
X88018000Y-131378000D01*
X106038000Y-121098000D02*
X88018000Y-121098000D01*
X105978000Y-128888000D02*
X105978000Y-127238000D01*
X88078000Y-128888000D02*
X105978000Y-128888000D01*
X88078000Y-123588000D02*
X88078000Y-128888000D01*
X105978000Y-123588000D02*
X88078000Y-123588000D01*
X105978000Y-125238000D02*
X105978000Y-123588000D01*
X105978000Y-127238000D02*
G75*
G02*
X105978000Y-125238000I0J1000000D01*
G01*
%TO.C,R_freq501*%
D11*
X65476380Y-127182190D02*
X65000190Y-127515523D01*
X65476380Y-127753619D02*
X64476380Y-127753619D01*
X64476380Y-127372666D01*
X64524000Y-127277428D01*
X64571619Y-127229809D01*
X64666857Y-127182190D01*
X64809714Y-127182190D01*
X64904952Y-127229809D01*
X64952571Y-127277428D01*
X65000190Y-127372666D01*
X65000190Y-127753619D01*
X65571619Y-126991714D02*
X65571619Y-126229809D01*
X64809714Y-126134571D02*
X64809714Y-125753619D01*
X65476380Y-125991714D02*
X64619238Y-125991714D01*
X64524000Y-125944095D01*
X64476380Y-125848857D01*
X64476380Y-125753619D01*
X65476380Y-125420285D02*
X64809714Y-125420285D01*
X65000190Y-125420285D02*
X64904952Y-125372666D01*
X64857333Y-125325047D01*
X64809714Y-125229809D01*
X64809714Y-125134571D01*
X65428761Y-124420285D02*
X65476380Y-124515523D01*
X65476380Y-124706000D01*
X65428761Y-124801238D01*
X65333523Y-124848857D01*
X64952571Y-124848857D01*
X64857333Y-124801238D01*
X64809714Y-124706000D01*
X64809714Y-124515523D01*
X64857333Y-124420285D01*
X64952571Y-124372666D01*
X65047809Y-124372666D01*
X65143047Y-124848857D01*
X64809714Y-123515523D02*
X65809714Y-123515523D01*
X65428761Y-123515523D02*
X65476380Y-123610761D01*
X65476380Y-123801238D01*
X65428761Y-123896476D01*
X65381142Y-123944095D01*
X65285904Y-123991714D01*
X65000190Y-123991714D01*
X64904952Y-123944095D01*
X64857333Y-123896476D01*
X64809714Y-123801238D01*
X64809714Y-123610761D01*
X64857333Y-123515523D01*
X64476380Y-122563142D02*
X64476380Y-123039333D01*
X64952571Y-123086952D01*
X64904952Y-123039333D01*
X64857333Y-122944095D01*
X64857333Y-122706000D01*
X64904952Y-122610761D01*
X64952571Y-122563142D01*
X65047809Y-122515523D01*
X65285904Y-122515523D01*
X65381142Y-122563142D01*
X65428761Y-122610761D01*
X65476380Y-122706000D01*
X65476380Y-122944095D01*
X65428761Y-123039333D01*
X65381142Y-123086952D01*
X64476380Y-121896476D02*
X64476380Y-121801238D01*
X64524000Y-121706000D01*
X64571619Y-121658380D01*
X64666857Y-121610761D01*
X64857333Y-121563142D01*
X65095428Y-121563142D01*
X65285904Y-121610761D01*
X65381142Y-121658380D01*
X65428761Y-121706000D01*
X65476380Y-121801238D01*
X65476380Y-121896476D01*
X65428761Y-121991714D01*
X65381142Y-122039333D01*
X65285904Y-122086952D01*
X65095428Y-122134571D01*
X64857333Y-122134571D01*
X64666857Y-122086952D01*
X64571619Y-122039333D01*
X64524000Y-121991714D01*
X64476380Y-121896476D01*
X65476380Y-120610761D02*
X65476380Y-121182190D01*
X65476380Y-120896476D02*
X64476380Y-120896476D01*
X64619238Y-120991714D01*
X64714476Y-121086952D01*
X64762095Y-121182190D01*
%TO.C,R_freq401*%
X65730380Y-103560190D02*
X65254190Y-103893523D01*
X65730380Y-104131619D02*
X64730380Y-104131619D01*
X64730380Y-103750666D01*
X64778000Y-103655428D01*
X64825619Y-103607809D01*
X64920857Y-103560190D01*
X65063714Y-103560190D01*
X65158952Y-103607809D01*
X65206571Y-103655428D01*
X65254190Y-103750666D01*
X65254190Y-104131619D01*
X65825619Y-103369714D02*
X65825619Y-102607809D01*
X65063714Y-102512571D02*
X65063714Y-102131619D01*
X65730380Y-102369714D02*
X64873238Y-102369714D01*
X64778000Y-102322095D01*
X64730380Y-102226857D01*
X64730380Y-102131619D01*
X65730380Y-101798285D02*
X65063714Y-101798285D01*
X65254190Y-101798285D02*
X65158952Y-101750666D01*
X65111333Y-101703047D01*
X65063714Y-101607809D01*
X65063714Y-101512571D01*
X65682761Y-100798285D02*
X65730380Y-100893523D01*
X65730380Y-101084000D01*
X65682761Y-101179238D01*
X65587523Y-101226857D01*
X65206571Y-101226857D01*
X65111333Y-101179238D01*
X65063714Y-101084000D01*
X65063714Y-100893523D01*
X65111333Y-100798285D01*
X65206571Y-100750666D01*
X65301809Y-100750666D01*
X65397047Y-101226857D01*
X65063714Y-99893523D02*
X66063714Y-99893523D01*
X65682761Y-99893523D02*
X65730380Y-99988761D01*
X65730380Y-100179238D01*
X65682761Y-100274476D01*
X65635142Y-100322095D01*
X65539904Y-100369714D01*
X65254190Y-100369714D01*
X65158952Y-100322095D01*
X65111333Y-100274476D01*
X65063714Y-100179238D01*
X65063714Y-99988761D01*
X65111333Y-99893523D01*
X65063714Y-98988761D02*
X65730380Y-98988761D01*
X64682761Y-99226857D02*
X65397047Y-99464952D01*
X65397047Y-98845904D01*
X64730380Y-98274476D02*
X64730380Y-98179238D01*
X64778000Y-98084000D01*
X64825619Y-98036380D01*
X64920857Y-97988761D01*
X65111333Y-97941142D01*
X65349428Y-97941142D01*
X65539904Y-97988761D01*
X65635142Y-98036380D01*
X65682761Y-98084000D01*
X65730380Y-98179238D01*
X65730380Y-98274476D01*
X65682761Y-98369714D01*
X65635142Y-98417333D01*
X65539904Y-98464952D01*
X65349428Y-98512571D01*
X65111333Y-98512571D01*
X64920857Y-98464952D01*
X64825619Y-98417333D01*
X64778000Y-98369714D01*
X64730380Y-98274476D01*
X65730380Y-96988761D02*
X65730380Y-97560190D01*
X65730380Y-97274476D02*
X64730380Y-97274476D01*
X64873238Y-97369714D01*
X64968476Y-97464952D01*
X65016095Y-97560190D01*
%TO.C,R_freq301*%
X65222380Y-73588190D02*
X64746190Y-73921523D01*
X65222380Y-74159619D02*
X64222380Y-74159619D01*
X64222380Y-73778666D01*
X64270000Y-73683428D01*
X64317619Y-73635809D01*
X64412857Y-73588190D01*
X64555714Y-73588190D01*
X64650952Y-73635809D01*
X64698571Y-73683428D01*
X64746190Y-73778666D01*
X64746190Y-74159619D01*
X65317619Y-73397714D02*
X65317619Y-72635809D01*
X64555714Y-72540571D02*
X64555714Y-72159619D01*
X65222380Y-72397714D02*
X64365238Y-72397714D01*
X64270000Y-72350095D01*
X64222380Y-72254857D01*
X64222380Y-72159619D01*
X65222380Y-71826285D02*
X64555714Y-71826285D01*
X64746190Y-71826285D02*
X64650952Y-71778666D01*
X64603333Y-71731047D01*
X64555714Y-71635809D01*
X64555714Y-71540571D01*
X65174761Y-70826285D02*
X65222380Y-70921523D01*
X65222380Y-71112000D01*
X65174761Y-71207238D01*
X65079523Y-71254857D01*
X64698571Y-71254857D01*
X64603333Y-71207238D01*
X64555714Y-71112000D01*
X64555714Y-70921523D01*
X64603333Y-70826285D01*
X64698571Y-70778666D01*
X64793809Y-70778666D01*
X64889047Y-71254857D01*
X64555714Y-69921523D02*
X65555714Y-69921523D01*
X65174761Y-69921523D02*
X65222380Y-70016761D01*
X65222380Y-70207238D01*
X65174761Y-70302476D01*
X65127142Y-70350095D01*
X65031904Y-70397714D01*
X64746190Y-70397714D01*
X64650952Y-70350095D01*
X64603333Y-70302476D01*
X64555714Y-70207238D01*
X64555714Y-70016761D01*
X64603333Y-69921523D01*
X64222380Y-69540571D02*
X64222380Y-68921523D01*
X64603333Y-69254857D01*
X64603333Y-69112000D01*
X64650952Y-69016761D01*
X64698571Y-68969142D01*
X64793809Y-68921523D01*
X65031904Y-68921523D01*
X65127142Y-68969142D01*
X65174761Y-69016761D01*
X65222380Y-69112000D01*
X65222380Y-69397714D01*
X65174761Y-69492952D01*
X65127142Y-69540571D01*
X64222380Y-68302476D02*
X64222380Y-68207238D01*
X64270000Y-68112000D01*
X64317619Y-68064380D01*
X64412857Y-68016761D01*
X64603333Y-67969142D01*
X64841428Y-67969142D01*
X65031904Y-68016761D01*
X65127142Y-68064380D01*
X65174761Y-68112000D01*
X65222380Y-68207238D01*
X65222380Y-68302476D01*
X65174761Y-68397714D01*
X65127142Y-68445333D01*
X65031904Y-68492952D01*
X64841428Y-68540571D01*
X64603333Y-68540571D01*
X64412857Y-68492952D01*
X64317619Y-68445333D01*
X64270000Y-68397714D01*
X64222380Y-68302476D01*
X65222380Y-67016761D02*
X65222380Y-67588190D01*
X65222380Y-67302476D02*
X64222380Y-67302476D01*
X64365238Y-67397714D01*
X64460476Y-67492952D01*
X64508095Y-67588190D01*
%TO.C,R_freq201*%
X65222380Y-50474190D02*
X64746190Y-50807523D01*
X65222380Y-51045619D02*
X64222380Y-51045619D01*
X64222380Y-50664666D01*
X64270000Y-50569428D01*
X64317619Y-50521809D01*
X64412857Y-50474190D01*
X64555714Y-50474190D01*
X64650952Y-50521809D01*
X64698571Y-50569428D01*
X64746190Y-50664666D01*
X64746190Y-51045619D01*
X65317619Y-50283714D02*
X65317619Y-49521809D01*
X64555714Y-49426571D02*
X64555714Y-49045619D01*
X65222380Y-49283714D02*
X64365238Y-49283714D01*
X64270000Y-49236095D01*
X64222380Y-49140857D01*
X64222380Y-49045619D01*
X65222380Y-48712285D02*
X64555714Y-48712285D01*
X64746190Y-48712285D02*
X64650952Y-48664666D01*
X64603333Y-48617047D01*
X64555714Y-48521809D01*
X64555714Y-48426571D01*
X65174761Y-47712285D02*
X65222380Y-47807523D01*
X65222380Y-47998000D01*
X65174761Y-48093238D01*
X65079523Y-48140857D01*
X64698571Y-48140857D01*
X64603333Y-48093238D01*
X64555714Y-47998000D01*
X64555714Y-47807523D01*
X64603333Y-47712285D01*
X64698571Y-47664666D01*
X64793809Y-47664666D01*
X64889047Y-48140857D01*
X64555714Y-46807523D02*
X65555714Y-46807523D01*
X65174761Y-46807523D02*
X65222380Y-46902761D01*
X65222380Y-47093238D01*
X65174761Y-47188476D01*
X65127142Y-47236095D01*
X65031904Y-47283714D01*
X64746190Y-47283714D01*
X64650952Y-47236095D01*
X64603333Y-47188476D01*
X64555714Y-47093238D01*
X64555714Y-46902761D01*
X64603333Y-46807523D01*
X64317619Y-46378952D02*
X64270000Y-46331333D01*
X64222380Y-46236095D01*
X64222380Y-45998000D01*
X64270000Y-45902761D01*
X64317619Y-45855142D01*
X64412857Y-45807523D01*
X64508095Y-45807523D01*
X64650952Y-45855142D01*
X65222380Y-46426571D01*
X65222380Y-45807523D01*
X64222380Y-45188476D02*
X64222380Y-45093238D01*
X64270000Y-44998000D01*
X64317619Y-44950380D01*
X64412857Y-44902761D01*
X64603333Y-44855142D01*
X64841428Y-44855142D01*
X65031904Y-44902761D01*
X65127142Y-44950380D01*
X65174761Y-44998000D01*
X65222380Y-45093238D01*
X65222380Y-45188476D01*
X65174761Y-45283714D01*
X65127142Y-45331333D01*
X65031904Y-45378952D01*
X64841428Y-45426571D01*
X64603333Y-45426571D01*
X64412857Y-45378952D01*
X64317619Y-45331333D01*
X64270000Y-45283714D01*
X64222380Y-45188476D01*
X65222380Y-43902761D02*
X65222380Y-44474190D01*
X65222380Y-44188476D02*
X64222380Y-44188476D01*
X64365238Y-44283714D01*
X64460476Y-44378952D01*
X64508095Y-44474190D01*
%TO.C,J504*%
X108188285Y-138390380D02*
X108188285Y-139104666D01*
X108140666Y-139247523D01*
X108045428Y-139342761D01*
X107902571Y-139390380D01*
X107807333Y-139390380D01*
X109140666Y-138390380D02*
X108664476Y-138390380D01*
X108616857Y-138866571D01*
X108664476Y-138818952D01*
X108759714Y-138771333D01*
X108997809Y-138771333D01*
X109093047Y-138818952D01*
X109140666Y-138866571D01*
X109188285Y-138961809D01*
X109188285Y-139199904D01*
X109140666Y-139295142D01*
X109093047Y-139342761D01*
X108997809Y-139390380D01*
X108759714Y-139390380D01*
X108664476Y-139342761D01*
X108616857Y-139295142D01*
X109807333Y-138390380D02*
X109902571Y-138390380D01*
X109997809Y-138438000D01*
X110045428Y-138485619D01*
X110093047Y-138580857D01*
X110140666Y-138771333D01*
X110140666Y-139009428D01*
X110093047Y-139199904D01*
X110045428Y-139295142D01*
X109997809Y-139342761D01*
X109902571Y-139390380D01*
X109807333Y-139390380D01*
X109712095Y-139342761D01*
X109664476Y-139295142D01*
X109616857Y-139199904D01*
X109569238Y-139009428D01*
X109569238Y-138771333D01*
X109616857Y-138580857D01*
X109664476Y-138485619D01*
X109712095Y-138438000D01*
X109807333Y-138390380D01*
X110997809Y-138723714D02*
X110997809Y-139390380D01*
X110759714Y-138342761D02*
X110521619Y-139057047D01*
X111140666Y-139057047D01*
%TO.C,J503*%
X81391285Y-119804380D02*
X81391285Y-120518666D01*
X81343666Y-120661523D01*
X81248428Y-120756761D01*
X81105571Y-120804380D01*
X81010333Y-120804380D01*
X82343666Y-119804380D02*
X81867476Y-119804380D01*
X81819857Y-120280571D01*
X81867476Y-120232952D01*
X81962714Y-120185333D01*
X82200809Y-120185333D01*
X82296047Y-120232952D01*
X82343666Y-120280571D01*
X82391285Y-120375809D01*
X82391285Y-120613904D01*
X82343666Y-120709142D01*
X82296047Y-120756761D01*
X82200809Y-120804380D01*
X81962714Y-120804380D01*
X81867476Y-120756761D01*
X81819857Y-120709142D01*
X83010333Y-119804380D02*
X83105571Y-119804380D01*
X83200809Y-119852000D01*
X83248428Y-119899619D01*
X83296047Y-119994857D01*
X83343666Y-120185333D01*
X83343666Y-120423428D01*
X83296047Y-120613904D01*
X83248428Y-120709142D01*
X83200809Y-120756761D01*
X83105571Y-120804380D01*
X83010333Y-120804380D01*
X82915095Y-120756761D01*
X82867476Y-120709142D01*
X82819857Y-120613904D01*
X82772238Y-120423428D01*
X82772238Y-120185333D01*
X82819857Y-119994857D01*
X82867476Y-119899619D01*
X82915095Y-119852000D01*
X83010333Y-119804380D01*
X83677000Y-119804380D02*
X84296047Y-119804380D01*
X83962714Y-120185333D01*
X84105571Y-120185333D01*
X84200809Y-120232952D01*
X84248428Y-120280571D01*
X84296047Y-120375809D01*
X84296047Y-120613904D01*
X84248428Y-120709142D01*
X84200809Y-120756761D01*
X84105571Y-120804380D01*
X83819857Y-120804380D01*
X83724619Y-120756761D01*
X83677000Y-120709142D01*
%TO.C,J502*%
X108442285Y-120058380D02*
X108442285Y-120772666D01*
X108394666Y-120915523D01*
X108299428Y-121010761D01*
X108156571Y-121058380D01*
X108061333Y-121058380D01*
X109394666Y-120058380D02*
X108918476Y-120058380D01*
X108870857Y-120534571D01*
X108918476Y-120486952D01*
X109013714Y-120439333D01*
X109251809Y-120439333D01*
X109347047Y-120486952D01*
X109394666Y-120534571D01*
X109442285Y-120629809D01*
X109442285Y-120867904D01*
X109394666Y-120963142D01*
X109347047Y-121010761D01*
X109251809Y-121058380D01*
X109013714Y-121058380D01*
X108918476Y-121010761D01*
X108870857Y-120963142D01*
X110061333Y-120058380D02*
X110156571Y-120058380D01*
X110251809Y-120106000D01*
X110299428Y-120153619D01*
X110347047Y-120248857D01*
X110394666Y-120439333D01*
X110394666Y-120677428D01*
X110347047Y-120867904D01*
X110299428Y-120963142D01*
X110251809Y-121010761D01*
X110156571Y-121058380D01*
X110061333Y-121058380D01*
X109966095Y-121010761D01*
X109918476Y-120963142D01*
X109870857Y-120867904D01*
X109823238Y-120677428D01*
X109823238Y-120439333D01*
X109870857Y-120248857D01*
X109918476Y-120153619D01*
X109966095Y-120106000D01*
X110061333Y-120058380D01*
X110775619Y-120153619D02*
X110823238Y-120106000D01*
X110918476Y-120058380D01*
X111156571Y-120058380D01*
X111251809Y-120106000D01*
X111299428Y-120153619D01*
X111347047Y-120248857D01*
X111347047Y-120344095D01*
X111299428Y-120486952D01*
X110728000Y-121058380D01*
X111347047Y-121058380D01*
%TO.C,J404*%
X106918285Y-112692380D02*
X106918285Y-113406666D01*
X106870666Y-113549523D01*
X106775428Y-113644761D01*
X106632571Y-113692380D01*
X106537333Y-113692380D01*
X107823047Y-113025714D02*
X107823047Y-113692380D01*
X107584952Y-112644761D02*
X107346857Y-113359047D01*
X107965904Y-113359047D01*
X108537333Y-112692380D02*
X108632571Y-112692380D01*
X108727809Y-112740000D01*
X108775428Y-112787619D01*
X108823047Y-112882857D01*
X108870666Y-113073333D01*
X108870666Y-113311428D01*
X108823047Y-113501904D01*
X108775428Y-113597142D01*
X108727809Y-113644761D01*
X108632571Y-113692380D01*
X108537333Y-113692380D01*
X108442095Y-113644761D01*
X108394476Y-113597142D01*
X108346857Y-113501904D01*
X108299238Y-113311428D01*
X108299238Y-113073333D01*
X108346857Y-112882857D01*
X108394476Y-112787619D01*
X108442095Y-112740000D01*
X108537333Y-112692380D01*
X109727809Y-113025714D02*
X109727809Y-113692380D01*
X109489714Y-112644761D02*
X109251619Y-113359047D01*
X109870666Y-113359047D01*
%TO.C,J403*%
X74533285Y-90721380D02*
X74533285Y-91435666D01*
X74485666Y-91578523D01*
X74390428Y-91673761D01*
X74247571Y-91721380D01*
X74152333Y-91721380D01*
X75438047Y-91054714D02*
X75438047Y-91721380D01*
X75199952Y-90673761D02*
X74961857Y-91388047D01*
X75580904Y-91388047D01*
X76152333Y-90721380D02*
X76247571Y-90721380D01*
X76342809Y-90769000D01*
X76390428Y-90816619D01*
X76438047Y-90911857D01*
X76485666Y-91102333D01*
X76485666Y-91340428D01*
X76438047Y-91530904D01*
X76390428Y-91626142D01*
X76342809Y-91673761D01*
X76247571Y-91721380D01*
X76152333Y-91721380D01*
X76057095Y-91673761D01*
X76009476Y-91626142D01*
X75961857Y-91530904D01*
X75914238Y-91340428D01*
X75914238Y-91102333D01*
X75961857Y-90911857D01*
X76009476Y-90816619D01*
X76057095Y-90769000D01*
X76152333Y-90721380D01*
X76819000Y-90721380D02*
X77438047Y-90721380D01*
X77104714Y-91102333D01*
X77247571Y-91102333D01*
X77342809Y-91149952D01*
X77390428Y-91197571D01*
X77438047Y-91292809D01*
X77438047Y-91530904D01*
X77390428Y-91626142D01*
X77342809Y-91673761D01*
X77247571Y-91721380D01*
X76961857Y-91721380D01*
X76866619Y-91673761D01*
X76819000Y-91626142D01*
%TO.C,J402*%
X106156285Y-108628380D02*
X106156285Y-109342666D01*
X106108666Y-109485523D01*
X106013428Y-109580761D01*
X105870571Y-109628380D01*
X105775333Y-109628380D01*
X107061047Y-108961714D02*
X107061047Y-109628380D01*
X106822952Y-108580761D02*
X106584857Y-109295047D01*
X107203904Y-109295047D01*
X107775333Y-108628380D02*
X107870571Y-108628380D01*
X107965809Y-108676000D01*
X108013428Y-108723619D01*
X108061047Y-108818857D01*
X108108666Y-109009333D01*
X108108666Y-109247428D01*
X108061047Y-109437904D01*
X108013428Y-109533142D01*
X107965809Y-109580761D01*
X107870571Y-109628380D01*
X107775333Y-109628380D01*
X107680095Y-109580761D01*
X107632476Y-109533142D01*
X107584857Y-109437904D01*
X107537238Y-109247428D01*
X107537238Y-109009333D01*
X107584857Y-108818857D01*
X107632476Y-108723619D01*
X107680095Y-108676000D01*
X107775333Y-108628380D01*
X108489619Y-108723619D02*
X108537238Y-108676000D01*
X108632476Y-108628380D01*
X108870571Y-108628380D01*
X108965809Y-108676000D01*
X109013428Y-108723619D01*
X109061047Y-108818857D01*
X109061047Y-108914095D01*
X109013428Y-109056952D01*
X108442000Y-109628380D01*
X109061047Y-109628380D01*
%TO.C,J304*%
X97520285Y-62400380D02*
X97520285Y-63114666D01*
X97472666Y-63257523D01*
X97377428Y-63352761D01*
X97234571Y-63400380D01*
X97139333Y-63400380D01*
X97901238Y-62400380D02*
X98520285Y-62400380D01*
X98186952Y-62781333D01*
X98329809Y-62781333D01*
X98425047Y-62828952D01*
X98472666Y-62876571D01*
X98520285Y-62971809D01*
X98520285Y-63209904D01*
X98472666Y-63305142D01*
X98425047Y-63352761D01*
X98329809Y-63400380D01*
X98044095Y-63400380D01*
X97948857Y-63352761D01*
X97901238Y-63305142D01*
X99139333Y-62400380D02*
X99234571Y-62400380D01*
X99329809Y-62448000D01*
X99377428Y-62495619D01*
X99425047Y-62590857D01*
X99472666Y-62781333D01*
X99472666Y-63019428D01*
X99425047Y-63209904D01*
X99377428Y-63305142D01*
X99329809Y-63352761D01*
X99234571Y-63400380D01*
X99139333Y-63400380D01*
X99044095Y-63352761D01*
X98996476Y-63305142D01*
X98948857Y-63209904D01*
X98901238Y-63019428D01*
X98901238Y-62781333D01*
X98948857Y-62590857D01*
X98996476Y-62495619D01*
X99044095Y-62448000D01*
X99139333Y-62400380D01*
X100329809Y-62733714D02*
X100329809Y-63400380D01*
X100091714Y-62352761D02*
X99853619Y-63067047D01*
X100472666Y-63067047D01*
%TO.C,J303*%
X81518285Y-65702380D02*
X81518285Y-66416666D01*
X81470666Y-66559523D01*
X81375428Y-66654761D01*
X81232571Y-66702380D01*
X81137333Y-66702380D01*
X81899238Y-65702380D02*
X82518285Y-65702380D01*
X82184952Y-66083333D01*
X82327809Y-66083333D01*
X82423047Y-66130952D01*
X82470666Y-66178571D01*
X82518285Y-66273809D01*
X82518285Y-66511904D01*
X82470666Y-66607142D01*
X82423047Y-66654761D01*
X82327809Y-66702380D01*
X82042095Y-66702380D01*
X81946857Y-66654761D01*
X81899238Y-66607142D01*
X83137333Y-65702380D02*
X83232571Y-65702380D01*
X83327809Y-65750000D01*
X83375428Y-65797619D01*
X83423047Y-65892857D01*
X83470666Y-66083333D01*
X83470666Y-66321428D01*
X83423047Y-66511904D01*
X83375428Y-66607142D01*
X83327809Y-66654761D01*
X83232571Y-66702380D01*
X83137333Y-66702380D01*
X83042095Y-66654761D01*
X82994476Y-66607142D01*
X82946857Y-66511904D01*
X82899238Y-66321428D01*
X82899238Y-66083333D01*
X82946857Y-65892857D01*
X82994476Y-65797619D01*
X83042095Y-65750000D01*
X83137333Y-65702380D01*
X83804000Y-65702380D02*
X84423047Y-65702380D01*
X84089714Y-66083333D01*
X84232571Y-66083333D01*
X84327809Y-66130952D01*
X84375428Y-66178571D01*
X84423047Y-66273809D01*
X84423047Y-66511904D01*
X84375428Y-66607142D01*
X84327809Y-66654761D01*
X84232571Y-66702380D01*
X83946857Y-66702380D01*
X83851619Y-66654761D01*
X83804000Y-66607142D01*
%TO.C,J302*%
X103489285Y-65492380D02*
X103489285Y-66206666D01*
X103441666Y-66349523D01*
X103346428Y-66444761D01*
X103203571Y-66492380D01*
X103108333Y-66492380D01*
X103870238Y-65492380D02*
X104489285Y-65492380D01*
X104155952Y-65873333D01*
X104298809Y-65873333D01*
X104394047Y-65920952D01*
X104441666Y-65968571D01*
X104489285Y-66063809D01*
X104489285Y-66301904D01*
X104441666Y-66397142D01*
X104394047Y-66444761D01*
X104298809Y-66492380D01*
X104013095Y-66492380D01*
X103917857Y-66444761D01*
X103870238Y-66397142D01*
X105108333Y-65492380D02*
X105203571Y-65492380D01*
X105298809Y-65540000D01*
X105346428Y-65587619D01*
X105394047Y-65682857D01*
X105441666Y-65873333D01*
X105441666Y-66111428D01*
X105394047Y-66301904D01*
X105346428Y-66397142D01*
X105298809Y-66444761D01*
X105203571Y-66492380D01*
X105108333Y-66492380D01*
X105013095Y-66444761D01*
X104965476Y-66397142D01*
X104917857Y-66301904D01*
X104870238Y-66111428D01*
X104870238Y-65873333D01*
X104917857Y-65682857D01*
X104965476Y-65587619D01*
X105013095Y-65540000D01*
X105108333Y-65492380D01*
X105822619Y-65587619D02*
X105870238Y-65540000D01*
X105965476Y-65492380D01*
X106203571Y-65492380D01*
X106298809Y-65540000D01*
X106346428Y-65587619D01*
X106394047Y-65682857D01*
X106394047Y-65778095D01*
X106346428Y-65920952D01*
X105775000Y-66492380D01*
X106394047Y-66492380D01*
%TO.C,J204*%
X109136380Y-43449714D02*
X109850666Y-43449714D01*
X109993523Y-43497333D01*
X110088761Y-43592571D01*
X110136380Y-43735428D01*
X110136380Y-43830666D01*
X109231619Y-43021142D02*
X109184000Y-42973523D01*
X109136380Y-42878285D01*
X109136380Y-42640190D01*
X109184000Y-42544952D01*
X109231619Y-42497333D01*
X109326857Y-42449714D01*
X109422095Y-42449714D01*
X109564952Y-42497333D01*
X110136380Y-43068761D01*
X110136380Y-42449714D01*
X109136380Y-41830666D02*
X109136380Y-41735428D01*
X109184000Y-41640190D01*
X109231619Y-41592571D01*
X109326857Y-41544952D01*
X109517333Y-41497333D01*
X109755428Y-41497333D01*
X109945904Y-41544952D01*
X110041142Y-41592571D01*
X110088761Y-41640190D01*
X110136380Y-41735428D01*
X110136380Y-41830666D01*
X110088761Y-41925904D01*
X110041142Y-41973523D01*
X109945904Y-42021142D01*
X109755428Y-42068761D01*
X109517333Y-42068761D01*
X109326857Y-42021142D01*
X109231619Y-41973523D01*
X109184000Y-41925904D01*
X109136380Y-41830666D01*
X109469714Y-40640190D02*
X110136380Y-40640190D01*
X109088761Y-40878285D02*
X109803047Y-41116380D01*
X109803047Y-40497333D01*
%TO.C,J203*%
X82026285Y-41318380D02*
X82026285Y-42032666D01*
X81978666Y-42175523D01*
X81883428Y-42270761D01*
X81740571Y-42318380D01*
X81645333Y-42318380D01*
X82454857Y-41413619D02*
X82502476Y-41366000D01*
X82597714Y-41318380D01*
X82835809Y-41318380D01*
X82931047Y-41366000D01*
X82978666Y-41413619D01*
X83026285Y-41508857D01*
X83026285Y-41604095D01*
X82978666Y-41746952D01*
X82407238Y-42318380D01*
X83026285Y-42318380D01*
X83645333Y-41318380D02*
X83740571Y-41318380D01*
X83835809Y-41366000D01*
X83883428Y-41413619D01*
X83931047Y-41508857D01*
X83978666Y-41699333D01*
X83978666Y-41937428D01*
X83931047Y-42127904D01*
X83883428Y-42223142D01*
X83835809Y-42270761D01*
X83740571Y-42318380D01*
X83645333Y-42318380D01*
X83550095Y-42270761D01*
X83502476Y-42223142D01*
X83454857Y-42127904D01*
X83407238Y-41937428D01*
X83407238Y-41699333D01*
X83454857Y-41508857D01*
X83502476Y-41413619D01*
X83550095Y-41366000D01*
X83645333Y-41318380D01*
X84312000Y-41318380D02*
X84931047Y-41318380D01*
X84597714Y-41699333D01*
X84740571Y-41699333D01*
X84835809Y-41746952D01*
X84883428Y-41794571D01*
X84931047Y-41889809D01*
X84931047Y-42127904D01*
X84883428Y-42223142D01*
X84835809Y-42270761D01*
X84740571Y-42318380D01*
X84454857Y-42318380D01*
X84359619Y-42270761D01*
X84312000Y-42223142D01*
%TO.C,J202*%
X109136380Y-47767714D02*
X109850666Y-47767714D01*
X109993523Y-47815333D01*
X110088761Y-47910571D01*
X110136380Y-48053428D01*
X110136380Y-48148666D01*
X109231619Y-47339142D02*
X109184000Y-47291523D01*
X109136380Y-47196285D01*
X109136380Y-46958190D01*
X109184000Y-46862952D01*
X109231619Y-46815333D01*
X109326857Y-46767714D01*
X109422095Y-46767714D01*
X109564952Y-46815333D01*
X110136380Y-47386761D01*
X110136380Y-46767714D01*
X109136380Y-46148666D02*
X109136380Y-46053428D01*
X109184000Y-45958190D01*
X109231619Y-45910571D01*
X109326857Y-45862952D01*
X109517333Y-45815333D01*
X109755428Y-45815333D01*
X109945904Y-45862952D01*
X110041142Y-45910571D01*
X110088761Y-45958190D01*
X110136380Y-46053428D01*
X110136380Y-46148666D01*
X110088761Y-46243904D01*
X110041142Y-46291523D01*
X109945904Y-46339142D01*
X109755428Y-46386761D01*
X109517333Y-46386761D01*
X109326857Y-46339142D01*
X109231619Y-46291523D01*
X109184000Y-46243904D01*
X109136380Y-46148666D01*
X109231619Y-45434380D02*
X109184000Y-45386761D01*
X109136380Y-45291523D01*
X109136380Y-45053428D01*
X109184000Y-44958190D01*
X109231619Y-44910571D01*
X109326857Y-44862952D01*
X109422095Y-44862952D01*
X109564952Y-44910571D01*
X110136380Y-45482000D01*
X110136380Y-44862952D01*
%TO.C,D101*%
X111339523Y-80786380D02*
X111339523Y-79786380D01*
X111577619Y-79786380D01*
X111720476Y-79834000D01*
X111815714Y-79929238D01*
X111863333Y-80024476D01*
X111910952Y-80214952D01*
X111910952Y-80357809D01*
X111863333Y-80548285D01*
X111815714Y-80643523D01*
X111720476Y-80738761D01*
X111577619Y-80786380D01*
X111339523Y-80786380D01*
X112863333Y-80786380D02*
X112291904Y-80786380D01*
X112577619Y-80786380D02*
X112577619Y-79786380D01*
X112482380Y-79929238D01*
X112387142Y-80024476D01*
X112291904Y-80072095D01*
X113482380Y-79786380D02*
X113577619Y-79786380D01*
X113672857Y-79834000D01*
X113720476Y-79881619D01*
X113768095Y-79976857D01*
X113815714Y-80167333D01*
X113815714Y-80405428D01*
X113768095Y-80595904D01*
X113720476Y-80691142D01*
X113672857Y-80738761D01*
X113577619Y-80786380D01*
X113482380Y-80786380D01*
X113387142Y-80738761D01*
X113339523Y-80691142D01*
X113291904Y-80595904D01*
X113244285Y-80405428D01*
X113244285Y-80167333D01*
X113291904Y-79976857D01*
X113339523Y-79881619D01*
X113387142Y-79834000D01*
X113482380Y-79786380D01*
X114768095Y-80786380D02*
X114196666Y-80786380D01*
X114482380Y-80786380D02*
X114482380Y-79786380D01*
X114387142Y-79929238D01*
X114291904Y-80024476D01*
X114196666Y-80072095D01*
%TO.C,D102*%
X111339523Y-102998380D02*
X111339523Y-101998380D01*
X111577619Y-101998380D01*
X111720476Y-102046000D01*
X111815714Y-102141238D01*
X111863333Y-102236476D01*
X111910952Y-102426952D01*
X111910952Y-102569809D01*
X111863333Y-102760285D01*
X111815714Y-102855523D01*
X111720476Y-102950761D01*
X111577619Y-102998380D01*
X111339523Y-102998380D01*
X112863333Y-102998380D02*
X112291904Y-102998380D01*
X112577619Y-102998380D02*
X112577619Y-101998380D01*
X112482380Y-102141238D01*
X112387142Y-102236476D01*
X112291904Y-102284095D01*
X113482380Y-101998380D02*
X113577619Y-101998380D01*
X113672857Y-102046000D01*
X113720476Y-102093619D01*
X113768095Y-102188857D01*
X113815714Y-102379333D01*
X113815714Y-102617428D01*
X113768095Y-102807904D01*
X113720476Y-102903142D01*
X113672857Y-102950761D01*
X113577619Y-102998380D01*
X113482380Y-102998380D01*
X113387142Y-102950761D01*
X113339523Y-102903142D01*
X113291904Y-102807904D01*
X113244285Y-102617428D01*
X113244285Y-102379333D01*
X113291904Y-102188857D01*
X113339523Y-102093619D01*
X113387142Y-102046000D01*
X113482380Y-101998380D01*
X114196666Y-102093619D02*
X114244285Y-102046000D01*
X114339523Y-101998380D01*
X114577619Y-101998380D01*
X114672857Y-102046000D01*
X114720476Y-102093619D01*
X114768095Y-102188857D01*
X114768095Y-102284095D01*
X114720476Y-102426952D01*
X114149047Y-102998380D01*
X114768095Y-102998380D01*
%TO.C,D201*%
X74516380Y-60364476D02*
X73516380Y-60364476D01*
X73516380Y-60126380D01*
X73564000Y-59983523D01*
X73659238Y-59888285D01*
X73754476Y-59840666D01*
X73944952Y-59793047D01*
X74087809Y-59793047D01*
X74278285Y-59840666D01*
X74373523Y-59888285D01*
X74468761Y-59983523D01*
X74516380Y-60126380D01*
X74516380Y-60364476D01*
X73611619Y-59412095D02*
X73564000Y-59364476D01*
X73516380Y-59269238D01*
X73516380Y-59031142D01*
X73564000Y-58935904D01*
X73611619Y-58888285D01*
X73706857Y-58840666D01*
X73802095Y-58840666D01*
X73944952Y-58888285D01*
X74516380Y-59459714D01*
X74516380Y-58840666D01*
X73516380Y-58221619D02*
X73516380Y-58126380D01*
X73564000Y-58031142D01*
X73611619Y-57983523D01*
X73706857Y-57935904D01*
X73897333Y-57888285D01*
X74135428Y-57888285D01*
X74325904Y-57935904D01*
X74421142Y-57983523D01*
X74468761Y-58031142D01*
X74516380Y-58126380D01*
X74516380Y-58221619D01*
X74468761Y-58316857D01*
X74421142Y-58364476D01*
X74325904Y-58412095D01*
X74135428Y-58459714D01*
X73897333Y-58459714D01*
X73706857Y-58412095D01*
X73611619Y-58364476D01*
X73564000Y-58316857D01*
X73516380Y-58221619D01*
X74516380Y-56935904D02*
X74516380Y-57507333D01*
X74516380Y-57221619D02*
X73516380Y-57221619D01*
X73659238Y-57316857D01*
X73754476Y-57412095D01*
X73802095Y-57507333D01*
%TO.C,D202*%
X78557380Y-60110476D02*
X77557380Y-60110476D01*
X77557380Y-59872380D01*
X77605000Y-59729523D01*
X77700238Y-59634285D01*
X77795476Y-59586666D01*
X77985952Y-59539047D01*
X78128809Y-59539047D01*
X78319285Y-59586666D01*
X78414523Y-59634285D01*
X78509761Y-59729523D01*
X78557380Y-59872380D01*
X78557380Y-60110476D01*
X77652619Y-59158095D02*
X77605000Y-59110476D01*
X77557380Y-59015238D01*
X77557380Y-58777142D01*
X77605000Y-58681904D01*
X77652619Y-58634285D01*
X77747857Y-58586666D01*
X77843095Y-58586666D01*
X77985952Y-58634285D01*
X78557380Y-59205714D01*
X78557380Y-58586666D01*
X77557380Y-57967619D02*
X77557380Y-57872380D01*
X77605000Y-57777142D01*
X77652619Y-57729523D01*
X77747857Y-57681904D01*
X77938333Y-57634285D01*
X78176428Y-57634285D01*
X78366904Y-57681904D01*
X78462142Y-57729523D01*
X78509761Y-57777142D01*
X78557380Y-57872380D01*
X78557380Y-57967619D01*
X78509761Y-58062857D01*
X78462142Y-58110476D01*
X78366904Y-58158095D01*
X78176428Y-58205714D01*
X77938333Y-58205714D01*
X77747857Y-58158095D01*
X77652619Y-58110476D01*
X77605000Y-58062857D01*
X77557380Y-57967619D01*
X77652619Y-57253333D02*
X77605000Y-57205714D01*
X77557380Y-57110476D01*
X77557380Y-56872380D01*
X77605000Y-56777142D01*
X77652619Y-56729523D01*
X77747857Y-56681904D01*
X77843095Y-56681904D01*
X77985952Y-56729523D01*
X78557380Y-57300952D01*
X78557380Y-56681904D01*
%TO.C,D203*%
X86177380Y-60110476D02*
X85177380Y-60110476D01*
X85177380Y-59872380D01*
X85225000Y-59729523D01*
X85320238Y-59634285D01*
X85415476Y-59586666D01*
X85605952Y-59539047D01*
X85748809Y-59539047D01*
X85939285Y-59586666D01*
X86034523Y-59634285D01*
X86129761Y-59729523D01*
X86177380Y-59872380D01*
X86177380Y-60110476D01*
X85272619Y-59158095D02*
X85225000Y-59110476D01*
X85177380Y-59015238D01*
X85177380Y-58777142D01*
X85225000Y-58681904D01*
X85272619Y-58634285D01*
X85367857Y-58586666D01*
X85463095Y-58586666D01*
X85605952Y-58634285D01*
X86177380Y-59205714D01*
X86177380Y-58586666D01*
X85177380Y-57967619D02*
X85177380Y-57872380D01*
X85225000Y-57777142D01*
X85272619Y-57729523D01*
X85367857Y-57681904D01*
X85558333Y-57634285D01*
X85796428Y-57634285D01*
X85986904Y-57681904D01*
X86082142Y-57729523D01*
X86129761Y-57777142D01*
X86177380Y-57872380D01*
X86177380Y-57967619D01*
X86129761Y-58062857D01*
X86082142Y-58110476D01*
X85986904Y-58158095D01*
X85796428Y-58205714D01*
X85558333Y-58205714D01*
X85367857Y-58158095D01*
X85272619Y-58110476D01*
X85225000Y-58062857D01*
X85177380Y-57967619D01*
X85177380Y-57300952D02*
X85177380Y-56681904D01*
X85558333Y-57015238D01*
X85558333Y-56872380D01*
X85605952Y-56777142D01*
X85653571Y-56729523D01*
X85748809Y-56681904D01*
X85986904Y-56681904D01*
X86082142Y-56729523D01*
X86129761Y-56777142D01*
X86177380Y-56872380D01*
X86177380Y-57158095D01*
X86129761Y-57253333D01*
X86082142Y-57300952D01*
%TO.C,D204*%
X65476380Y-55284476D02*
X64476380Y-55284476D01*
X64476380Y-55046380D01*
X64524000Y-54903523D01*
X64619238Y-54808285D01*
X64714476Y-54760666D01*
X64904952Y-54713047D01*
X65047809Y-54713047D01*
X65238285Y-54760666D01*
X65333523Y-54808285D01*
X65428761Y-54903523D01*
X65476380Y-55046380D01*
X65476380Y-55284476D01*
X64571619Y-54332095D02*
X64524000Y-54284476D01*
X64476380Y-54189238D01*
X64476380Y-53951142D01*
X64524000Y-53855904D01*
X64571619Y-53808285D01*
X64666857Y-53760666D01*
X64762095Y-53760666D01*
X64904952Y-53808285D01*
X65476380Y-54379714D01*
X65476380Y-53760666D01*
X64476380Y-53141619D02*
X64476380Y-53046380D01*
X64524000Y-52951142D01*
X64571619Y-52903523D01*
X64666857Y-52855904D01*
X64857333Y-52808285D01*
X65095428Y-52808285D01*
X65285904Y-52855904D01*
X65381142Y-52903523D01*
X65428761Y-52951142D01*
X65476380Y-53046380D01*
X65476380Y-53141619D01*
X65428761Y-53236857D01*
X65381142Y-53284476D01*
X65285904Y-53332095D01*
X65095428Y-53379714D01*
X64857333Y-53379714D01*
X64666857Y-53332095D01*
X64571619Y-53284476D01*
X64524000Y-53236857D01*
X64476380Y-53141619D01*
X64809714Y-51951142D02*
X65476380Y-51951142D01*
X64428761Y-52189238D02*
X65143047Y-52427333D01*
X65143047Y-51808285D01*
%TO.C,D205*%
X116022380Y-54522476D02*
X115022380Y-54522476D01*
X115022380Y-54284380D01*
X115070000Y-54141523D01*
X115165238Y-54046285D01*
X115260476Y-53998666D01*
X115450952Y-53951047D01*
X115593809Y-53951047D01*
X115784285Y-53998666D01*
X115879523Y-54046285D01*
X115974761Y-54141523D01*
X116022380Y-54284380D01*
X116022380Y-54522476D01*
X115117619Y-53570095D02*
X115070000Y-53522476D01*
X115022380Y-53427238D01*
X115022380Y-53189142D01*
X115070000Y-53093904D01*
X115117619Y-53046285D01*
X115212857Y-52998666D01*
X115308095Y-52998666D01*
X115450952Y-53046285D01*
X116022380Y-53617714D01*
X116022380Y-52998666D01*
X115022380Y-52379619D02*
X115022380Y-52284380D01*
X115070000Y-52189142D01*
X115117619Y-52141523D01*
X115212857Y-52093904D01*
X115403333Y-52046285D01*
X115641428Y-52046285D01*
X115831904Y-52093904D01*
X115927142Y-52141523D01*
X115974761Y-52189142D01*
X116022380Y-52284380D01*
X116022380Y-52379619D01*
X115974761Y-52474857D01*
X115927142Y-52522476D01*
X115831904Y-52570095D01*
X115641428Y-52617714D01*
X115403333Y-52617714D01*
X115212857Y-52570095D01*
X115117619Y-52522476D01*
X115070000Y-52474857D01*
X115022380Y-52379619D01*
X115022380Y-51141523D02*
X115022380Y-51617714D01*
X115498571Y-51665333D01*
X115450952Y-51617714D01*
X115403333Y-51522476D01*
X115403333Y-51284380D01*
X115450952Y-51189142D01*
X115498571Y-51141523D01*
X115593809Y-51093904D01*
X115831904Y-51093904D01*
X115927142Y-51141523D01*
X115974761Y-51189142D01*
X116022380Y-51284380D01*
X116022380Y-51522476D01*
X115974761Y-51617714D01*
X115927142Y-51665333D01*
%TO.C,D206*%
X118562380Y-54522476D02*
X117562380Y-54522476D01*
X117562380Y-54284380D01*
X117610000Y-54141523D01*
X117705238Y-54046285D01*
X117800476Y-53998666D01*
X117990952Y-53951047D01*
X118133809Y-53951047D01*
X118324285Y-53998666D01*
X118419523Y-54046285D01*
X118514761Y-54141523D01*
X118562380Y-54284380D01*
X118562380Y-54522476D01*
X117657619Y-53570095D02*
X117610000Y-53522476D01*
X117562380Y-53427238D01*
X117562380Y-53189142D01*
X117610000Y-53093904D01*
X117657619Y-53046285D01*
X117752857Y-52998666D01*
X117848095Y-52998666D01*
X117990952Y-53046285D01*
X118562380Y-53617714D01*
X118562380Y-52998666D01*
X117562380Y-52379619D02*
X117562380Y-52284380D01*
X117610000Y-52189142D01*
X117657619Y-52141523D01*
X117752857Y-52093904D01*
X117943333Y-52046285D01*
X118181428Y-52046285D01*
X118371904Y-52093904D01*
X118467142Y-52141523D01*
X118514761Y-52189142D01*
X118562380Y-52284380D01*
X118562380Y-52379619D01*
X118514761Y-52474857D01*
X118467142Y-52522476D01*
X118371904Y-52570095D01*
X118181428Y-52617714D01*
X117943333Y-52617714D01*
X117752857Y-52570095D01*
X117657619Y-52522476D01*
X117610000Y-52474857D01*
X117562380Y-52379619D01*
X117562380Y-51189142D02*
X117562380Y-51379619D01*
X117610000Y-51474857D01*
X117657619Y-51522476D01*
X117800476Y-51617714D01*
X117990952Y-51665333D01*
X118371904Y-51665333D01*
X118467142Y-51617714D01*
X118514761Y-51570095D01*
X118562380Y-51474857D01*
X118562380Y-51284380D01*
X118514761Y-51189142D01*
X118467142Y-51141523D01*
X118371904Y-51093904D01*
X118133809Y-51093904D01*
X118038571Y-51141523D01*
X117990952Y-51189142D01*
X117943333Y-51284380D01*
X117943333Y-51474857D01*
X117990952Y-51570095D01*
X118038571Y-51617714D01*
X118133809Y-51665333D01*
%TO.C,D301*%
X68794523Y-87447380D02*
X68794523Y-86447380D01*
X69032619Y-86447380D01*
X69175476Y-86495000D01*
X69270714Y-86590238D01*
X69318333Y-86685476D01*
X69365952Y-86875952D01*
X69365952Y-87018809D01*
X69318333Y-87209285D01*
X69270714Y-87304523D01*
X69175476Y-87399761D01*
X69032619Y-87447380D01*
X68794523Y-87447380D01*
X69699285Y-86447380D02*
X70318333Y-86447380D01*
X69985000Y-86828333D01*
X70127857Y-86828333D01*
X70223095Y-86875952D01*
X70270714Y-86923571D01*
X70318333Y-87018809D01*
X70318333Y-87256904D01*
X70270714Y-87352142D01*
X70223095Y-87399761D01*
X70127857Y-87447380D01*
X69842142Y-87447380D01*
X69746904Y-87399761D01*
X69699285Y-87352142D01*
X70937380Y-86447380D02*
X71032619Y-86447380D01*
X71127857Y-86495000D01*
X71175476Y-86542619D01*
X71223095Y-86637857D01*
X71270714Y-86828333D01*
X71270714Y-87066428D01*
X71223095Y-87256904D01*
X71175476Y-87352142D01*
X71127857Y-87399761D01*
X71032619Y-87447380D01*
X70937380Y-87447380D01*
X70842142Y-87399761D01*
X70794523Y-87352142D01*
X70746904Y-87256904D01*
X70699285Y-87066428D01*
X70699285Y-86828333D01*
X70746904Y-86637857D01*
X70794523Y-86542619D01*
X70842142Y-86495000D01*
X70937380Y-86447380D01*
X72223095Y-87447380D02*
X71651666Y-87447380D01*
X71937380Y-87447380D02*
X71937380Y-86447380D01*
X71842142Y-86590238D01*
X71746904Y-86685476D01*
X71651666Y-86733095D01*
%TO.C,D302*%
X80462380Y-88050476D02*
X79462380Y-88050476D01*
X79462380Y-87812380D01*
X79510000Y-87669523D01*
X79605238Y-87574285D01*
X79700476Y-87526666D01*
X79890952Y-87479047D01*
X80033809Y-87479047D01*
X80224285Y-87526666D01*
X80319523Y-87574285D01*
X80414761Y-87669523D01*
X80462380Y-87812380D01*
X80462380Y-88050476D01*
X79462380Y-87145714D02*
X79462380Y-86526666D01*
X79843333Y-86860000D01*
X79843333Y-86717142D01*
X79890952Y-86621904D01*
X79938571Y-86574285D01*
X80033809Y-86526666D01*
X80271904Y-86526666D01*
X80367142Y-86574285D01*
X80414761Y-86621904D01*
X80462380Y-86717142D01*
X80462380Y-87002857D01*
X80414761Y-87098095D01*
X80367142Y-87145714D01*
X79462380Y-85907619D02*
X79462380Y-85812380D01*
X79510000Y-85717142D01*
X79557619Y-85669523D01*
X79652857Y-85621904D01*
X79843333Y-85574285D01*
X80081428Y-85574285D01*
X80271904Y-85621904D01*
X80367142Y-85669523D01*
X80414761Y-85717142D01*
X80462380Y-85812380D01*
X80462380Y-85907619D01*
X80414761Y-86002857D01*
X80367142Y-86050476D01*
X80271904Y-86098095D01*
X80081428Y-86145714D01*
X79843333Y-86145714D01*
X79652857Y-86098095D01*
X79557619Y-86050476D01*
X79510000Y-86002857D01*
X79462380Y-85907619D01*
X79557619Y-85193333D02*
X79510000Y-85145714D01*
X79462380Y-85050476D01*
X79462380Y-84812380D01*
X79510000Y-84717142D01*
X79557619Y-84669523D01*
X79652857Y-84621904D01*
X79748095Y-84621904D01*
X79890952Y-84669523D01*
X80462380Y-85240952D01*
X80462380Y-84621904D01*
%TO.C,D303*%
X83637380Y-88050476D02*
X82637380Y-88050476D01*
X82637380Y-87812380D01*
X82685000Y-87669523D01*
X82780238Y-87574285D01*
X82875476Y-87526666D01*
X83065952Y-87479047D01*
X83208809Y-87479047D01*
X83399285Y-87526666D01*
X83494523Y-87574285D01*
X83589761Y-87669523D01*
X83637380Y-87812380D01*
X83637380Y-88050476D01*
X82637380Y-87145714D02*
X82637380Y-86526666D01*
X83018333Y-86860000D01*
X83018333Y-86717142D01*
X83065952Y-86621904D01*
X83113571Y-86574285D01*
X83208809Y-86526666D01*
X83446904Y-86526666D01*
X83542142Y-86574285D01*
X83589761Y-86621904D01*
X83637380Y-86717142D01*
X83637380Y-87002857D01*
X83589761Y-87098095D01*
X83542142Y-87145714D01*
X82637380Y-85907619D02*
X82637380Y-85812380D01*
X82685000Y-85717142D01*
X82732619Y-85669523D01*
X82827857Y-85621904D01*
X83018333Y-85574285D01*
X83256428Y-85574285D01*
X83446904Y-85621904D01*
X83542142Y-85669523D01*
X83589761Y-85717142D01*
X83637380Y-85812380D01*
X83637380Y-85907619D01*
X83589761Y-86002857D01*
X83542142Y-86050476D01*
X83446904Y-86098095D01*
X83256428Y-86145714D01*
X83018333Y-86145714D01*
X82827857Y-86098095D01*
X82732619Y-86050476D01*
X82685000Y-86002857D01*
X82637380Y-85907619D01*
X82637380Y-85240952D02*
X82637380Y-84621904D01*
X83018333Y-84955238D01*
X83018333Y-84812380D01*
X83065952Y-84717142D01*
X83113571Y-84669523D01*
X83208809Y-84621904D01*
X83446904Y-84621904D01*
X83542142Y-84669523D01*
X83589761Y-84717142D01*
X83637380Y-84812380D01*
X83637380Y-85098095D01*
X83589761Y-85193333D01*
X83542142Y-85240952D01*
%TO.C,D304*%
X61809523Y-87447380D02*
X61809523Y-86447380D01*
X62047619Y-86447380D01*
X62190476Y-86495000D01*
X62285714Y-86590238D01*
X62333333Y-86685476D01*
X62380952Y-86875952D01*
X62380952Y-87018809D01*
X62333333Y-87209285D01*
X62285714Y-87304523D01*
X62190476Y-87399761D01*
X62047619Y-87447380D01*
X61809523Y-87447380D01*
X62714285Y-86447380D02*
X63333333Y-86447380D01*
X63000000Y-86828333D01*
X63142857Y-86828333D01*
X63238095Y-86875952D01*
X63285714Y-86923571D01*
X63333333Y-87018809D01*
X63333333Y-87256904D01*
X63285714Y-87352142D01*
X63238095Y-87399761D01*
X63142857Y-87447380D01*
X62857142Y-87447380D01*
X62761904Y-87399761D01*
X62714285Y-87352142D01*
X63952380Y-86447380D02*
X64047619Y-86447380D01*
X64142857Y-86495000D01*
X64190476Y-86542619D01*
X64238095Y-86637857D01*
X64285714Y-86828333D01*
X64285714Y-87066428D01*
X64238095Y-87256904D01*
X64190476Y-87352142D01*
X64142857Y-87399761D01*
X64047619Y-87447380D01*
X63952380Y-87447380D01*
X63857142Y-87399761D01*
X63809523Y-87352142D01*
X63761904Y-87256904D01*
X63714285Y-87066428D01*
X63714285Y-86828333D01*
X63761904Y-86637857D01*
X63809523Y-86542619D01*
X63857142Y-86495000D01*
X63952380Y-86447380D01*
X65142857Y-86780714D02*
X65142857Y-87447380D01*
X64904761Y-86399761D02*
X64666666Y-87114047D01*
X65285714Y-87114047D01*
%TO.C,D305*%
X116110380Y-69762476D02*
X115110380Y-69762476D01*
X115110380Y-69524380D01*
X115158000Y-69381523D01*
X115253238Y-69286285D01*
X115348476Y-69238666D01*
X115538952Y-69191047D01*
X115681809Y-69191047D01*
X115872285Y-69238666D01*
X115967523Y-69286285D01*
X116062761Y-69381523D01*
X116110380Y-69524380D01*
X116110380Y-69762476D01*
X115110380Y-68857714D02*
X115110380Y-68238666D01*
X115491333Y-68572000D01*
X115491333Y-68429142D01*
X115538952Y-68333904D01*
X115586571Y-68286285D01*
X115681809Y-68238666D01*
X115919904Y-68238666D01*
X116015142Y-68286285D01*
X116062761Y-68333904D01*
X116110380Y-68429142D01*
X116110380Y-68714857D01*
X116062761Y-68810095D01*
X116015142Y-68857714D01*
X115110380Y-67619619D02*
X115110380Y-67524380D01*
X115158000Y-67429142D01*
X115205619Y-67381523D01*
X115300857Y-67333904D01*
X115491333Y-67286285D01*
X115729428Y-67286285D01*
X115919904Y-67333904D01*
X116015142Y-67381523D01*
X116062761Y-67429142D01*
X116110380Y-67524380D01*
X116110380Y-67619619D01*
X116062761Y-67714857D01*
X116015142Y-67762476D01*
X115919904Y-67810095D01*
X115729428Y-67857714D01*
X115491333Y-67857714D01*
X115300857Y-67810095D01*
X115205619Y-67762476D01*
X115158000Y-67714857D01*
X115110380Y-67619619D01*
X115110380Y-66381523D02*
X115110380Y-66857714D01*
X115586571Y-66905333D01*
X115538952Y-66857714D01*
X115491333Y-66762476D01*
X115491333Y-66524380D01*
X115538952Y-66429142D01*
X115586571Y-66381523D01*
X115681809Y-66333904D01*
X115919904Y-66333904D01*
X116015142Y-66381523D01*
X116062761Y-66429142D01*
X116110380Y-66524380D01*
X116110380Y-66762476D01*
X116062761Y-66857714D01*
X116015142Y-66905333D01*
%TO.C,D306*%
X111577380Y-62650476D02*
X110577380Y-62650476D01*
X110577380Y-62412380D01*
X110625000Y-62269523D01*
X110720238Y-62174285D01*
X110815476Y-62126666D01*
X111005952Y-62079047D01*
X111148809Y-62079047D01*
X111339285Y-62126666D01*
X111434523Y-62174285D01*
X111529761Y-62269523D01*
X111577380Y-62412380D01*
X111577380Y-62650476D01*
X110577380Y-61745714D02*
X110577380Y-61126666D01*
X110958333Y-61460000D01*
X110958333Y-61317142D01*
X111005952Y-61221904D01*
X111053571Y-61174285D01*
X111148809Y-61126666D01*
X111386904Y-61126666D01*
X111482142Y-61174285D01*
X111529761Y-61221904D01*
X111577380Y-61317142D01*
X111577380Y-61602857D01*
X111529761Y-61698095D01*
X111482142Y-61745714D01*
X110577380Y-60507619D02*
X110577380Y-60412380D01*
X110625000Y-60317142D01*
X110672619Y-60269523D01*
X110767857Y-60221904D01*
X110958333Y-60174285D01*
X111196428Y-60174285D01*
X111386904Y-60221904D01*
X111482142Y-60269523D01*
X111529761Y-60317142D01*
X111577380Y-60412380D01*
X111577380Y-60507619D01*
X111529761Y-60602857D01*
X111482142Y-60650476D01*
X111386904Y-60698095D01*
X111196428Y-60745714D01*
X110958333Y-60745714D01*
X110767857Y-60698095D01*
X110672619Y-60650476D01*
X110625000Y-60602857D01*
X110577380Y-60507619D01*
X110577380Y-59317142D02*
X110577380Y-59507619D01*
X110625000Y-59602857D01*
X110672619Y-59650476D01*
X110815476Y-59745714D01*
X111005952Y-59793333D01*
X111386904Y-59793333D01*
X111482142Y-59745714D01*
X111529761Y-59698095D01*
X111577380Y-59602857D01*
X111577380Y-59412380D01*
X111529761Y-59317142D01*
X111482142Y-59269523D01*
X111386904Y-59221904D01*
X111148809Y-59221904D01*
X111053571Y-59269523D01*
X111005952Y-59317142D01*
X110958333Y-59412380D01*
X110958333Y-59602857D01*
X111005952Y-59698095D01*
X111053571Y-59745714D01*
X111148809Y-59793333D01*
%TO.C,D401*%
X74516380Y-114212476D02*
X73516380Y-114212476D01*
X73516380Y-113974380D01*
X73564000Y-113831523D01*
X73659238Y-113736285D01*
X73754476Y-113688666D01*
X73944952Y-113641047D01*
X74087809Y-113641047D01*
X74278285Y-113688666D01*
X74373523Y-113736285D01*
X74468761Y-113831523D01*
X74516380Y-113974380D01*
X74516380Y-114212476D01*
X73849714Y-112783904D02*
X74516380Y-112783904D01*
X73468761Y-113022000D02*
X74183047Y-113260095D01*
X74183047Y-112641047D01*
X73516380Y-112069619D02*
X73516380Y-111974380D01*
X73564000Y-111879142D01*
X73611619Y-111831523D01*
X73706857Y-111783904D01*
X73897333Y-111736285D01*
X74135428Y-111736285D01*
X74325904Y-111783904D01*
X74421142Y-111831523D01*
X74468761Y-111879142D01*
X74516380Y-111974380D01*
X74516380Y-112069619D01*
X74468761Y-112164857D01*
X74421142Y-112212476D01*
X74325904Y-112260095D01*
X74135428Y-112307714D01*
X73897333Y-112307714D01*
X73706857Y-112260095D01*
X73611619Y-112212476D01*
X73564000Y-112164857D01*
X73516380Y-112069619D01*
X74516380Y-110783904D02*
X74516380Y-111355333D01*
X74516380Y-111069619D02*
X73516380Y-111069619D01*
X73659238Y-111164857D01*
X73754476Y-111260095D01*
X73802095Y-111355333D01*
%TO.C,D402*%
X83653523Y-115260380D02*
X83653523Y-114260380D01*
X83891619Y-114260380D01*
X84034476Y-114308000D01*
X84129714Y-114403238D01*
X84177333Y-114498476D01*
X84224952Y-114688952D01*
X84224952Y-114831809D01*
X84177333Y-115022285D01*
X84129714Y-115117523D01*
X84034476Y-115212761D01*
X83891619Y-115260380D01*
X83653523Y-115260380D01*
X85082095Y-114593714D02*
X85082095Y-115260380D01*
X84844000Y-114212761D02*
X84605904Y-114927047D01*
X85224952Y-114927047D01*
X85796380Y-114260380D02*
X85891619Y-114260380D01*
X85986857Y-114308000D01*
X86034476Y-114355619D01*
X86082095Y-114450857D01*
X86129714Y-114641333D01*
X86129714Y-114879428D01*
X86082095Y-115069904D01*
X86034476Y-115165142D01*
X85986857Y-115212761D01*
X85891619Y-115260380D01*
X85796380Y-115260380D01*
X85701142Y-115212761D01*
X85653523Y-115165142D01*
X85605904Y-115069904D01*
X85558285Y-114879428D01*
X85558285Y-114641333D01*
X85605904Y-114450857D01*
X85653523Y-114355619D01*
X85701142Y-114308000D01*
X85796380Y-114260380D01*
X86510666Y-114355619D02*
X86558285Y-114308000D01*
X86653523Y-114260380D01*
X86891619Y-114260380D01*
X86986857Y-114308000D01*
X87034476Y-114355619D01*
X87082095Y-114450857D01*
X87082095Y-114546095D01*
X87034476Y-114688952D01*
X86463047Y-115260380D01*
X87082095Y-115260380D01*
%TO.C,D403*%
X84415523Y-108402380D02*
X84415523Y-107402380D01*
X84653619Y-107402380D01*
X84796476Y-107450000D01*
X84891714Y-107545238D01*
X84939333Y-107640476D01*
X84986952Y-107830952D01*
X84986952Y-107973809D01*
X84939333Y-108164285D01*
X84891714Y-108259523D01*
X84796476Y-108354761D01*
X84653619Y-108402380D01*
X84415523Y-108402380D01*
X85844095Y-107735714D02*
X85844095Y-108402380D01*
X85606000Y-107354761D02*
X85367904Y-108069047D01*
X85986952Y-108069047D01*
X86558380Y-107402380D02*
X86653619Y-107402380D01*
X86748857Y-107450000D01*
X86796476Y-107497619D01*
X86844095Y-107592857D01*
X86891714Y-107783333D01*
X86891714Y-108021428D01*
X86844095Y-108211904D01*
X86796476Y-108307142D01*
X86748857Y-108354761D01*
X86653619Y-108402380D01*
X86558380Y-108402380D01*
X86463142Y-108354761D01*
X86415523Y-108307142D01*
X86367904Y-108211904D01*
X86320285Y-108021428D01*
X86320285Y-107783333D01*
X86367904Y-107592857D01*
X86415523Y-107497619D01*
X86463142Y-107450000D01*
X86558380Y-107402380D01*
X87225047Y-107402380D02*
X87844095Y-107402380D01*
X87510761Y-107783333D01*
X87653619Y-107783333D01*
X87748857Y-107830952D01*
X87796476Y-107878571D01*
X87844095Y-107973809D01*
X87844095Y-108211904D01*
X87796476Y-108307142D01*
X87748857Y-108354761D01*
X87653619Y-108402380D01*
X87367904Y-108402380D01*
X87272666Y-108354761D01*
X87225047Y-108307142D01*
%TO.C,D404*%
X65984380Y-109132476D02*
X64984380Y-109132476D01*
X64984380Y-108894380D01*
X65032000Y-108751523D01*
X65127238Y-108656285D01*
X65222476Y-108608666D01*
X65412952Y-108561047D01*
X65555809Y-108561047D01*
X65746285Y-108608666D01*
X65841523Y-108656285D01*
X65936761Y-108751523D01*
X65984380Y-108894380D01*
X65984380Y-109132476D01*
X65317714Y-107703904D02*
X65984380Y-107703904D01*
X64936761Y-107942000D02*
X65651047Y-108180095D01*
X65651047Y-107561047D01*
X64984380Y-106989619D02*
X64984380Y-106894380D01*
X65032000Y-106799142D01*
X65079619Y-106751523D01*
X65174857Y-106703904D01*
X65365333Y-106656285D01*
X65603428Y-106656285D01*
X65793904Y-106703904D01*
X65889142Y-106751523D01*
X65936761Y-106799142D01*
X65984380Y-106894380D01*
X65984380Y-106989619D01*
X65936761Y-107084857D01*
X65889142Y-107132476D01*
X65793904Y-107180095D01*
X65603428Y-107227714D01*
X65365333Y-107227714D01*
X65174857Y-107180095D01*
X65079619Y-107132476D01*
X65032000Y-107084857D01*
X64984380Y-106989619D01*
X65317714Y-105799142D02*
X65984380Y-105799142D01*
X64936761Y-106037238D02*
X65651047Y-106275333D01*
X65651047Y-105656285D01*
%TO.C,D405*%
X116530380Y-114212476D02*
X115530380Y-114212476D01*
X115530380Y-113974380D01*
X115578000Y-113831523D01*
X115673238Y-113736285D01*
X115768476Y-113688666D01*
X115958952Y-113641047D01*
X116101809Y-113641047D01*
X116292285Y-113688666D01*
X116387523Y-113736285D01*
X116482761Y-113831523D01*
X116530380Y-113974380D01*
X116530380Y-114212476D01*
X115863714Y-112783904D02*
X116530380Y-112783904D01*
X115482761Y-113022000D02*
X116197047Y-113260095D01*
X116197047Y-112641047D01*
X115530380Y-112069619D02*
X115530380Y-111974380D01*
X115578000Y-111879142D01*
X115625619Y-111831523D01*
X115720857Y-111783904D01*
X115911333Y-111736285D01*
X116149428Y-111736285D01*
X116339904Y-111783904D01*
X116435142Y-111831523D01*
X116482761Y-111879142D01*
X116530380Y-111974380D01*
X116530380Y-112069619D01*
X116482761Y-112164857D01*
X116435142Y-112212476D01*
X116339904Y-112260095D01*
X116149428Y-112307714D01*
X115911333Y-112307714D01*
X115720857Y-112260095D01*
X115625619Y-112212476D01*
X115578000Y-112164857D01*
X115530380Y-112069619D01*
X115530380Y-110831523D02*
X115530380Y-111307714D01*
X116006571Y-111355333D01*
X115958952Y-111307714D01*
X115911333Y-111212476D01*
X115911333Y-110974380D01*
X115958952Y-110879142D01*
X116006571Y-110831523D01*
X116101809Y-110783904D01*
X116339904Y-110783904D01*
X116435142Y-110831523D01*
X116482761Y-110879142D01*
X116530380Y-110974380D01*
X116530380Y-111212476D01*
X116482761Y-111307714D01*
X116435142Y-111355333D01*
%TO.C,D406*%
X110180380Y-114720476D02*
X109180380Y-114720476D01*
X109180380Y-114482380D01*
X109228000Y-114339523D01*
X109323238Y-114244285D01*
X109418476Y-114196666D01*
X109608952Y-114149047D01*
X109751809Y-114149047D01*
X109942285Y-114196666D01*
X110037523Y-114244285D01*
X110132761Y-114339523D01*
X110180380Y-114482380D01*
X110180380Y-114720476D01*
X109513714Y-113291904D02*
X110180380Y-113291904D01*
X109132761Y-113530000D02*
X109847047Y-113768095D01*
X109847047Y-113149047D01*
X109180380Y-112577619D02*
X109180380Y-112482380D01*
X109228000Y-112387142D01*
X109275619Y-112339523D01*
X109370857Y-112291904D01*
X109561333Y-112244285D01*
X109799428Y-112244285D01*
X109989904Y-112291904D01*
X110085142Y-112339523D01*
X110132761Y-112387142D01*
X110180380Y-112482380D01*
X110180380Y-112577619D01*
X110132761Y-112672857D01*
X110085142Y-112720476D01*
X109989904Y-112768095D01*
X109799428Y-112815714D01*
X109561333Y-112815714D01*
X109370857Y-112768095D01*
X109275619Y-112720476D01*
X109228000Y-112672857D01*
X109180380Y-112577619D01*
X109180380Y-111387142D02*
X109180380Y-111577619D01*
X109228000Y-111672857D01*
X109275619Y-111720476D01*
X109418476Y-111815714D01*
X109608952Y-111863333D01*
X109989904Y-111863333D01*
X110085142Y-111815714D01*
X110132761Y-111768095D01*
X110180380Y-111672857D01*
X110180380Y-111482380D01*
X110132761Y-111387142D01*
X110085142Y-111339523D01*
X109989904Y-111291904D01*
X109751809Y-111291904D01*
X109656571Y-111339523D01*
X109608952Y-111387142D01*
X109561333Y-111482380D01*
X109561333Y-111672857D01*
X109608952Y-111768095D01*
X109656571Y-111815714D01*
X109751809Y-111863333D01*
%TO.C,D501*%
X74874380Y-138850476D02*
X73874380Y-138850476D01*
X73874380Y-138612380D01*
X73922000Y-138469523D01*
X74017238Y-138374285D01*
X74112476Y-138326666D01*
X74302952Y-138279047D01*
X74445809Y-138279047D01*
X74636285Y-138326666D01*
X74731523Y-138374285D01*
X74826761Y-138469523D01*
X74874380Y-138612380D01*
X74874380Y-138850476D01*
X73874380Y-137374285D02*
X73874380Y-137850476D01*
X74350571Y-137898095D01*
X74302952Y-137850476D01*
X74255333Y-137755238D01*
X74255333Y-137517142D01*
X74302952Y-137421904D01*
X74350571Y-137374285D01*
X74445809Y-137326666D01*
X74683904Y-137326666D01*
X74779142Y-137374285D01*
X74826761Y-137421904D01*
X74874380Y-137517142D01*
X74874380Y-137755238D01*
X74826761Y-137850476D01*
X74779142Y-137898095D01*
X73874380Y-136707619D02*
X73874380Y-136612380D01*
X73922000Y-136517142D01*
X73969619Y-136469523D01*
X74064857Y-136421904D01*
X74255333Y-136374285D01*
X74493428Y-136374285D01*
X74683904Y-136421904D01*
X74779142Y-136469523D01*
X74826761Y-136517142D01*
X74874380Y-136612380D01*
X74874380Y-136707619D01*
X74826761Y-136802857D01*
X74779142Y-136850476D01*
X74683904Y-136898095D01*
X74493428Y-136945714D01*
X74255333Y-136945714D01*
X74064857Y-136898095D01*
X73969619Y-136850476D01*
X73922000Y-136802857D01*
X73874380Y-136707619D01*
X74874380Y-135421904D02*
X74874380Y-135993333D01*
X74874380Y-135707619D02*
X73874380Y-135707619D01*
X74017238Y-135802857D01*
X74112476Y-135898095D01*
X74160095Y-135993333D01*
%TO.C,D502*%
X78684380Y-134532476D02*
X77684380Y-134532476D01*
X77684380Y-134294380D01*
X77732000Y-134151523D01*
X77827238Y-134056285D01*
X77922476Y-134008666D01*
X78112952Y-133961047D01*
X78255809Y-133961047D01*
X78446285Y-134008666D01*
X78541523Y-134056285D01*
X78636761Y-134151523D01*
X78684380Y-134294380D01*
X78684380Y-134532476D01*
X77684380Y-133056285D02*
X77684380Y-133532476D01*
X78160571Y-133580095D01*
X78112952Y-133532476D01*
X78065333Y-133437238D01*
X78065333Y-133199142D01*
X78112952Y-133103904D01*
X78160571Y-133056285D01*
X78255809Y-133008666D01*
X78493904Y-133008666D01*
X78589142Y-133056285D01*
X78636761Y-133103904D01*
X78684380Y-133199142D01*
X78684380Y-133437238D01*
X78636761Y-133532476D01*
X78589142Y-133580095D01*
X77684380Y-132389619D02*
X77684380Y-132294380D01*
X77732000Y-132199142D01*
X77779619Y-132151523D01*
X77874857Y-132103904D01*
X78065333Y-132056285D01*
X78303428Y-132056285D01*
X78493904Y-132103904D01*
X78589142Y-132151523D01*
X78636761Y-132199142D01*
X78684380Y-132294380D01*
X78684380Y-132389619D01*
X78636761Y-132484857D01*
X78589142Y-132532476D01*
X78493904Y-132580095D01*
X78303428Y-132627714D01*
X78065333Y-132627714D01*
X77874857Y-132580095D01*
X77779619Y-132532476D01*
X77732000Y-132484857D01*
X77684380Y-132389619D01*
X77779619Y-131675333D02*
X77732000Y-131627714D01*
X77684380Y-131532476D01*
X77684380Y-131294380D01*
X77732000Y-131199142D01*
X77779619Y-131151523D01*
X77874857Y-131103904D01*
X77970095Y-131103904D01*
X78112952Y-131151523D01*
X78684380Y-131722952D01*
X78684380Y-131103904D01*
%TO.C,D503*%
X85288380Y-137580476D02*
X84288380Y-137580476D01*
X84288380Y-137342380D01*
X84336000Y-137199523D01*
X84431238Y-137104285D01*
X84526476Y-137056666D01*
X84716952Y-137009047D01*
X84859809Y-137009047D01*
X85050285Y-137056666D01*
X85145523Y-137104285D01*
X85240761Y-137199523D01*
X85288380Y-137342380D01*
X85288380Y-137580476D01*
X84288380Y-136104285D02*
X84288380Y-136580476D01*
X84764571Y-136628095D01*
X84716952Y-136580476D01*
X84669333Y-136485238D01*
X84669333Y-136247142D01*
X84716952Y-136151904D01*
X84764571Y-136104285D01*
X84859809Y-136056666D01*
X85097904Y-136056666D01*
X85193142Y-136104285D01*
X85240761Y-136151904D01*
X85288380Y-136247142D01*
X85288380Y-136485238D01*
X85240761Y-136580476D01*
X85193142Y-136628095D01*
X84288380Y-135437619D02*
X84288380Y-135342380D01*
X84336000Y-135247142D01*
X84383619Y-135199523D01*
X84478857Y-135151904D01*
X84669333Y-135104285D01*
X84907428Y-135104285D01*
X85097904Y-135151904D01*
X85193142Y-135199523D01*
X85240761Y-135247142D01*
X85288380Y-135342380D01*
X85288380Y-135437619D01*
X85240761Y-135532857D01*
X85193142Y-135580476D01*
X85097904Y-135628095D01*
X84907428Y-135675714D01*
X84669333Y-135675714D01*
X84478857Y-135628095D01*
X84383619Y-135580476D01*
X84336000Y-135532857D01*
X84288380Y-135437619D01*
X84288380Y-134770952D02*
X84288380Y-134151904D01*
X84669333Y-134485238D01*
X84669333Y-134342380D01*
X84716952Y-134247142D01*
X84764571Y-134199523D01*
X84859809Y-134151904D01*
X85097904Y-134151904D01*
X85193142Y-134199523D01*
X85240761Y-134247142D01*
X85288380Y-134342380D01*
X85288380Y-134628095D01*
X85240761Y-134723333D01*
X85193142Y-134770952D01*
%TO.C,D504*%
X65984380Y-132754476D02*
X64984380Y-132754476D01*
X64984380Y-132516380D01*
X65032000Y-132373523D01*
X65127238Y-132278285D01*
X65222476Y-132230666D01*
X65412952Y-132183047D01*
X65555809Y-132183047D01*
X65746285Y-132230666D01*
X65841523Y-132278285D01*
X65936761Y-132373523D01*
X65984380Y-132516380D01*
X65984380Y-132754476D01*
X64984380Y-131278285D02*
X64984380Y-131754476D01*
X65460571Y-131802095D01*
X65412952Y-131754476D01*
X65365333Y-131659238D01*
X65365333Y-131421142D01*
X65412952Y-131325904D01*
X65460571Y-131278285D01*
X65555809Y-131230666D01*
X65793904Y-131230666D01*
X65889142Y-131278285D01*
X65936761Y-131325904D01*
X65984380Y-131421142D01*
X65984380Y-131659238D01*
X65936761Y-131754476D01*
X65889142Y-131802095D01*
X64984380Y-130611619D02*
X64984380Y-130516380D01*
X65032000Y-130421142D01*
X65079619Y-130373523D01*
X65174857Y-130325904D01*
X65365333Y-130278285D01*
X65603428Y-130278285D01*
X65793904Y-130325904D01*
X65889142Y-130373523D01*
X65936761Y-130421142D01*
X65984380Y-130516380D01*
X65984380Y-130611619D01*
X65936761Y-130706857D01*
X65889142Y-130754476D01*
X65793904Y-130802095D01*
X65603428Y-130849714D01*
X65365333Y-130849714D01*
X65174857Y-130802095D01*
X65079619Y-130754476D01*
X65032000Y-130706857D01*
X64984380Y-130611619D01*
X65317714Y-129421142D02*
X65984380Y-129421142D01*
X64936761Y-129659238D02*
X65651047Y-129897333D01*
X65651047Y-129278285D01*
%TO.C,D505*%
X114498380Y-136056476D02*
X113498380Y-136056476D01*
X113498380Y-135818380D01*
X113546000Y-135675523D01*
X113641238Y-135580285D01*
X113736476Y-135532666D01*
X113926952Y-135485047D01*
X114069809Y-135485047D01*
X114260285Y-135532666D01*
X114355523Y-135580285D01*
X114450761Y-135675523D01*
X114498380Y-135818380D01*
X114498380Y-136056476D01*
X113498380Y-134580285D02*
X113498380Y-135056476D01*
X113974571Y-135104095D01*
X113926952Y-135056476D01*
X113879333Y-134961238D01*
X113879333Y-134723142D01*
X113926952Y-134627904D01*
X113974571Y-134580285D01*
X114069809Y-134532666D01*
X114307904Y-134532666D01*
X114403142Y-134580285D01*
X114450761Y-134627904D01*
X114498380Y-134723142D01*
X114498380Y-134961238D01*
X114450761Y-135056476D01*
X114403142Y-135104095D01*
X113498380Y-133913619D02*
X113498380Y-133818380D01*
X113546000Y-133723142D01*
X113593619Y-133675523D01*
X113688857Y-133627904D01*
X113879333Y-133580285D01*
X114117428Y-133580285D01*
X114307904Y-133627904D01*
X114403142Y-133675523D01*
X114450761Y-133723142D01*
X114498380Y-133818380D01*
X114498380Y-133913619D01*
X114450761Y-134008857D01*
X114403142Y-134056476D01*
X114307904Y-134104095D01*
X114117428Y-134151714D01*
X113879333Y-134151714D01*
X113688857Y-134104095D01*
X113593619Y-134056476D01*
X113546000Y-134008857D01*
X113498380Y-133913619D01*
X113498380Y-132675523D02*
X113498380Y-133151714D01*
X113974571Y-133199333D01*
X113926952Y-133151714D01*
X113879333Y-133056476D01*
X113879333Y-132818380D01*
X113926952Y-132723142D01*
X113974571Y-132675523D01*
X114069809Y-132627904D01*
X114307904Y-132627904D01*
X114403142Y-132675523D01*
X114450761Y-132723142D01*
X114498380Y-132818380D01*
X114498380Y-133056476D01*
X114450761Y-133151714D01*
X114403142Y-133199333D01*
%TO.C,D506*%
X119070380Y-129706476D02*
X118070380Y-129706476D01*
X118070380Y-129468380D01*
X118118000Y-129325523D01*
X118213238Y-129230285D01*
X118308476Y-129182666D01*
X118498952Y-129135047D01*
X118641809Y-129135047D01*
X118832285Y-129182666D01*
X118927523Y-129230285D01*
X119022761Y-129325523D01*
X119070380Y-129468380D01*
X119070380Y-129706476D01*
X118070380Y-128230285D02*
X118070380Y-128706476D01*
X118546571Y-128754095D01*
X118498952Y-128706476D01*
X118451333Y-128611238D01*
X118451333Y-128373142D01*
X118498952Y-128277904D01*
X118546571Y-128230285D01*
X118641809Y-128182666D01*
X118879904Y-128182666D01*
X118975142Y-128230285D01*
X119022761Y-128277904D01*
X119070380Y-128373142D01*
X119070380Y-128611238D01*
X119022761Y-128706476D01*
X118975142Y-128754095D01*
X118070380Y-127563619D02*
X118070380Y-127468380D01*
X118118000Y-127373142D01*
X118165619Y-127325523D01*
X118260857Y-127277904D01*
X118451333Y-127230285D01*
X118689428Y-127230285D01*
X118879904Y-127277904D01*
X118975142Y-127325523D01*
X119022761Y-127373142D01*
X119070380Y-127468380D01*
X119070380Y-127563619D01*
X119022761Y-127658857D01*
X118975142Y-127706476D01*
X118879904Y-127754095D01*
X118689428Y-127801714D01*
X118451333Y-127801714D01*
X118260857Y-127754095D01*
X118165619Y-127706476D01*
X118118000Y-127658857D01*
X118070380Y-127563619D01*
X118070380Y-126373142D02*
X118070380Y-126563619D01*
X118118000Y-126658857D01*
X118165619Y-126706476D01*
X118308476Y-126801714D01*
X118498952Y-126849333D01*
X118879904Y-126849333D01*
X118975142Y-126801714D01*
X119022761Y-126754095D01*
X119070380Y-126658857D01*
X119070380Y-126468380D01*
X119022761Y-126373142D01*
X118975142Y-126325523D01*
X118879904Y-126277904D01*
X118641809Y-126277904D01*
X118546571Y-126325523D01*
X118498952Y-126373142D01*
X118451333Y-126468380D01*
X118451333Y-126658857D01*
X118498952Y-126754095D01*
X118546571Y-126801714D01*
X118641809Y-126849333D01*
%TO.C,J201*%
X76692285Y-49280380D02*
X76692285Y-49994666D01*
X76644666Y-50137523D01*
X76549428Y-50232761D01*
X76406571Y-50280380D01*
X76311333Y-50280380D01*
X77120857Y-49375619D02*
X77168476Y-49328000D01*
X77263714Y-49280380D01*
X77501809Y-49280380D01*
X77597047Y-49328000D01*
X77644666Y-49375619D01*
X77692285Y-49470857D01*
X77692285Y-49566095D01*
X77644666Y-49708952D01*
X77073238Y-50280380D01*
X77692285Y-50280380D01*
X78311333Y-49280380D02*
X78406571Y-49280380D01*
X78501809Y-49328000D01*
X78549428Y-49375619D01*
X78597047Y-49470857D01*
X78644666Y-49661333D01*
X78644666Y-49899428D01*
X78597047Y-50089904D01*
X78549428Y-50185142D01*
X78501809Y-50232761D01*
X78406571Y-50280380D01*
X78311333Y-50280380D01*
X78216095Y-50232761D01*
X78168476Y-50185142D01*
X78120857Y-50089904D01*
X78073238Y-49899428D01*
X78073238Y-49661333D01*
X78120857Y-49470857D01*
X78168476Y-49375619D01*
X78216095Y-49328000D01*
X78311333Y-49280380D01*
X79597047Y-50280380D02*
X79025619Y-50280380D01*
X79311333Y-50280380D02*
X79311333Y-49280380D01*
X79216095Y-49423238D01*
X79120857Y-49518476D01*
X79025619Y-49566095D01*
%TO.C,J301*%
X75168285Y-82637380D02*
X75168285Y-83351666D01*
X75120666Y-83494523D01*
X75025428Y-83589761D01*
X74882571Y-83637380D01*
X74787333Y-83637380D01*
X75549238Y-82637380D02*
X76168285Y-82637380D01*
X75834952Y-83018333D01*
X75977809Y-83018333D01*
X76073047Y-83065952D01*
X76120666Y-83113571D01*
X76168285Y-83208809D01*
X76168285Y-83446904D01*
X76120666Y-83542142D01*
X76073047Y-83589761D01*
X75977809Y-83637380D01*
X75692095Y-83637380D01*
X75596857Y-83589761D01*
X75549238Y-83542142D01*
X76787333Y-82637380D02*
X76882571Y-82637380D01*
X76977809Y-82685000D01*
X77025428Y-82732619D01*
X77073047Y-82827857D01*
X77120666Y-83018333D01*
X77120666Y-83256428D01*
X77073047Y-83446904D01*
X77025428Y-83542142D01*
X76977809Y-83589761D01*
X76882571Y-83637380D01*
X76787333Y-83637380D01*
X76692095Y-83589761D01*
X76644476Y-83542142D01*
X76596857Y-83446904D01*
X76549238Y-83256428D01*
X76549238Y-83018333D01*
X76596857Y-82827857D01*
X76644476Y-82732619D01*
X76692095Y-82685000D01*
X76787333Y-82637380D01*
X78073047Y-83637380D02*
X77501619Y-83637380D01*
X77787333Y-83637380D02*
X77787333Y-82637380D01*
X77692095Y-82780238D01*
X77596857Y-82875476D01*
X77501619Y-82923095D01*
%TO.C,J401*%
X75295285Y-106469380D02*
X75295285Y-107183666D01*
X75247666Y-107326523D01*
X75152428Y-107421761D01*
X75009571Y-107469380D01*
X74914333Y-107469380D01*
X76200047Y-106802714D02*
X76200047Y-107469380D01*
X75961952Y-106421761D02*
X75723857Y-107136047D01*
X76342904Y-107136047D01*
X76914333Y-106469380D02*
X77009571Y-106469380D01*
X77104809Y-106517000D01*
X77152428Y-106564619D01*
X77200047Y-106659857D01*
X77247666Y-106850333D01*
X77247666Y-107088428D01*
X77200047Y-107278904D01*
X77152428Y-107374142D01*
X77104809Y-107421761D01*
X77009571Y-107469380D01*
X76914333Y-107469380D01*
X76819095Y-107421761D01*
X76771476Y-107374142D01*
X76723857Y-107278904D01*
X76676238Y-107088428D01*
X76676238Y-106850333D01*
X76723857Y-106659857D01*
X76771476Y-106564619D01*
X76819095Y-106517000D01*
X76914333Y-106469380D01*
X78200047Y-107469380D02*
X77628619Y-107469380D01*
X77914333Y-107469380D02*
X77914333Y-106469380D01*
X77819095Y-106612238D01*
X77723857Y-106707476D01*
X77628619Y-106755095D01*
%TO.C,J501*%
X74406285Y-129837380D02*
X74406285Y-130551666D01*
X74358666Y-130694523D01*
X74263428Y-130789761D01*
X74120571Y-130837380D01*
X74025333Y-130837380D01*
X75358666Y-129837380D02*
X74882476Y-129837380D01*
X74834857Y-130313571D01*
X74882476Y-130265952D01*
X74977714Y-130218333D01*
X75215809Y-130218333D01*
X75311047Y-130265952D01*
X75358666Y-130313571D01*
X75406285Y-130408809D01*
X75406285Y-130646904D01*
X75358666Y-130742142D01*
X75311047Y-130789761D01*
X75215809Y-130837380D01*
X74977714Y-130837380D01*
X74882476Y-130789761D01*
X74834857Y-130742142D01*
X76025333Y-129837380D02*
X76120571Y-129837380D01*
X76215809Y-129885000D01*
X76263428Y-129932619D01*
X76311047Y-130027857D01*
X76358666Y-130218333D01*
X76358666Y-130456428D01*
X76311047Y-130646904D01*
X76263428Y-130742142D01*
X76215809Y-130789761D01*
X76120571Y-130837380D01*
X76025333Y-130837380D01*
X75930095Y-130789761D01*
X75882476Y-130742142D01*
X75834857Y-130646904D01*
X75787238Y-130456428D01*
X75787238Y-130218333D01*
X75834857Y-130027857D01*
X75882476Y-129932619D01*
X75930095Y-129885000D01*
X76025333Y-129837380D01*
X77311047Y-130837380D02*
X76739619Y-130837380D01*
X77025333Y-130837380D02*
X77025333Y-129837380D01*
X76930095Y-129980238D01*
X76834857Y-130075476D01*
X76739619Y-130123095D01*
%TO.C,Q201*%
X72358380Y-45505619D02*
X72263142Y-45458000D01*
X72167904Y-45362761D01*
X72025047Y-45219904D01*
X71929809Y-45172285D01*
X71834571Y-45172285D01*
X71882190Y-45410380D02*
X71786952Y-45362761D01*
X71691714Y-45267523D01*
X71644095Y-45077047D01*
X71644095Y-44743714D01*
X71691714Y-44553238D01*
X71786952Y-44458000D01*
X71882190Y-44410380D01*
X72072666Y-44410380D01*
X72167904Y-44458000D01*
X72263142Y-44553238D01*
X72310761Y-44743714D01*
X72310761Y-45077047D01*
X72263142Y-45267523D01*
X72167904Y-45362761D01*
X72072666Y-45410380D01*
X71882190Y-45410380D01*
X72691714Y-44505619D02*
X72739333Y-44458000D01*
X72834571Y-44410380D01*
X73072666Y-44410380D01*
X73167904Y-44458000D01*
X73215523Y-44505619D01*
X73263142Y-44600857D01*
X73263142Y-44696095D01*
X73215523Y-44838952D01*
X72644095Y-45410380D01*
X73263142Y-45410380D01*
X73882190Y-44410380D02*
X73977428Y-44410380D01*
X74072666Y-44458000D01*
X74120285Y-44505619D01*
X74167904Y-44600857D01*
X74215523Y-44791333D01*
X74215523Y-45029428D01*
X74167904Y-45219904D01*
X74120285Y-45315142D01*
X74072666Y-45362761D01*
X73977428Y-45410380D01*
X73882190Y-45410380D01*
X73786952Y-45362761D01*
X73739333Y-45315142D01*
X73691714Y-45219904D01*
X73644095Y-45029428D01*
X73644095Y-44791333D01*
X73691714Y-44600857D01*
X73739333Y-44505619D01*
X73786952Y-44458000D01*
X73882190Y-44410380D01*
X75167904Y-45410380D02*
X74596476Y-45410380D01*
X74882190Y-45410380D02*
X74882190Y-44410380D01*
X74786952Y-44553238D01*
X74691714Y-44648476D01*
X74596476Y-44696095D01*
%TO.C,Q202*%
X67532380Y-45505619D02*
X67437142Y-45458000D01*
X67341904Y-45362761D01*
X67199047Y-45219904D01*
X67103809Y-45172285D01*
X67008571Y-45172285D01*
X67056190Y-45410380D02*
X66960952Y-45362761D01*
X66865714Y-45267523D01*
X66818095Y-45077047D01*
X66818095Y-44743714D01*
X66865714Y-44553238D01*
X66960952Y-44458000D01*
X67056190Y-44410380D01*
X67246666Y-44410380D01*
X67341904Y-44458000D01*
X67437142Y-44553238D01*
X67484761Y-44743714D01*
X67484761Y-45077047D01*
X67437142Y-45267523D01*
X67341904Y-45362761D01*
X67246666Y-45410380D01*
X67056190Y-45410380D01*
X67865714Y-44505619D02*
X67913333Y-44458000D01*
X68008571Y-44410380D01*
X68246666Y-44410380D01*
X68341904Y-44458000D01*
X68389523Y-44505619D01*
X68437142Y-44600857D01*
X68437142Y-44696095D01*
X68389523Y-44838952D01*
X67818095Y-45410380D01*
X68437142Y-45410380D01*
X69056190Y-44410380D02*
X69151428Y-44410380D01*
X69246666Y-44458000D01*
X69294285Y-44505619D01*
X69341904Y-44600857D01*
X69389523Y-44791333D01*
X69389523Y-45029428D01*
X69341904Y-45219904D01*
X69294285Y-45315142D01*
X69246666Y-45362761D01*
X69151428Y-45410380D01*
X69056190Y-45410380D01*
X68960952Y-45362761D01*
X68913333Y-45315142D01*
X68865714Y-45219904D01*
X68818095Y-45029428D01*
X68818095Y-44791333D01*
X68865714Y-44600857D01*
X68913333Y-44505619D01*
X68960952Y-44458000D01*
X69056190Y-44410380D01*
X69770476Y-44505619D02*
X69818095Y-44458000D01*
X69913333Y-44410380D01*
X70151428Y-44410380D01*
X70246666Y-44458000D01*
X70294285Y-44505619D01*
X70341904Y-44600857D01*
X70341904Y-44696095D01*
X70294285Y-44838952D01*
X69722857Y-45410380D01*
X70341904Y-45410380D01*
%TO.C,Q301*%
X78271619Y-74707619D02*
X78224000Y-74802857D01*
X78128761Y-74898095D01*
X77985904Y-75040952D01*
X77938285Y-75136190D01*
X77938285Y-75231428D01*
X78176380Y-75183809D02*
X78128761Y-75279047D01*
X78033523Y-75374285D01*
X77843047Y-75421904D01*
X77509714Y-75421904D01*
X77319238Y-75374285D01*
X77224000Y-75279047D01*
X77176380Y-75183809D01*
X77176380Y-74993333D01*
X77224000Y-74898095D01*
X77319238Y-74802857D01*
X77509714Y-74755238D01*
X77843047Y-74755238D01*
X78033523Y-74802857D01*
X78128761Y-74898095D01*
X78176380Y-74993333D01*
X78176380Y-75183809D01*
X77176380Y-74421904D02*
X77176380Y-73802857D01*
X77557333Y-74136190D01*
X77557333Y-73993333D01*
X77604952Y-73898095D01*
X77652571Y-73850476D01*
X77747809Y-73802857D01*
X77985904Y-73802857D01*
X78081142Y-73850476D01*
X78128761Y-73898095D01*
X78176380Y-73993333D01*
X78176380Y-74279047D01*
X78128761Y-74374285D01*
X78081142Y-74421904D01*
X77176380Y-73183809D02*
X77176380Y-73088571D01*
X77224000Y-72993333D01*
X77271619Y-72945714D01*
X77366857Y-72898095D01*
X77557333Y-72850476D01*
X77795428Y-72850476D01*
X77985904Y-72898095D01*
X78081142Y-72945714D01*
X78128761Y-72993333D01*
X78176380Y-73088571D01*
X78176380Y-73183809D01*
X78128761Y-73279047D01*
X78081142Y-73326666D01*
X77985904Y-73374285D01*
X77795428Y-73421904D01*
X77557333Y-73421904D01*
X77366857Y-73374285D01*
X77271619Y-73326666D01*
X77224000Y-73279047D01*
X77176380Y-73183809D01*
X78176380Y-71898095D02*
X78176380Y-72469523D01*
X78176380Y-72183809D02*
X77176380Y-72183809D01*
X77319238Y-72279047D01*
X77414476Y-72374285D01*
X77462095Y-72469523D01*
%TO.C,Q302*%
X68548380Y-69889619D02*
X68453142Y-69842000D01*
X68357904Y-69746761D01*
X68215047Y-69603904D01*
X68119809Y-69556285D01*
X68024571Y-69556285D01*
X68072190Y-69794380D02*
X67976952Y-69746761D01*
X67881714Y-69651523D01*
X67834095Y-69461047D01*
X67834095Y-69127714D01*
X67881714Y-68937238D01*
X67976952Y-68842000D01*
X68072190Y-68794380D01*
X68262666Y-68794380D01*
X68357904Y-68842000D01*
X68453142Y-68937238D01*
X68500761Y-69127714D01*
X68500761Y-69461047D01*
X68453142Y-69651523D01*
X68357904Y-69746761D01*
X68262666Y-69794380D01*
X68072190Y-69794380D01*
X68834095Y-68794380D02*
X69453142Y-68794380D01*
X69119809Y-69175333D01*
X69262666Y-69175333D01*
X69357904Y-69222952D01*
X69405523Y-69270571D01*
X69453142Y-69365809D01*
X69453142Y-69603904D01*
X69405523Y-69699142D01*
X69357904Y-69746761D01*
X69262666Y-69794380D01*
X68976952Y-69794380D01*
X68881714Y-69746761D01*
X68834095Y-69699142D01*
X70072190Y-68794380D02*
X70167428Y-68794380D01*
X70262666Y-68842000D01*
X70310285Y-68889619D01*
X70357904Y-68984857D01*
X70405523Y-69175333D01*
X70405523Y-69413428D01*
X70357904Y-69603904D01*
X70310285Y-69699142D01*
X70262666Y-69746761D01*
X70167428Y-69794380D01*
X70072190Y-69794380D01*
X69976952Y-69746761D01*
X69929333Y-69699142D01*
X69881714Y-69603904D01*
X69834095Y-69413428D01*
X69834095Y-69175333D01*
X69881714Y-68984857D01*
X69929333Y-68889619D01*
X69976952Y-68842000D01*
X70072190Y-68794380D01*
X70786476Y-68889619D02*
X70834095Y-68842000D01*
X70929333Y-68794380D01*
X71167428Y-68794380D01*
X71262666Y-68842000D01*
X71310285Y-68889619D01*
X71357904Y-68984857D01*
X71357904Y-69080095D01*
X71310285Y-69222952D01*
X70738857Y-69794380D01*
X71357904Y-69794380D01*
%TO.C,Q401*%
X73120380Y-98591619D02*
X73025142Y-98544000D01*
X72929904Y-98448761D01*
X72787047Y-98305904D01*
X72691809Y-98258285D01*
X72596571Y-98258285D01*
X72644190Y-98496380D02*
X72548952Y-98448761D01*
X72453714Y-98353523D01*
X72406095Y-98163047D01*
X72406095Y-97829714D01*
X72453714Y-97639238D01*
X72548952Y-97544000D01*
X72644190Y-97496380D01*
X72834666Y-97496380D01*
X72929904Y-97544000D01*
X73025142Y-97639238D01*
X73072761Y-97829714D01*
X73072761Y-98163047D01*
X73025142Y-98353523D01*
X72929904Y-98448761D01*
X72834666Y-98496380D01*
X72644190Y-98496380D01*
X73929904Y-97829714D02*
X73929904Y-98496380D01*
X73691809Y-97448761D02*
X73453714Y-98163047D01*
X74072761Y-98163047D01*
X74644190Y-97496380D02*
X74739428Y-97496380D01*
X74834666Y-97544000D01*
X74882285Y-97591619D01*
X74929904Y-97686857D01*
X74977523Y-97877333D01*
X74977523Y-98115428D01*
X74929904Y-98305904D01*
X74882285Y-98401142D01*
X74834666Y-98448761D01*
X74739428Y-98496380D01*
X74644190Y-98496380D01*
X74548952Y-98448761D01*
X74501333Y-98401142D01*
X74453714Y-98305904D01*
X74406095Y-98115428D01*
X74406095Y-97877333D01*
X74453714Y-97686857D01*
X74501333Y-97591619D01*
X74548952Y-97544000D01*
X74644190Y-97496380D01*
X75929904Y-98496380D02*
X75358476Y-98496380D01*
X75644190Y-98496380D02*
X75644190Y-97496380D01*
X75548952Y-97639238D01*
X75453714Y-97734476D01*
X75358476Y-97782095D01*
%TO.C,Q402*%
X68040380Y-98591619D02*
X67945142Y-98544000D01*
X67849904Y-98448761D01*
X67707047Y-98305904D01*
X67611809Y-98258285D01*
X67516571Y-98258285D01*
X67564190Y-98496380D02*
X67468952Y-98448761D01*
X67373714Y-98353523D01*
X67326095Y-98163047D01*
X67326095Y-97829714D01*
X67373714Y-97639238D01*
X67468952Y-97544000D01*
X67564190Y-97496380D01*
X67754666Y-97496380D01*
X67849904Y-97544000D01*
X67945142Y-97639238D01*
X67992761Y-97829714D01*
X67992761Y-98163047D01*
X67945142Y-98353523D01*
X67849904Y-98448761D01*
X67754666Y-98496380D01*
X67564190Y-98496380D01*
X68849904Y-97829714D02*
X68849904Y-98496380D01*
X68611809Y-97448761D02*
X68373714Y-98163047D01*
X68992761Y-98163047D01*
X69564190Y-97496380D02*
X69659428Y-97496380D01*
X69754666Y-97544000D01*
X69802285Y-97591619D01*
X69849904Y-97686857D01*
X69897523Y-97877333D01*
X69897523Y-98115428D01*
X69849904Y-98305904D01*
X69802285Y-98401142D01*
X69754666Y-98448761D01*
X69659428Y-98496380D01*
X69564190Y-98496380D01*
X69468952Y-98448761D01*
X69421333Y-98401142D01*
X69373714Y-98305904D01*
X69326095Y-98115428D01*
X69326095Y-97877333D01*
X69373714Y-97686857D01*
X69421333Y-97591619D01*
X69468952Y-97544000D01*
X69564190Y-97496380D01*
X70278476Y-97591619D02*
X70326095Y-97544000D01*
X70421333Y-97496380D01*
X70659428Y-97496380D01*
X70754666Y-97544000D01*
X70802285Y-97591619D01*
X70849904Y-97686857D01*
X70849904Y-97782095D01*
X70802285Y-97924952D01*
X70230857Y-98496380D01*
X70849904Y-98496380D01*
%TO.C,Q501*%
X77763619Y-127285619D02*
X77716000Y-127380857D01*
X77620761Y-127476095D01*
X77477904Y-127618952D01*
X77430285Y-127714190D01*
X77430285Y-127809428D01*
X77668380Y-127761809D02*
X77620761Y-127857047D01*
X77525523Y-127952285D01*
X77335047Y-127999904D01*
X77001714Y-127999904D01*
X76811238Y-127952285D01*
X76716000Y-127857047D01*
X76668380Y-127761809D01*
X76668380Y-127571333D01*
X76716000Y-127476095D01*
X76811238Y-127380857D01*
X77001714Y-127333238D01*
X77335047Y-127333238D01*
X77525523Y-127380857D01*
X77620761Y-127476095D01*
X77668380Y-127571333D01*
X77668380Y-127761809D01*
X76668380Y-126428476D02*
X76668380Y-126904666D01*
X77144571Y-126952285D01*
X77096952Y-126904666D01*
X77049333Y-126809428D01*
X77049333Y-126571333D01*
X77096952Y-126476095D01*
X77144571Y-126428476D01*
X77239809Y-126380857D01*
X77477904Y-126380857D01*
X77573142Y-126428476D01*
X77620761Y-126476095D01*
X77668380Y-126571333D01*
X77668380Y-126809428D01*
X77620761Y-126904666D01*
X77573142Y-126952285D01*
X76668380Y-125761809D02*
X76668380Y-125666571D01*
X76716000Y-125571333D01*
X76763619Y-125523714D01*
X76858857Y-125476095D01*
X77049333Y-125428476D01*
X77287428Y-125428476D01*
X77477904Y-125476095D01*
X77573142Y-125523714D01*
X77620761Y-125571333D01*
X77668380Y-125666571D01*
X77668380Y-125761809D01*
X77620761Y-125857047D01*
X77573142Y-125904666D01*
X77477904Y-125952285D01*
X77287428Y-125999904D01*
X77049333Y-125999904D01*
X76858857Y-125952285D01*
X76763619Y-125904666D01*
X76716000Y-125857047D01*
X76668380Y-125761809D01*
X77668380Y-124476095D02*
X77668380Y-125047523D01*
X77668380Y-124761809D02*
X76668380Y-124761809D01*
X76811238Y-124857047D01*
X76906476Y-124952285D01*
X76954095Y-125047523D01*
%TO.C,Q502*%
X68294380Y-122467619D02*
X68199142Y-122420000D01*
X68103904Y-122324761D01*
X67961047Y-122181904D01*
X67865809Y-122134285D01*
X67770571Y-122134285D01*
X67818190Y-122372380D02*
X67722952Y-122324761D01*
X67627714Y-122229523D01*
X67580095Y-122039047D01*
X67580095Y-121705714D01*
X67627714Y-121515238D01*
X67722952Y-121420000D01*
X67818190Y-121372380D01*
X68008666Y-121372380D01*
X68103904Y-121420000D01*
X68199142Y-121515238D01*
X68246761Y-121705714D01*
X68246761Y-122039047D01*
X68199142Y-122229523D01*
X68103904Y-122324761D01*
X68008666Y-122372380D01*
X67818190Y-122372380D01*
X69151523Y-121372380D02*
X68675333Y-121372380D01*
X68627714Y-121848571D01*
X68675333Y-121800952D01*
X68770571Y-121753333D01*
X69008666Y-121753333D01*
X69103904Y-121800952D01*
X69151523Y-121848571D01*
X69199142Y-121943809D01*
X69199142Y-122181904D01*
X69151523Y-122277142D01*
X69103904Y-122324761D01*
X69008666Y-122372380D01*
X68770571Y-122372380D01*
X68675333Y-122324761D01*
X68627714Y-122277142D01*
X69818190Y-121372380D02*
X69913428Y-121372380D01*
X70008666Y-121420000D01*
X70056285Y-121467619D01*
X70103904Y-121562857D01*
X70151523Y-121753333D01*
X70151523Y-121991428D01*
X70103904Y-122181904D01*
X70056285Y-122277142D01*
X70008666Y-122324761D01*
X69913428Y-122372380D01*
X69818190Y-122372380D01*
X69722952Y-122324761D01*
X69675333Y-122277142D01*
X69627714Y-122181904D01*
X69580095Y-121991428D01*
X69580095Y-121753333D01*
X69627714Y-121562857D01*
X69675333Y-121467619D01*
X69722952Y-121420000D01*
X69818190Y-121372380D01*
X70532476Y-121467619D02*
X70580095Y-121420000D01*
X70675333Y-121372380D01*
X70913428Y-121372380D01*
X71008666Y-121420000D01*
X71056285Y-121467619D01*
X71103904Y-121562857D01*
X71103904Y-121658095D01*
X71056285Y-121800952D01*
X70484857Y-122372380D01*
X71103904Y-122372380D01*
%TO.C,R204*%
X111534380Y-52935047D02*
X111058190Y-53268380D01*
X111534380Y-53506476D02*
X110534380Y-53506476D01*
X110534380Y-53125523D01*
X110582000Y-53030285D01*
X110629619Y-52982666D01*
X110724857Y-52935047D01*
X110867714Y-52935047D01*
X110962952Y-52982666D01*
X111010571Y-53030285D01*
X111058190Y-53125523D01*
X111058190Y-53506476D01*
X110629619Y-52554095D02*
X110582000Y-52506476D01*
X110534380Y-52411238D01*
X110534380Y-52173142D01*
X110582000Y-52077904D01*
X110629619Y-52030285D01*
X110724857Y-51982666D01*
X110820095Y-51982666D01*
X110962952Y-52030285D01*
X111534380Y-52601714D01*
X111534380Y-51982666D01*
X110534380Y-51363619D02*
X110534380Y-51268380D01*
X110582000Y-51173142D01*
X110629619Y-51125523D01*
X110724857Y-51077904D01*
X110915333Y-51030285D01*
X111153428Y-51030285D01*
X111343904Y-51077904D01*
X111439142Y-51125523D01*
X111486761Y-51173142D01*
X111534380Y-51268380D01*
X111534380Y-51363619D01*
X111486761Y-51458857D01*
X111439142Y-51506476D01*
X111343904Y-51554095D01*
X111153428Y-51601714D01*
X110915333Y-51601714D01*
X110724857Y-51554095D01*
X110629619Y-51506476D01*
X110582000Y-51458857D01*
X110534380Y-51363619D01*
X110867714Y-50173142D02*
X111534380Y-50173142D01*
X110486761Y-50411238D02*
X111201047Y-50649333D01*
X111201047Y-50030285D01*
%TO.C,R211*%
X84272380Y-50014047D02*
X83796190Y-50347380D01*
X84272380Y-50585476D02*
X83272380Y-50585476D01*
X83272380Y-50204523D01*
X83320000Y-50109285D01*
X83367619Y-50061666D01*
X83462857Y-50014047D01*
X83605714Y-50014047D01*
X83700952Y-50061666D01*
X83748571Y-50109285D01*
X83796190Y-50204523D01*
X83796190Y-50585476D01*
X83367619Y-49633095D02*
X83320000Y-49585476D01*
X83272380Y-49490238D01*
X83272380Y-49252142D01*
X83320000Y-49156904D01*
X83367619Y-49109285D01*
X83462857Y-49061666D01*
X83558095Y-49061666D01*
X83700952Y-49109285D01*
X84272380Y-49680714D01*
X84272380Y-49061666D01*
X84272380Y-48109285D02*
X84272380Y-48680714D01*
X84272380Y-48395000D02*
X83272380Y-48395000D01*
X83415238Y-48490238D01*
X83510476Y-48585476D01*
X83558095Y-48680714D01*
X84272380Y-47156904D02*
X84272380Y-47728333D01*
X84272380Y-47442619D02*
X83272380Y-47442619D01*
X83415238Y-47537857D01*
X83510476Y-47633095D01*
X83558095Y-47728333D01*
%TO.C,R214*%
X94130952Y-44732380D02*
X93797619Y-44256190D01*
X93559523Y-44732380D02*
X93559523Y-43732380D01*
X93940476Y-43732380D01*
X94035714Y-43780000D01*
X94083333Y-43827619D01*
X94130952Y-43922857D01*
X94130952Y-44065714D01*
X94083333Y-44160952D01*
X94035714Y-44208571D01*
X93940476Y-44256190D01*
X93559523Y-44256190D01*
X94511904Y-43827619D02*
X94559523Y-43780000D01*
X94654761Y-43732380D01*
X94892857Y-43732380D01*
X94988095Y-43780000D01*
X95035714Y-43827619D01*
X95083333Y-43922857D01*
X95083333Y-44018095D01*
X95035714Y-44160952D01*
X94464285Y-44732380D01*
X95083333Y-44732380D01*
X96035714Y-44732380D02*
X95464285Y-44732380D01*
X95750000Y-44732380D02*
X95750000Y-43732380D01*
X95654761Y-43875238D01*
X95559523Y-43970476D01*
X95464285Y-44018095D01*
X96892857Y-44065714D02*
X96892857Y-44732380D01*
X96654761Y-43684761D02*
X96416666Y-44399047D01*
X97035714Y-44399047D01*
%TO.C,R304*%
X110899380Y-77319047D02*
X110423190Y-77652380D01*
X110899380Y-77890476D02*
X109899380Y-77890476D01*
X109899380Y-77509523D01*
X109947000Y-77414285D01*
X109994619Y-77366666D01*
X110089857Y-77319047D01*
X110232714Y-77319047D01*
X110327952Y-77366666D01*
X110375571Y-77414285D01*
X110423190Y-77509523D01*
X110423190Y-77890476D01*
X109899380Y-76985714D02*
X109899380Y-76366666D01*
X110280333Y-76700000D01*
X110280333Y-76557142D01*
X110327952Y-76461904D01*
X110375571Y-76414285D01*
X110470809Y-76366666D01*
X110708904Y-76366666D01*
X110804142Y-76414285D01*
X110851761Y-76461904D01*
X110899380Y-76557142D01*
X110899380Y-76842857D01*
X110851761Y-76938095D01*
X110804142Y-76985714D01*
X109899380Y-75747619D02*
X109899380Y-75652380D01*
X109947000Y-75557142D01*
X109994619Y-75509523D01*
X110089857Y-75461904D01*
X110280333Y-75414285D01*
X110518428Y-75414285D01*
X110708904Y-75461904D01*
X110804142Y-75509523D01*
X110851761Y-75557142D01*
X110899380Y-75652380D01*
X110899380Y-75747619D01*
X110851761Y-75842857D01*
X110804142Y-75890476D01*
X110708904Y-75938095D01*
X110518428Y-75985714D01*
X110280333Y-75985714D01*
X110089857Y-75938095D01*
X109994619Y-75890476D01*
X109947000Y-75842857D01*
X109899380Y-75747619D01*
X110232714Y-74557142D02*
X110899380Y-74557142D01*
X109851761Y-74795238D02*
X110566047Y-75033333D01*
X110566047Y-74414285D01*
%TO.C,R311*%
X84272380Y-72874047D02*
X83796190Y-73207380D01*
X84272380Y-73445476D02*
X83272380Y-73445476D01*
X83272380Y-73064523D01*
X83320000Y-72969285D01*
X83367619Y-72921666D01*
X83462857Y-72874047D01*
X83605714Y-72874047D01*
X83700952Y-72921666D01*
X83748571Y-72969285D01*
X83796190Y-73064523D01*
X83796190Y-73445476D01*
X83272380Y-72540714D02*
X83272380Y-71921666D01*
X83653333Y-72255000D01*
X83653333Y-72112142D01*
X83700952Y-72016904D01*
X83748571Y-71969285D01*
X83843809Y-71921666D01*
X84081904Y-71921666D01*
X84177142Y-71969285D01*
X84224761Y-72016904D01*
X84272380Y-72112142D01*
X84272380Y-72397857D01*
X84224761Y-72493095D01*
X84177142Y-72540714D01*
X84272380Y-70969285D02*
X84272380Y-71540714D01*
X84272380Y-71255000D02*
X83272380Y-71255000D01*
X83415238Y-71350238D01*
X83510476Y-71445476D01*
X83558095Y-71540714D01*
X84272380Y-70016904D02*
X84272380Y-70588333D01*
X84272380Y-70302619D02*
X83272380Y-70302619D01*
X83415238Y-70397857D01*
X83510476Y-70493095D01*
X83558095Y-70588333D01*
%TO.C,R314*%
X89304952Y-63190380D02*
X88971619Y-62714190D01*
X88733523Y-63190380D02*
X88733523Y-62190380D01*
X89114476Y-62190380D01*
X89209714Y-62238000D01*
X89257333Y-62285619D01*
X89304952Y-62380857D01*
X89304952Y-62523714D01*
X89257333Y-62618952D01*
X89209714Y-62666571D01*
X89114476Y-62714190D01*
X88733523Y-62714190D01*
X89638285Y-62190380D02*
X90257333Y-62190380D01*
X89924000Y-62571333D01*
X90066857Y-62571333D01*
X90162095Y-62618952D01*
X90209714Y-62666571D01*
X90257333Y-62761809D01*
X90257333Y-62999904D01*
X90209714Y-63095142D01*
X90162095Y-63142761D01*
X90066857Y-63190380D01*
X89781142Y-63190380D01*
X89685904Y-63142761D01*
X89638285Y-63095142D01*
X91209714Y-63190380D02*
X90638285Y-63190380D01*
X90924000Y-63190380D02*
X90924000Y-62190380D01*
X90828761Y-62333238D01*
X90733523Y-62428476D01*
X90638285Y-62476095D01*
X92066857Y-62523714D02*
X92066857Y-63190380D01*
X91828761Y-62142761D02*
X91590666Y-62857047D01*
X92209714Y-62857047D01*
%TO.C,R404*%
X102222380Y-109323047D02*
X101746190Y-109656380D01*
X102222380Y-109894476D02*
X101222380Y-109894476D01*
X101222380Y-109513523D01*
X101270000Y-109418285D01*
X101317619Y-109370666D01*
X101412857Y-109323047D01*
X101555714Y-109323047D01*
X101650952Y-109370666D01*
X101698571Y-109418285D01*
X101746190Y-109513523D01*
X101746190Y-109894476D01*
X101555714Y-108465904D02*
X102222380Y-108465904D01*
X101174761Y-108704000D02*
X101889047Y-108942095D01*
X101889047Y-108323047D01*
X101222380Y-107751619D02*
X101222380Y-107656380D01*
X101270000Y-107561142D01*
X101317619Y-107513523D01*
X101412857Y-107465904D01*
X101603333Y-107418285D01*
X101841428Y-107418285D01*
X102031904Y-107465904D01*
X102127142Y-107513523D01*
X102174761Y-107561142D01*
X102222380Y-107656380D01*
X102222380Y-107751619D01*
X102174761Y-107846857D01*
X102127142Y-107894476D01*
X102031904Y-107942095D01*
X101841428Y-107989714D01*
X101603333Y-107989714D01*
X101412857Y-107942095D01*
X101317619Y-107894476D01*
X101270000Y-107846857D01*
X101222380Y-107751619D01*
X101555714Y-106561142D02*
X102222380Y-106561142D01*
X101174761Y-106799238D02*
X101889047Y-107037333D01*
X101889047Y-106418285D01*
%TO.C,R411*%
X79700380Y-93067047D02*
X79224190Y-93400380D01*
X79700380Y-93638476D02*
X78700380Y-93638476D01*
X78700380Y-93257523D01*
X78748000Y-93162285D01*
X78795619Y-93114666D01*
X78890857Y-93067047D01*
X79033714Y-93067047D01*
X79128952Y-93114666D01*
X79176571Y-93162285D01*
X79224190Y-93257523D01*
X79224190Y-93638476D01*
X79033714Y-92209904D02*
X79700380Y-92209904D01*
X78652761Y-92448000D02*
X79367047Y-92686095D01*
X79367047Y-92067047D01*
X79700380Y-91162285D02*
X79700380Y-91733714D01*
X79700380Y-91448000D02*
X78700380Y-91448000D01*
X78843238Y-91543238D01*
X78938476Y-91638476D01*
X78986095Y-91733714D01*
X79700380Y-90209904D02*
X79700380Y-90781333D01*
X79700380Y-90495619D02*
X78700380Y-90495619D01*
X78843238Y-90590857D01*
X78938476Y-90686095D01*
X78986095Y-90781333D01*
%TO.C,R414*%
X83002380Y-94337047D02*
X82526190Y-94670380D01*
X83002380Y-94908476D02*
X82002380Y-94908476D01*
X82002380Y-94527523D01*
X82050000Y-94432285D01*
X82097619Y-94384666D01*
X82192857Y-94337047D01*
X82335714Y-94337047D01*
X82430952Y-94384666D01*
X82478571Y-94432285D01*
X82526190Y-94527523D01*
X82526190Y-94908476D01*
X82335714Y-93479904D02*
X83002380Y-93479904D01*
X81954761Y-93718000D02*
X82669047Y-93956095D01*
X82669047Y-93337047D01*
X83002380Y-92432285D02*
X83002380Y-93003714D01*
X83002380Y-92718000D02*
X82002380Y-92718000D01*
X82145238Y-92813238D01*
X82240476Y-92908476D01*
X82288095Y-93003714D01*
X82335714Y-91575142D02*
X83002380Y-91575142D01*
X81954761Y-91813238D02*
X82669047Y-92051333D01*
X82669047Y-91432285D01*
%TO.C,R504*%
X107894380Y-133707047D02*
X107418190Y-134040380D01*
X107894380Y-134278476D02*
X106894380Y-134278476D01*
X106894380Y-133897523D01*
X106942000Y-133802285D01*
X106989619Y-133754666D01*
X107084857Y-133707047D01*
X107227714Y-133707047D01*
X107322952Y-133754666D01*
X107370571Y-133802285D01*
X107418190Y-133897523D01*
X107418190Y-134278476D01*
X106894380Y-132802285D02*
X106894380Y-133278476D01*
X107370571Y-133326095D01*
X107322952Y-133278476D01*
X107275333Y-133183238D01*
X107275333Y-132945142D01*
X107322952Y-132849904D01*
X107370571Y-132802285D01*
X107465809Y-132754666D01*
X107703904Y-132754666D01*
X107799142Y-132802285D01*
X107846761Y-132849904D01*
X107894380Y-132945142D01*
X107894380Y-133183238D01*
X107846761Y-133278476D01*
X107799142Y-133326095D01*
X106894380Y-132135619D02*
X106894380Y-132040380D01*
X106942000Y-131945142D01*
X106989619Y-131897523D01*
X107084857Y-131849904D01*
X107275333Y-131802285D01*
X107513428Y-131802285D01*
X107703904Y-131849904D01*
X107799142Y-131897523D01*
X107846761Y-131945142D01*
X107894380Y-132040380D01*
X107894380Y-132135619D01*
X107846761Y-132230857D01*
X107799142Y-132278476D01*
X107703904Y-132326095D01*
X107513428Y-132373714D01*
X107275333Y-132373714D01*
X107084857Y-132326095D01*
X106989619Y-132278476D01*
X106942000Y-132230857D01*
X106894380Y-132135619D01*
X107227714Y-130945142D02*
X107894380Y-130945142D01*
X106846761Y-131183238D02*
X107561047Y-131421333D01*
X107561047Y-130802285D01*
%TO.C,R511*%
X84272380Y-127103047D02*
X83796190Y-127436380D01*
X84272380Y-127674476D02*
X83272380Y-127674476D01*
X83272380Y-127293523D01*
X83320000Y-127198285D01*
X83367619Y-127150666D01*
X83462857Y-127103047D01*
X83605714Y-127103047D01*
X83700952Y-127150666D01*
X83748571Y-127198285D01*
X83796190Y-127293523D01*
X83796190Y-127674476D01*
X83272380Y-126198285D02*
X83272380Y-126674476D01*
X83748571Y-126722095D01*
X83700952Y-126674476D01*
X83653333Y-126579238D01*
X83653333Y-126341142D01*
X83700952Y-126245904D01*
X83748571Y-126198285D01*
X83843809Y-126150666D01*
X84081904Y-126150666D01*
X84177142Y-126198285D01*
X84224761Y-126245904D01*
X84272380Y-126341142D01*
X84272380Y-126579238D01*
X84224761Y-126674476D01*
X84177142Y-126722095D01*
X84272380Y-125198285D02*
X84272380Y-125769714D01*
X84272380Y-125484000D02*
X83272380Y-125484000D01*
X83415238Y-125579238D01*
X83510476Y-125674476D01*
X83558095Y-125769714D01*
X84272380Y-124245904D02*
X84272380Y-124817333D01*
X84272380Y-124531619D02*
X83272380Y-124531619D01*
X83415238Y-124626857D01*
X83510476Y-124722095D01*
X83558095Y-124817333D01*
%TO.C,R514*%
X116022380Y-124309047D02*
X115546190Y-124642380D01*
X116022380Y-124880476D02*
X115022380Y-124880476D01*
X115022380Y-124499523D01*
X115070000Y-124404285D01*
X115117619Y-124356666D01*
X115212857Y-124309047D01*
X115355714Y-124309047D01*
X115450952Y-124356666D01*
X115498571Y-124404285D01*
X115546190Y-124499523D01*
X115546190Y-124880476D01*
X115022380Y-123404285D02*
X115022380Y-123880476D01*
X115498571Y-123928095D01*
X115450952Y-123880476D01*
X115403333Y-123785238D01*
X115403333Y-123547142D01*
X115450952Y-123451904D01*
X115498571Y-123404285D01*
X115593809Y-123356666D01*
X115831904Y-123356666D01*
X115927142Y-123404285D01*
X115974761Y-123451904D01*
X116022380Y-123547142D01*
X116022380Y-123785238D01*
X115974761Y-123880476D01*
X115927142Y-123928095D01*
X116022380Y-122404285D02*
X116022380Y-122975714D01*
X116022380Y-122690000D02*
X115022380Y-122690000D01*
X115165238Y-122785238D01*
X115260476Y-122880476D01*
X115308095Y-122975714D01*
X115355714Y-121547142D02*
X116022380Y-121547142D01*
X114974761Y-121785238D02*
X115689047Y-122023333D01*
X115689047Y-121404285D01*
%TO.C,U201*%
X95567714Y-56348380D02*
X95567714Y-57157904D01*
X95615333Y-57253142D01*
X95662952Y-57300761D01*
X95758190Y-57348380D01*
X95948666Y-57348380D01*
X96043904Y-57300761D01*
X96091523Y-57253142D01*
X96139142Y-57157904D01*
X96139142Y-56348380D01*
X96567714Y-56443619D02*
X96615333Y-56396000D01*
X96710571Y-56348380D01*
X96948666Y-56348380D01*
X97043904Y-56396000D01*
X97091523Y-56443619D01*
X97139142Y-56538857D01*
X97139142Y-56634095D01*
X97091523Y-56776952D01*
X96520095Y-57348380D01*
X97139142Y-57348380D01*
X97758190Y-56348380D02*
X97853428Y-56348380D01*
X97948666Y-56396000D01*
X97996285Y-56443619D01*
X98043904Y-56538857D01*
X98091523Y-56729333D01*
X98091523Y-56967428D01*
X98043904Y-57157904D01*
X97996285Y-57253142D01*
X97948666Y-57300761D01*
X97853428Y-57348380D01*
X97758190Y-57348380D01*
X97662952Y-57300761D01*
X97615333Y-57253142D01*
X97567714Y-57157904D01*
X97520095Y-56967428D01*
X97520095Y-56729333D01*
X97567714Y-56538857D01*
X97615333Y-56443619D01*
X97662952Y-56396000D01*
X97758190Y-56348380D01*
X99043904Y-57348380D02*
X98472476Y-57348380D01*
X98758190Y-57348380D02*
X98758190Y-56348380D01*
X98662952Y-56491238D01*
X98567714Y-56586476D01*
X98472476Y-56634095D01*
%TO.C,U301*%
X95313714Y-79462380D02*
X95313714Y-80271904D01*
X95361333Y-80367142D01*
X95408952Y-80414761D01*
X95504190Y-80462380D01*
X95694666Y-80462380D01*
X95789904Y-80414761D01*
X95837523Y-80367142D01*
X95885142Y-80271904D01*
X95885142Y-79462380D01*
X96266095Y-79462380D02*
X96885142Y-79462380D01*
X96551809Y-79843333D01*
X96694666Y-79843333D01*
X96789904Y-79890952D01*
X96837523Y-79938571D01*
X96885142Y-80033809D01*
X96885142Y-80271904D01*
X96837523Y-80367142D01*
X96789904Y-80414761D01*
X96694666Y-80462380D01*
X96408952Y-80462380D01*
X96313714Y-80414761D01*
X96266095Y-80367142D01*
X97504190Y-79462380D02*
X97599428Y-79462380D01*
X97694666Y-79510000D01*
X97742285Y-79557619D01*
X97789904Y-79652857D01*
X97837523Y-79843333D01*
X97837523Y-80081428D01*
X97789904Y-80271904D01*
X97742285Y-80367142D01*
X97694666Y-80414761D01*
X97599428Y-80462380D01*
X97504190Y-80462380D01*
X97408952Y-80414761D01*
X97361333Y-80367142D01*
X97313714Y-80271904D01*
X97266095Y-80081428D01*
X97266095Y-79843333D01*
X97313714Y-79652857D01*
X97361333Y-79557619D01*
X97408952Y-79510000D01*
X97504190Y-79462380D01*
X98789904Y-80462380D02*
X98218476Y-80462380D01*
X98504190Y-80462380D02*
X98504190Y-79462380D01*
X98408952Y-79605238D01*
X98313714Y-79700476D01*
X98218476Y-79748095D01*
%TO.C,U401*%
X102798380Y-101016285D02*
X103607904Y-101016285D01*
X103703142Y-100968666D01*
X103750761Y-100921047D01*
X103798380Y-100825809D01*
X103798380Y-100635333D01*
X103750761Y-100540095D01*
X103703142Y-100492476D01*
X103607904Y-100444857D01*
X102798380Y-100444857D01*
X103131714Y-99540095D02*
X103798380Y-99540095D01*
X102750761Y-99778190D02*
X103465047Y-100016285D01*
X103465047Y-99397238D01*
X102798380Y-98825809D02*
X102798380Y-98730571D01*
X102846000Y-98635333D01*
X102893619Y-98587714D01*
X102988857Y-98540095D01*
X103179333Y-98492476D01*
X103417428Y-98492476D01*
X103607904Y-98540095D01*
X103703142Y-98587714D01*
X103750761Y-98635333D01*
X103798380Y-98730571D01*
X103798380Y-98825809D01*
X103750761Y-98921047D01*
X103703142Y-98968666D01*
X103607904Y-99016285D01*
X103417428Y-99063904D01*
X103179333Y-99063904D01*
X102988857Y-99016285D01*
X102893619Y-98968666D01*
X102846000Y-98921047D01*
X102798380Y-98825809D01*
X103798380Y-97540095D02*
X103798380Y-98111523D01*
X103798380Y-97825809D02*
X102798380Y-97825809D01*
X102941238Y-97921047D01*
X103036476Y-98016285D01*
X103084095Y-98111523D01*
%TO.C,U501*%
X106640380Y-127952285D02*
X107449904Y-127952285D01*
X107545142Y-127904666D01*
X107592761Y-127857047D01*
X107640380Y-127761809D01*
X107640380Y-127571333D01*
X107592761Y-127476095D01*
X107545142Y-127428476D01*
X107449904Y-127380857D01*
X106640380Y-127380857D01*
X106640380Y-126428476D02*
X106640380Y-126904666D01*
X107116571Y-126952285D01*
X107068952Y-126904666D01*
X107021333Y-126809428D01*
X107021333Y-126571333D01*
X107068952Y-126476095D01*
X107116571Y-126428476D01*
X107211809Y-126380857D01*
X107449904Y-126380857D01*
X107545142Y-126428476D01*
X107592761Y-126476095D01*
X107640380Y-126571333D01*
X107640380Y-126809428D01*
X107592761Y-126904666D01*
X107545142Y-126952285D01*
X106640380Y-125761809D02*
X106640380Y-125666571D01*
X106688000Y-125571333D01*
X106735619Y-125523714D01*
X106830857Y-125476095D01*
X107021333Y-125428476D01*
X107259428Y-125428476D01*
X107449904Y-125476095D01*
X107545142Y-125523714D01*
X107592761Y-125571333D01*
X107640380Y-125666571D01*
X107640380Y-125761809D01*
X107592761Y-125857047D01*
X107545142Y-125904666D01*
X107449904Y-125952285D01*
X107259428Y-125999904D01*
X107021333Y-125999904D01*
X106830857Y-125952285D01*
X106735619Y-125904666D01*
X106688000Y-125857047D01*
X106640380Y-125761809D01*
X107640380Y-124476095D02*
X107640380Y-125047523D01*
X107640380Y-124761809D02*
X106640380Y-124761809D01*
X106783238Y-124857047D01*
X106878476Y-124952285D01*
X106926095Y-125047523D01*
%TD*%
M02*
