M48
; DRILL file {KiCad 5.99.0+really5.1.10+dfsg1-1} date Fri Feb 11 21:54:32 2022
; FORMAT={-:-/ absolute / inch / decimal}
; #@! TF.CreationDate,2022-02-11T21:54:32+01:00
; #@! TF.GenerationSoftware,Kicad,Pcbnew,5.99.0+really5.1.10+dfsg1-1
; #@! TF.FileFunction,Plated,1,2,PTH
FMAT,2
INCH
T1C0.0157
T2C0.0315
T3C0.0354
T4C0.0394
T5C0.0433
T6C0.0512
%
G90
G05
T1
X2.665Y-4.715
X2.72Y-4.24
X2.72Y-4.24
X3.01Y-2.01
X3.04Y-2.42
X3.04Y-2.62
X3.0667Y-4.815
X3.08Y-2.13
X3.1Y-2.64
X3.1Y-2.79
X3.1Y-2.79
X3.15Y-1.75
X3.2159Y-4.9641
X3.2609Y-1.9991
X3.2883Y-4.5383
X3.2883Y-4.6583
X3.445Y-4.715
X3.4508Y-2.6558
X3.525Y-4.64
X3.5617Y-4.4183
X3.5617Y-4.5383
X3.585Y-4.165
X3.6208Y-2.6558
X3.66Y-5.39
X3.677Y-3.417
X3.677Y-3.683
X3.7167Y-2.4083
X3.7233Y-4.3067
X3.7233Y-4.4183
X3.777Y-3.678
X3.82Y-5.37
X3.83Y-2.4
X3.845Y-4.715
X3.86Y-2.65
X3.8642Y-3.2942
X3.87Y-1.77
X3.875Y-5.375
X3.9Y-2.4
X3.94Y-3.37
X4.0Y-2.54
X4.02Y-1.7247
X4.02Y-1.7247
X4.02Y-2.42
X4.022Y-3.678
X4.0237Y-3.37
X4.0237Y-3.5963
X4.03Y-5.4
X4.055Y-4.715
X4.06Y-3.85
X4.12Y-2.65
X4.12Y-3.52
X4.12Y-3.76
X4.12Y-3.76
X4.1397Y-1.7247
X4.14Y-3.96
X4.2Y-1.77
X4.21Y-4.715
X4.23Y-5.06
X4.23Y-5.41
X4.29Y-2.53
X4.34Y-3.26
X4.34Y-3.82
X4.36Y-2.35
X4.39Y-3.7
X4.39Y-3.82
X4.41Y-1.93
X4.41Y-2.2
X4.44Y-3.3
X4.44Y-3.76
X4.46Y-2.43
X4.46Y-3.0
X4.48Y-5.03
X4.49Y-4.81
X4.49Y-4.81
X4.53Y-2.23
X4.57Y-4.65
X4.57Y-4.92
X4.58Y-3.12
X4.595Y-2.43
X4.65Y-2.23
X4.65Y-2.35
T2
X2.7Y-1.84
X2.7Y-1.94
X2.7Y-2.04
X2.73Y-4.87
X2.73Y-4.97
X2.73Y-5.07
X2.735Y-3.94
X2.735Y-4.04
X2.735Y-4.14
X2.75Y-2.8
X2.75Y-2.9
X2.75Y-3.0
X2.8947Y-1.84
X2.8947Y-1.94
X2.8947Y-2.04
X2.925Y-3.94
X2.925Y-4.04
X2.925Y-4.14
X2.93Y-4.87
X2.93Y-4.97
X2.93Y-5.07
X2.95Y-2.8
X2.95Y-2.9
X2.95Y-3.0
X3.12Y-3.74
X3.12Y-4.14
X3.145Y-4.33
X3.145Y-4.435
X3.16Y-2.97
X3.16Y-3.27
X3.16Y-5.065
X3.16Y-5.365
X3.17Y-2.065
X3.17Y-2.365
X3.25Y-3.8
X3.25Y-4.2
X3.26Y-5.065
X3.26Y-5.365
X3.27Y-2.97
X3.27Y-3.27
X3.275Y-2.065
X3.275Y-2.365
X3.37Y-2.56
X3.377Y-3.7595
X3.377Y-4.0595
X3.385Y-4.825
X3.385Y-5.225
X3.395Y-2.73
X3.395Y-3.13
X3.4Y-1.77
X3.4Y-2.17
X3.445Y-4.33
X3.445Y-4.435
X3.477Y-3.7595
X3.477Y-4.0595
X3.52Y-4.82
X3.52Y-5.12
X3.5208Y-2.7528
X3.5208Y-3.0528
X3.53Y-1.85
X3.53Y-2.15
X3.55Y-1.65
X3.577Y-3.7595
X3.577Y-4.0595
X3.62Y-4.82
X3.62Y-5.12
X3.6208Y-2.7528
X3.6208Y-3.0528
X3.63Y-1.85
X3.63Y-2.15
X3.677Y-3.7595
X3.677Y-4.0595
X3.72Y-4.82
X3.72Y-5.12
X3.7208Y-2.7528
X3.7208Y-3.0528
X3.73Y-1.85
X3.73Y-2.15
X3.77Y-2.56
X3.777Y-3.7595
X3.777Y-4.0595
X3.82Y-4.82
X3.82Y-5.12
X3.8208Y-2.7528
X3.8208Y-3.0528
X3.83Y-1.85
X3.83Y-2.15
X3.877Y-3.7595
X3.877Y-4.0595
X3.92Y-4.82
X3.92Y-5.12
X3.9208Y-2.7528
X3.9208Y-3.0528
X3.93Y-1.85
X3.93Y-2.15
X3.95Y-1.65
X3.977Y-3.7595
X3.977Y-4.0595
X4.02Y-4.82
X4.02Y-5.12
X4.0208Y-2.7528
X4.0208Y-3.0528
X4.03Y-1.85
X4.03Y-2.15
X4.1Y-4.06
X4.1Y-4.46
X4.12Y-4.82
X4.12Y-5.12
X4.1208Y-2.7528
X4.1208Y-3.0528
X4.13Y-1.85
X4.13Y-2.15
X4.2Y-3.4016
X4.2Y-3.5
X4.2Y-3.7016
X4.2Y-3.8
X4.255Y-2.74
X4.255Y-3.14
X4.28Y-1.84
X4.28Y-2.24
X4.32Y-4.955
X4.32Y-5.355
X4.37Y-2.53
X4.37Y-2.83
X4.39Y-4.28
X4.39Y-4.58
X4.455Y-4.72
X4.455Y-5.12
X4.47Y-2.53
X4.47Y-2.83
X4.49Y-4.28
X4.49Y-4.58
X4.55Y-1.65
X4.55Y-1.95
X4.57Y-5.16
X4.57Y-5.46
X4.65Y-1.65
X4.65Y-1.95
X4.67Y-5.16
X4.67Y-5.46
T3
X2.5Y-2.26
X2.5Y-2.36
X2.5Y-3.2
X2.5Y-3.3
X2.5Y-4.38
X2.5Y-4.48
X2.5Y-5.3
X2.5Y-5.4
X2.75Y-3.2
X2.75Y-3.3
X2.76Y-2.26
X2.76Y-2.36
X2.76Y-4.38
X2.76Y-4.48
X2.76Y-5.3
X2.76Y-5.4
T4
X2.98Y-5.225
X2.985Y-3.685
X3.01Y-3.16
X3.015Y-4.305
X3.07Y-1.87
X3.255Y-4.83
X3.26Y-2.7
X3.28Y-1.74
X3.89Y-2.57
X4.23Y-4.39
X4.255Y-2.625
X4.26Y-4.55
X4.32Y-4.84
X4.41Y-1.66
X4.41Y-1.83
X4.45Y-5.44
X4.55Y-3.4
X4.55Y-3.5
X4.55Y-3.6
X4.55Y-3.7
X4.55Y-3.8
X4.65Y-3.4
X4.65Y-3.5
X4.65Y-3.6
X4.65Y-3.7
X4.65Y-3.8
T5
X4.25Y-3.26
X4.25Y-3.94
X4.65Y-3.26
X4.65Y-3.94
T6
X2.45Y-1.6531
X2.45Y-1.85
X2.45Y-2.0469
X2.45Y-2.5831
X2.45Y-2.78
X2.45Y-2.9769
X2.46Y-3.7631
X2.46Y-3.96
X2.46Y-4.1569
X2.46Y-4.6963
X2.46Y-4.8931
X2.46Y-5.09
T0
M30
