%TF.GenerationSoftware,KiCad,Pcbnew,5.99.0+really5.1.10+dfsg1-1*%
%TF.CreationDate,2022-02-11T21:54:35+01:00*%
%TF.ProjectId,vierfach_LFO,76696572-6661-4636-985f-4c464f2e6b69,rev?*%
%TF.SameCoordinates,Original*%
%TF.FileFunction,Legend,Bot*%
%TF.FilePolarity,Positive*%
%FSLAX46Y46*%
G04 Gerber Fmt 4.6, Leading zero omitted, Abs format (unit mm)*
G04 Created by KiCad (PCBNEW 5.99.0+really5.1.10+dfsg1-1) date 2022-02-11 21:54:35*
%MOMM*%
%LPD*%
G01*
G04 APERTURE LIST*
%ADD10C,0.120000*%
%ADD11C,0.150000*%
G04 APERTURE END LIST*
D10*
%TO.C,R216*%
X116305000Y-52334936D02*
X116305000Y-52789064D01*
X114835000Y-52334936D02*
X114835000Y-52789064D01*
%TO.C,C101*%
X109300000Y-87650000D02*
G75*
G03*
X109300000Y-87650000I-2620000J0D01*
G01*
X104100000Y-87650000D02*
X109260000Y-87650000D01*
X104100000Y-87690000D02*
X109260000Y-87690000D01*
X104101000Y-87730000D02*
X109259000Y-87730000D01*
X104102000Y-87770000D02*
X109258000Y-87770000D01*
X104104000Y-87810000D02*
X109256000Y-87810000D01*
X104107000Y-87850000D02*
X109253000Y-87850000D01*
X104111000Y-87890000D02*
X105640000Y-87890000D01*
X107720000Y-87890000D02*
X109249000Y-87890000D01*
X104115000Y-87930000D02*
X105640000Y-87930000D01*
X107720000Y-87930000D02*
X109245000Y-87930000D01*
X104119000Y-87970000D02*
X105640000Y-87970000D01*
X107720000Y-87970000D02*
X109241000Y-87970000D01*
X104124000Y-88010000D02*
X105640000Y-88010000D01*
X107720000Y-88010000D02*
X109236000Y-88010000D01*
X104130000Y-88050000D02*
X105640000Y-88050000D01*
X107720000Y-88050000D02*
X109230000Y-88050000D01*
X104137000Y-88090000D02*
X105640000Y-88090000D01*
X107720000Y-88090000D02*
X109223000Y-88090000D01*
X104144000Y-88130000D02*
X105640000Y-88130000D01*
X107720000Y-88130000D02*
X109216000Y-88130000D01*
X104152000Y-88170000D02*
X105640000Y-88170000D01*
X107720000Y-88170000D02*
X109208000Y-88170000D01*
X104160000Y-88210000D02*
X105640000Y-88210000D01*
X107720000Y-88210000D02*
X109200000Y-88210000D01*
X104169000Y-88250000D02*
X105640000Y-88250000D01*
X107720000Y-88250000D02*
X109191000Y-88250000D01*
X104179000Y-88290000D02*
X105640000Y-88290000D01*
X107720000Y-88290000D02*
X109181000Y-88290000D01*
X104189000Y-88330000D02*
X105640000Y-88330000D01*
X107720000Y-88330000D02*
X109171000Y-88330000D01*
X104200000Y-88371000D02*
X105640000Y-88371000D01*
X107720000Y-88371000D02*
X109160000Y-88371000D01*
X104212000Y-88411000D02*
X105640000Y-88411000D01*
X107720000Y-88411000D02*
X109148000Y-88411000D01*
X104225000Y-88451000D02*
X105640000Y-88451000D01*
X107720000Y-88451000D02*
X109135000Y-88451000D01*
X104238000Y-88491000D02*
X105640000Y-88491000D01*
X107720000Y-88491000D02*
X109122000Y-88491000D01*
X104252000Y-88531000D02*
X105640000Y-88531000D01*
X107720000Y-88531000D02*
X109108000Y-88531000D01*
X104266000Y-88571000D02*
X105640000Y-88571000D01*
X107720000Y-88571000D02*
X109094000Y-88571000D01*
X104282000Y-88611000D02*
X105640000Y-88611000D01*
X107720000Y-88611000D02*
X109078000Y-88611000D01*
X104298000Y-88651000D02*
X105640000Y-88651000D01*
X107720000Y-88651000D02*
X109062000Y-88651000D01*
X104315000Y-88691000D02*
X105640000Y-88691000D01*
X107720000Y-88691000D02*
X109045000Y-88691000D01*
X104332000Y-88731000D02*
X105640000Y-88731000D01*
X107720000Y-88731000D02*
X109028000Y-88731000D01*
X104351000Y-88771000D02*
X105640000Y-88771000D01*
X107720000Y-88771000D02*
X109009000Y-88771000D01*
X104370000Y-88811000D02*
X105640000Y-88811000D01*
X107720000Y-88811000D02*
X108990000Y-88811000D01*
X104390000Y-88851000D02*
X105640000Y-88851000D01*
X107720000Y-88851000D02*
X108970000Y-88851000D01*
X104412000Y-88891000D02*
X105640000Y-88891000D01*
X107720000Y-88891000D02*
X108948000Y-88891000D01*
X104433000Y-88931000D02*
X105640000Y-88931000D01*
X107720000Y-88931000D02*
X108927000Y-88931000D01*
X104456000Y-88971000D02*
X105640000Y-88971000D01*
X107720000Y-88971000D02*
X108904000Y-88971000D01*
X104480000Y-89011000D02*
X105640000Y-89011000D01*
X107720000Y-89011000D02*
X108880000Y-89011000D01*
X104505000Y-89051000D02*
X105640000Y-89051000D01*
X107720000Y-89051000D02*
X108855000Y-89051000D01*
X104531000Y-89091000D02*
X105640000Y-89091000D01*
X107720000Y-89091000D02*
X108829000Y-89091000D01*
X104558000Y-89131000D02*
X105640000Y-89131000D01*
X107720000Y-89131000D02*
X108802000Y-89131000D01*
X104585000Y-89171000D02*
X105640000Y-89171000D01*
X107720000Y-89171000D02*
X108775000Y-89171000D01*
X104615000Y-89211000D02*
X105640000Y-89211000D01*
X107720000Y-89211000D02*
X108745000Y-89211000D01*
X104645000Y-89251000D02*
X105640000Y-89251000D01*
X107720000Y-89251000D02*
X108715000Y-89251000D01*
X104676000Y-89291000D02*
X105640000Y-89291000D01*
X107720000Y-89291000D02*
X108684000Y-89291000D01*
X104709000Y-89331000D02*
X105640000Y-89331000D01*
X107720000Y-89331000D02*
X108651000Y-89331000D01*
X104743000Y-89371000D02*
X105640000Y-89371000D01*
X107720000Y-89371000D02*
X108617000Y-89371000D01*
X104779000Y-89411000D02*
X105640000Y-89411000D01*
X107720000Y-89411000D02*
X108581000Y-89411000D01*
X104816000Y-89451000D02*
X105640000Y-89451000D01*
X107720000Y-89451000D02*
X108544000Y-89451000D01*
X104854000Y-89491000D02*
X105640000Y-89491000D01*
X107720000Y-89491000D02*
X108506000Y-89491000D01*
X104895000Y-89531000D02*
X105640000Y-89531000D01*
X107720000Y-89531000D02*
X108465000Y-89531000D01*
X104937000Y-89571000D02*
X105640000Y-89571000D01*
X107720000Y-89571000D02*
X108423000Y-89571000D01*
X104981000Y-89611000D02*
X105640000Y-89611000D01*
X107720000Y-89611000D02*
X108379000Y-89611000D01*
X105027000Y-89651000D02*
X105640000Y-89651000D01*
X107720000Y-89651000D02*
X108333000Y-89651000D01*
X105075000Y-89691000D02*
X105640000Y-89691000D01*
X107720000Y-89691000D02*
X108285000Y-89691000D01*
X105126000Y-89731000D02*
X105640000Y-89731000D01*
X107720000Y-89731000D02*
X108234000Y-89731000D01*
X105180000Y-89771000D02*
X105640000Y-89771000D01*
X107720000Y-89771000D02*
X108180000Y-89771000D01*
X105237000Y-89811000D02*
X105640000Y-89811000D01*
X107720000Y-89811000D02*
X108123000Y-89811000D01*
X105297000Y-89851000D02*
X105640000Y-89851000D01*
X107720000Y-89851000D02*
X108063000Y-89851000D01*
X105361000Y-89891000D02*
X105640000Y-89891000D01*
X107720000Y-89891000D02*
X107999000Y-89891000D01*
X105429000Y-89931000D02*
X105640000Y-89931000D01*
X107720000Y-89931000D02*
X107931000Y-89931000D01*
X105502000Y-89971000D02*
X107858000Y-89971000D01*
X105582000Y-90011000D02*
X107778000Y-90011000D01*
X105669000Y-90051000D02*
X107691000Y-90051000D01*
X105765000Y-90091000D02*
X107595000Y-90091000D01*
X105875000Y-90131000D02*
X107485000Y-90131000D01*
X106003000Y-90171000D02*
X107357000Y-90171000D01*
X106162000Y-90211000D02*
X107198000Y-90211000D01*
X106396000Y-90251000D02*
X106964000Y-90251000D01*
X105205000Y-84845225D02*
X105205000Y-85345225D01*
X104955000Y-85095225D02*
X105455000Y-85095225D01*
%TO.C,C102*%
X104955000Y-92715225D02*
X105455000Y-92715225D01*
X105205000Y-92465225D02*
X105205000Y-92965225D01*
X106396000Y-97871000D02*
X106964000Y-97871000D01*
X106162000Y-97831000D02*
X107198000Y-97831000D01*
X106003000Y-97791000D02*
X107357000Y-97791000D01*
X105875000Y-97751000D02*
X107485000Y-97751000D01*
X105765000Y-97711000D02*
X107595000Y-97711000D01*
X105669000Y-97671000D02*
X107691000Y-97671000D01*
X105582000Y-97631000D02*
X107778000Y-97631000D01*
X105502000Y-97591000D02*
X107858000Y-97591000D01*
X107720000Y-97551000D02*
X107931000Y-97551000D01*
X105429000Y-97551000D02*
X105640000Y-97551000D01*
X107720000Y-97511000D02*
X107999000Y-97511000D01*
X105361000Y-97511000D02*
X105640000Y-97511000D01*
X107720000Y-97471000D02*
X108063000Y-97471000D01*
X105297000Y-97471000D02*
X105640000Y-97471000D01*
X107720000Y-97431000D02*
X108123000Y-97431000D01*
X105237000Y-97431000D02*
X105640000Y-97431000D01*
X107720000Y-97391000D02*
X108180000Y-97391000D01*
X105180000Y-97391000D02*
X105640000Y-97391000D01*
X107720000Y-97351000D02*
X108234000Y-97351000D01*
X105126000Y-97351000D02*
X105640000Y-97351000D01*
X107720000Y-97311000D02*
X108285000Y-97311000D01*
X105075000Y-97311000D02*
X105640000Y-97311000D01*
X107720000Y-97271000D02*
X108333000Y-97271000D01*
X105027000Y-97271000D02*
X105640000Y-97271000D01*
X107720000Y-97231000D02*
X108379000Y-97231000D01*
X104981000Y-97231000D02*
X105640000Y-97231000D01*
X107720000Y-97191000D02*
X108423000Y-97191000D01*
X104937000Y-97191000D02*
X105640000Y-97191000D01*
X107720000Y-97151000D02*
X108465000Y-97151000D01*
X104895000Y-97151000D02*
X105640000Y-97151000D01*
X107720000Y-97111000D02*
X108506000Y-97111000D01*
X104854000Y-97111000D02*
X105640000Y-97111000D01*
X107720000Y-97071000D02*
X108544000Y-97071000D01*
X104816000Y-97071000D02*
X105640000Y-97071000D01*
X107720000Y-97031000D02*
X108581000Y-97031000D01*
X104779000Y-97031000D02*
X105640000Y-97031000D01*
X107720000Y-96991000D02*
X108617000Y-96991000D01*
X104743000Y-96991000D02*
X105640000Y-96991000D01*
X107720000Y-96951000D02*
X108651000Y-96951000D01*
X104709000Y-96951000D02*
X105640000Y-96951000D01*
X107720000Y-96911000D02*
X108684000Y-96911000D01*
X104676000Y-96911000D02*
X105640000Y-96911000D01*
X107720000Y-96871000D02*
X108715000Y-96871000D01*
X104645000Y-96871000D02*
X105640000Y-96871000D01*
X107720000Y-96831000D02*
X108745000Y-96831000D01*
X104615000Y-96831000D02*
X105640000Y-96831000D01*
X107720000Y-96791000D02*
X108775000Y-96791000D01*
X104585000Y-96791000D02*
X105640000Y-96791000D01*
X107720000Y-96751000D02*
X108802000Y-96751000D01*
X104558000Y-96751000D02*
X105640000Y-96751000D01*
X107720000Y-96711000D02*
X108829000Y-96711000D01*
X104531000Y-96711000D02*
X105640000Y-96711000D01*
X107720000Y-96671000D02*
X108855000Y-96671000D01*
X104505000Y-96671000D02*
X105640000Y-96671000D01*
X107720000Y-96631000D02*
X108880000Y-96631000D01*
X104480000Y-96631000D02*
X105640000Y-96631000D01*
X107720000Y-96591000D02*
X108904000Y-96591000D01*
X104456000Y-96591000D02*
X105640000Y-96591000D01*
X107720000Y-96551000D02*
X108927000Y-96551000D01*
X104433000Y-96551000D02*
X105640000Y-96551000D01*
X107720000Y-96511000D02*
X108948000Y-96511000D01*
X104412000Y-96511000D02*
X105640000Y-96511000D01*
X107720000Y-96471000D02*
X108970000Y-96471000D01*
X104390000Y-96471000D02*
X105640000Y-96471000D01*
X107720000Y-96431000D02*
X108990000Y-96431000D01*
X104370000Y-96431000D02*
X105640000Y-96431000D01*
X107720000Y-96391000D02*
X109009000Y-96391000D01*
X104351000Y-96391000D02*
X105640000Y-96391000D01*
X107720000Y-96351000D02*
X109028000Y-96351000D01*
X104332000Y-96351000D02*
X105640000Y-96351000D01*
X107720000Y-96311000D02*
X109045000Y-96311000D01*
X104315000Y-96311000D02*
X105640000Y-96311000D01*
X107720000Y-96271000D02*
X109062000Y-96271000D01*
X104298000Y-96271000D02*
X105640000Y-96271000D01*
X107720000Y-96231000D02*
X109078000Y-96231000D01*
X104282000Y-96231000D02*
X105640000Y-96231000D01*
X107720000Y-96191000D02*
X109094000Y-96191000D01*
X104266000Y-96191000D02*
X105640000Y-96191000D01*
X107720000Y-96151000D02*
X109108000Y-96151000D01*
X104252000Y-96151000D02*
X105640000Y-96151000D01*
X107720000Y-96111000D02*
X109122000Y-96111000D01*
X104238000Y-96111000D02*
X105640000Y-96111000D01*
X107720000Y-96071000D02*
X109135000Y-96071000D01*
X104225000Y-96071000D02*
X105640000Y-96071000D01*
X107720000Y-96031000D02*
X109148000Y-96031000D01*
X104212000Y-96031000D02*
X105640000Y-96031000D01*
X107720000Y-95991000D02*
X109160000Y-95991000D01*
X104200000Y-95991000D02*
X105640000Y-95991000D01*
X107720000Y-95950000D02*
X109171000Y-95950000D01*
X104189000Y-95950000D02*
X105640000Y-95950000D01*
X107720000Y-95910000D02*
X109181000Y-95910000D01*
X104179000Y-95910000D02*
X105640000Y-95910000D01*
X107720000Y-95870000D02*
X109191000Y-95870000D01*
X104169000Y-95870000D02*
X105640000Y-95870000D01*
X107720000Y-95830000D02*
X109200000Y-95830000D01*
X104160000Y-95830000D02*
X105640000Y-95830000D01*
X107720000Y-95790000D02*
X109208000Y-95790000D01*
X104152000Y-95790000D02*
X105640000Y-95790000D01*
X107720000Y-95750000D02*
X109216000Y-95750000D01*
X104144000Y-95750000D02*
X105640000Y-95750000D01*
X107720000Y-95710000D02*
X109223000Y-95710000D01*
X104137000Y-95710000D02*
X105640000Y-95710000D01*
X107720000Y-95670000D02*
X109230000Y-95670000D01*
X104130000Y-95670000D02*
X105640000Y-95670000D01*
X107720000Y-95630000D02*
X109236000Y-95630000D01*
X104124000Y-95630000D02*
X105640000Y-95630000D01*
X107720000Y-95590000D02*
X109241000Y-95590000D01*
X104119000Y-95590000D02*
X105640000Y-95590000D01*
X107720000Y-95550000D02*
X109245000Y-95550000D01*
X104115000Y-95550000D02*
X105640000Y-95550000D01*
X107720000Y-95510000D02*
X109249000Y-95510000D01*
X104111000Y-95510000D02*
X105640000Y-95510000D01*
X104107000Y-95470000D02*
X109253000Y-95470000D01*
X104104000Y-95430000D02*
X109256000Y-95430000D01*
X104102000Y-95390000D02*
X109258000Y-95390000D01*
X104101000Y-95350000D02*
X109259000Y-95350000D01*
X104100000Y-95310000D02*
X109260000Y-95310000D01*
X104100000Y-95270000D02*
X109260000Y-95270000D01*
X109300000Y-95270000D02*
G75*
G03*
X109300000Y-95270000I-2620000J0D01*
G01*
%TO.C,C201*%
X98269248Y-48668000D02*
X98791752Y-48668000D01*
X98269248Y-50138000D02*
X98791752Y-50138000D01*
%TO.C,C202*%
X98017000Y-58448752D02*
X98017000Y-57926248D01*
X96547000Y-58448752D02*
X96547000Y-57926248D01*
%TO.C,C203*%
X104125752Y-50011000D02*
X103603248Y-50011000D01*
X104125752Y-48541000D02*
X103603248Y-48541000D01*
%TO.C,C301*%
X98290748Y-71401000D02*
X98813252Y-71401000D01*
X98290748Y-72871000D02*
X98813252Y-72871000D01*
%TO.C,C302*%
X97763000Y-81287252D02*
X97763000Y-80764748D01*
X96293000Y-81287252D02*
X96293000Y-80764748D01*
%TO.C,C303*%
X103639252Y-72871000D02*
X103116748Y-72871000D01*
X103639252Y-71401000D02*
X103116748Y-71401000D01*
%TO.C,C401*%
X94480748Y-98525000D02*
X95003252Y-98525000D01*
X94480748Y-97055000D02*
X95003252Y-97055000D01*
%TO.C,C402*%
X94080000Y-107089752D02*
X94080000Y-106567248D01*
X92610000Y-107089752D02*
X92610000Y-106567248D01*
%TO.C,C403*%
X99829252Y-98525000D02*
X99306748Y-98525000D01*
X99829252Y-97055000D02*
X99306748Y-97055000D01*
%TO.C,C501*%
X98036748Y-125449000D02*
X98559252Y-125449000D01*
X98036748Y-123979000D02*
X98559252Y-123979000D01*
%TO.C,C502*%
X97763000Y-133843752D02*
X97763000Y-133321248D01*
X96293000Y-133843752D02*
X96293000Y-133321248D01*
%TO.C,C503*%
X103639252Y-125449000D02*
X103116748Y-125449000D01*
X103639252Y-123979000D02*
X103116748Y-123979000D01*
%TO.C,J101*%
X119440000Y-85030000D02*
X118110000Y-85030000D01*
X119440000Y-86360000D02*
X119440000Y-85030000D01*
X116840000Y-85030000D02*
X114240000Y-85030000D01*
X116840000Y-87630000D02*
X116840000Y-85030000D01*
X119440000Y-87630000D02*
X116840000Y-87630000D01*
X114240000Y-85030000D02*
X114240000Y-97850000D01*
X119440000Y-87630000D02*
X119440000Y-97850000D01*
X119440000Y-97850000D02*
X114240000Y-97850000D01*
%TO.C,R201*%
X104912936Y-56923000D02*
X105367064Y-56923000D01*
X104912936Y-58393000D02*
X105367064Y-58393000D01*
%TO.C,R202*%
X108177000Y-54313064D02*
X108177000Y-53858936D01*
X106707000Y-54313064D02*
X106707000Y-53858936D01*
%TO.C,R203*%
X73379000Y-56176936D02*
X73379000Y-56631064D01*
X71909000Y-56176936D02*
X71909000Y-56631064D01*
%TO.C,R205*%
X102843000Y-58462936D02*
X102843000Y-58917064D01*
X101373000Y-58462936D02*
X101373000Y-58917064D01*
%TO.C,R206*%
X74957000Y-48376064D02*
X74957000Y-47921936D01*
X76427000Y-48376064D02*
X76427000Y-47921936D01*
%TO.C,R207*%
X100557000Y-58377064D02*
X100557000Y-57922936D01*
X99087000Y-58377064D02*
X99087000Y-57922936D01*
%TO.C,R208*%
X91228936Y-58701000D02*
X91683064Y-58701000D01*
X91228936Y-60171000D02*
X91683064Y-60171000D01*
%TO.C,R209*%
X94007000Y-57922936D02*
X94007000Y-58377064D01*
X95477000Y-57922936D02*
X95477000Y-58377064D01*
%TO.C,R210*%
X65305000Y-56631064D02*
X65305000Y-56176936D01*
X66775000Y-56631064D02*
X66775000Y-56176936D01*
%TO.C,R212*%
X91175064Y-51843000D02*
X90720936Y-51843000D01*
X91175064Y-53313000D02*
X90720936Y-53313000D01*
%TO.C,R213*%
X90720936Y-56415000D02*
X91175064Y-56415000D01*
X90720936Y-57885000D02*
X91175064Y-57885000D01*
%TO.C,R215*%
X95546936Y-45185000D02*
X96001064Y-45185000D01*
X95546936Y-43715000D02*
X96001064Y-43715000D01*
%TO.C,R217*%
X117375000Y-46217064D02*
X117375000Y-45762936D01*
X118845000Y-46217064D02*
X118845000Y-45762936D01*
%TO.C,R218*%
X90434936Y-45185000D02*
X90889064Y-45185000D01*
X90434936Y-43715000D02*
X90889064Y-43715000D01*
%TO.C,R219*%
X114835000Y-45762936D02*
X114835000Y-46217064D01*
X116305000Y-45762936D02*
X116305000Y-46217064D01*
%TO.C,R220*%
X118845000Y-52821064D02*
X118845000Y-52366936D01*
X117375000Y-52821064D02*
X117375000Y-52366936D01*
%TO.C,R221*%
X66013000Y-45947064D02*
X66013000Y-45492936D01*
X64543000Y-45947064D02*
X64543000Y-45492936D01*
%TO.C,R222*%
X66013000Y-50556936D02*
X66013000Y-51011064D01*
X64543000Y-50556936D02*
X64543000Y-51011064D01*
%TO.C,R301*%
X103024000Y-82814936D02*
X103024000Y-83269064D01*
X104494000Y-82814936D02*
X104494000Y-83269064D01*
%TO.C,R302*%
X104420936Y-79275000D02*
X104875064Y-79275000D01*
X104420936Y-80745000D02*
X104875064Y-80745000D01*
%TO.C,R303*%
X73125000Y-80036936D02*
X73125000Y-80491064D01*
X71655000Y-80036936D02*
X71655000Y-80491064D01*
%TO.C,R305*%
X100865000Y-80782936D02*
X100865000Y-81237064D01*
X102335000Y-80782936D02*
X102335000Y-81237064D01*
%TO.C,R306*%
X78459000Y-74464936D02*
X78459000Y-74919064D01*
X76989000Y-74464936D02*
X76989000Y-74919064D01*
%TO.C,R307*%
X98579000Y-81253064D02*
X98579000Y-80798936D01*
X100049000Y-81253064D02*
X100049000Y-80798936D01*
%TO.C,R308*%
X90196936Y-81307000D02*
X90651064Y-81307000D01*
X90196936Y-82777000D02*
X90651064Y-82777000D01*
%TO.C,R309*%
X93753000Y-80798936D02*
X93753000Y-81253064D01*
X95223000Y-80798936D02*
X95223000Y-81253064D01*
%TO.C,R310*%
X66775000Y-80491064D02*
X66775000Y-80036936D01*
X65305000Y-80491064D02*
X65305000Y-80036936D01*
%TO.C,R312*%
X90905064Y-74830000D02*
X90450936Y-74830000D01*
X90905064Y-76300000D02*
X90450936Y-76300000D01*
%TO.C,R313*%
X90196936Y-79275000D02*
X90651064Y-79275000D01*
X90196936Y-80745000D02*
X90651064Y-80745000D01*
%TO.C,R315*%
X95276936Y-66575000D02*
X95731064Y-66575000D01*
X95276936Y-68045000D02*
X95731064Y-68045000D01*
%TO.C,R316*%
X114056936Y-73211000D02*
X114511064Y-73211000D01*
X114056936Y-74681000D02*
X114511064Y-74681000D01*
%TO.C,R317*%
X111733000Y-68299064D02*
X111733000Y-67844936D01*
X110263000Y-68299064D02*
X110263000Y-67844936D01*
%TO.C,R318*%
X90466936Y-71274000D02*
X90921064Y-71274000D01*
X90466936Y-72744000D02*
X90921064Y-72744000D01*
%TO.C,R319*%
X114273000Y-67844936D02*
X114273000Y-68299064D01*
X112803000Y-67844936D02*
X112803000Y-68299064D01*
%TO.C,R320*%
X110263000Y-75173064D02*
X110263000Y-74718936D01*
X111733000Y-75173064D02*
X111733000Y-74718936D01*
%TO.C,R321*%
X64543000Y-69839064D02*
X64543000Y-69384936D01*
X66013000Y-69839064D02*
X66013000Y-69384936D01*
%TO.C,R322*%
X64543000Y-74464936D02*
X64543000Y-74919064D01*
X66013000Y-74464936D02*
X66013000Y-74919064D01*
%TO.C,R401*%
X101176064Y-107850000D02*
X100721936Y-107850000D01*
X101176064Y-109320000D02*
X100721936Y-109320000D01*
%TO.C,R402*%
X100610936Y-105183000D02*
X101065064Y-105183000D01*
X100610936Y-106653000D02*
X101065064Y-106653000D01*
%TO.C,R403*%
X73379000Y-110008936D02*
X73379000Y-110463064D01*
X71909000Y-110008936D02*
X71909000Y-110463064D01*
%TO.C,R405*%
X97055000Y-106563936D02*
X97055000Y-107018064D01*
X98525000Y-106563936D02*
X98525000Y-107018064D01*
%TO.C,R406*%
X75719000Y-103420936D02*
X75719000Y-103875064D01*
X77189000Y-103420936D02*
X77189000Y-103875064D01*
%TO.C,R407*%
X94896000Y-107018064D02*
X94896000Y-106563936D01*
X96366000Y-107018064D02*
X96366000Y-106563936D01*
%TO.C,R408*%
X98525000Y-110955064D02*
X98525000Y-110500936D01*
X97055000Y-110955064D02*
X97055000Y-110500936D01*
%TO.C,R409*%
X89889000Y-106182936D02*
X89889000Y-106637064D01*
X88419000Y-106182936D02*
X88419000Y-106637064D01*
%TO.C,R410*%
X65305000Y-110463064D02*
X65305000Y-110008936D01*
X66775000Y-110463064D02*
X66775000Y-110008936D01*
%TO.C,R412*%
X87095064Y-100357000D02*
X86640936Y-100357000D01*
X87095064Y-101827000D02*
X86640936Y-101827000D01*
%TO.C,R413*%
X85624936Y-106145000D02*
X86079064Y-106145000D01*
X85624936Y-104675000D02*
X86079064Y-104675000D01*
%TO.C,R415*%
X90593936Y-91975000D02*
X91048064Y-91975000D01*
X90593936Y-93445000D02*
X91048064Y-93445000D01*
%TO.C,R416*%
X114781000Y-105875064D02*
X114781000Y-105420936D01*
X113311000Y-105875064D02*
X113311000Y-105420936D01*
%TO.C,R417*%
X110771000Y-112310936D02*
X110771000Y-112765064D01*
X112241000Y-112310936D02*
X112241000Y-112765064D01*
%TO.C,R418*%
X87910936Y-96928000D02*
X88365064Y-96928000D01*
X87910936Y-98398000D02*
X88365064Y-98398000D01*
%TO.C,R419*%
X113311000Y-112765064D02*
X113311000Y-112310936D01*
X114781000Y-112765064D02*
X114781000Y-112310936D01*
%TO.C,R420*%
X112241000Y-105420936D02*
X112241000Y-105875064D01*
X110771000Y-105420936D02*
X110771000Y-105875064D01*
%TO.C,R421*%
X64797000Y-99811064D02*
X64797000Y-99356936D01*
X66267000Y-99811064D02*
X66267000Y-99356936D01*
%TO.C,R422*%
X64797000Y-104277936D02*
X64797000Y-104732064D01*
X66267000Y-104277936D02*
X66267000Y-104732064D01*
%TO.C,R501*%
X104891064Y-134520000D02*
X104436936Y-134520000D01*
X104891064Y-135990000D02*
X104436936Y-135990000D01*
%TO.C,R502*%
X104404936Y-133450000D02*
X104859064Y-133450000D01*
X104404936Y-131980000D02*
X104859064Y-131980000D01*
%TO.C,R503*%
X71909000Y-132868936D02*
X71909000Y-133323064D01*
X73379000Y-132868936D02*
X73379000Y-133323064D01*
%TO.C,R505*%
X102335000Y-133392936D02*
X102335000Y-133847064D01*
X100865000Y-133392936D02*
X100865000Y-133847064D01*
%TO.C,R506*%
X76100000Y-127042936D02*
X76100000Y-127497064D01*
X77570000Y-127042936D02*
X77570000Y-127497064D01*
%TO.C,R507*%
X100303000Y-133847064D02*
X100303000Y-133392936D01*
X98833000Y-133847064D02*
X98833000Y-133392936D01*
%TO.C,R508*%
X89926936Y-135609000D02*
X90381064Y-135609000D01*
X89926936Y-134139000D02*
X90381064Y-134139000D01*
%TO.C,R509*%
X93753000Y-133392936D02*
X93753000Y-133847064D01*
X95223000Y-133392936D02*
X95223000Y-133847064D01*
%TO.C,R510*%
X65305000Y-133323064D02*
X65305000Y-132868936D01*
X66775000Y-133323064D02*
X66775000Y-132868936D01*
%TO.C,R512*%
X90905064Y-128751000D02*
X90450936Y-128751000D01*
X90905064Y-127281000D02*
X90450936Y-127281000D01*
%TO.C,R513*%
X89942936Y-133323000D02*
X90397064Y-133323000D01*
X89942936Y-131853000D02*
X90397064Y-131853000D01*
%TO.C,R515*%
X94498936Y-119026000D02*
X94953064Y-119026000D01*
X94498936Y-120496000D02*
X94953064Y-120496000D01*
%TO.C,R516*%
X116813000Y-128259064D02*
X116813000Y-127804936D01*
X115343000Y-128259064D02*
X115343000Y-127804936D01*
%TO.C,R517*%
X119353000Y-134662936D02*
X119353000Y-135117064D01*
X117883000Y-134662936D02*
X117883000Y-135117064D01*
%TO.C,R518*%
X90196936Y-120496000D02*
X90651064Y-120496000D01*
X90196936Y-119026000D02*
X90651064Y-119026000D01*
%TO.C,R519*%
X116813000Y-135117064D02*
X116813000Y-134662936D01*
X115343000Y-135117064D02*
X115343000Y-134662936D01*
%TO.C,R520*%
X117883000Y-127804936D02*
X117883000Y-128259064D01*
X119353000Y-127804936D02*
X119353000Y-128259064D01*
%TO.C,R521*%
X64797000Y-123560064D02*
X64797000Y-123105936D01*
X66267000Y-123560064D02*
X66267000Y-123105936D01*
%TO.C,R522*%
X64797000Y-128058936D02*
X64797000Y-128513064D01*
X66267000Y-128058936D02*
X66267000Y-128513064D01*
%TO.C,R216*%
D11*
X114372380Y-51442952D02*
X113896190Y-51109619D01*
X114372380Y-50871523D02*
X113372380Y-50871523D01*
X113372380Y-51252476D01*
X113420000Y-51347714D01*
X113467619Y-51395333D01*
X113562857Y-51442952D01*
X113705714Y-51442952D01*
X113800952Y-51395333D01*
X113848571Y-51347714D01*
X113896190Y-51252476D01*
X113896190Y-50871523D01*
X113467619Y-51823904D02*
X113420000Y-51871523D01*
X113372380Y-51966761D01*
X113372380Y-52204857D01*
X113420000Y-52300095D01*
X113467619Y-52347714D01*
X113562857Y-52395333D01*
X113658095Y-52395333D01*
X113800952Y-52347714D01*
X114372380Y-51776285D01*
X114372380Y-52395333D01*
X114372380Y-53347714D02*
X114372380Y-52776285D01*
X114372380Y-53062000D02*
X113372380Y-53062000D01*
X113515238Y-52966761D01*
X113610476Y-52871523D01*
X113658095Y-52776285D01*
X113372380Y-54204857D02*
X113372380Y-54014380D01*
X113420000Y-53919142D01*
X113467619Y-53871523D01*
X113610476Y-53776285D01*
X113800952Y-53728666D01*
X114181904Y-53728666D01*
X114277142Y-53776285D01*
X114324761Y-53823904D01*
X114372380Y-53919142D01*
X114372380Y-54109619D01*
X114324761Y-54204857D01*
X114277142Y-54252476D01*
X114181904Y-54300095D01*
X113943809Y-54300095D01*
X113848571Y-54252476D01*
X113800952Y-54204857D01*
X113753333Y-54109619D01*
X113753333Y-53919142D01*
X113800952Y-53823904D01*
X113848571Y-53776285D01*
X113943809Y-53728666D01*
%TO.C,C101*%
X110593142Y-86510952D02*
X110640761Y-86463333D01*
X110688380Y-86320476D01*
X110688380Y-86225238D01*
X110640761Y-86082380D01*
X110545523Y-85987142D01*
X110450285Y-85939523D01*
X110259809Y-85891904D01*
X110116952Y-85891904D01*
X109926476Y-85939523D01*
X109831238Y-85987142D01*
X109736000Y-86082380D01*
X109688380Y-86225238D01*
X109688380Y-86320476D01*
X109736000Y-86463333D01*
X109783619Y-86510952D01*
X110688380Y-87463333D02*
X110688380Y-86891904D01*
X110688380Y-87177619D02*
X109688380Y-87177619D01*
X109831238Y-87082380D01*
X109926476Y-86987142D01*
X109974095Y-86891904D01*
X109688380Y-88082380D02*
X109688380Y-88177619D01*
X109736000Y-88272857D01*
X109783619Y-88320476D01*
X109878857Y-88368095D01*
X110069333Y-88415714D01*
X110307428Y-88415714D01*
X110497904Y-88368095D01*
X110593142Y-88320476D01*
X110640761Y-88272857D01*
X110688380Y-88177619D01*
X110688380Y-88082380D01*
X110640761Y-87987142D01*
X110593142Y-87939523D01*
X110497904Y-87891904D01*
X110307428Y-87844285D01*
X110069333Y-87844285D01*
X109878857Y-87891904D01*
X109783619Y-87939523D01*
X109736000Y-87987142D01*
X109688380Y-88082380D01*
X110688380Y-89368095D02*
X110688380Y-88796666D01*
X110688380Y-89082380D02*
X109688380Y-89082380D01*
X109831238Y-88987142D01*
X109926476Y-88891904D01*
X109974095Y-88796666D01*
%TO.C,C102*%
X110593142Y-94130952D02*
X110640761Y-94083333D01*
X110688380Y-93940476D01*
X110688380Y-93845238D01*
X110640761Y-93702380D01*
X110545523Y-93607142D01*
X110450285Y-93559523D01*
X110259809Y-93511904D01*
X110116952Y-93511904D01*
X109926476Y-93559523D01*
X109831238Y-93607142D01*
X109736000Y-93702380D01*
X109688380Y-93845238D01*
X109688380Y-93940476D01*
X109736000Y-94083333D01*
X109783619Y-94130952D01*
X110688380Y-95083333D02*
X110688380Y-94511904D01*
X110688380Y-94797619D02*
X109688380Y-94797619D01*
X109831238Y-94702380D01*
X109926476Y-94607142D01*
X109974095Y-94511904D01*
X109688380Y-95702380D02*
X109688380Y-95797619D01*
X109736000Y-95892857D01*
X109783619Y-95940476D01*
X109878857Y-95988095D01*
X110069333Y-96035714D01*
X110307428Y-96035714D01*
X110497904Y-95988095D01*
X110593142Y-95940476D01*
X110640761Y-95892857D01*
X110688380Y-95797619D01*
X110688380Y-95702380D01*
X110640761Y-95607142D01*
X110593142Y-95559523D01*
X110497904Y-95511904D01*
X110307428Y-95464285D01*
X110069333Y-95464285D01*
X109878857Y-95511904D01*
X109783619Y-95559523D01*
X109736000Y-95607142D01*
X109688380Y-95702380D01*
X109783619Y-96416666D02*
X109736000Y-96464285D01*
X109688380Y-96559523D01*
X109688380Y-96797619D01*
X109736000Y-96892857D01*
X109783619Y-96940476D01*
X109878857Y-96988095D01*
X109974095Y-96988095D01*
X110116952Y-96940476D01*
X110688380Y-96369047D01*
X110688380Y-96988095D01*
%TO.C,C201*%
X99649547Y-51440142D02*
X99697166Y-51487761D01*
X99840023Y-51535380D01*
X99935261Y-51535380D01*
X100078119Y-51487761D01*
X100173357Y-51392523D01*
X100220976Y-51297285D01*
X100268595Y-51106809D01*
X100268595Y-50963952D01*
X100220976Y-50773476D01*
X100173357Y-50678238D01*
X100078119Y-50583000D01*
X99935261Y-50535380D01*
X99840023Y-50535380D01*
X99697166Y-50583000D01*
X99649547Y-50630619D01*
X99268595Y-50630619D02*
X99220976Y-50583000D01*
X99125738Y-50535380D01*
X98887642Y-50535380D01*
X98792404Y-50583000D01*
X98744785Y-50630619D01*
X98697166Y-50725857D01*
X98697166Y-50821095D01*
X98744785Y-50963952D01*
X99316214Y-51535380D01*
X98697166Y-51535380D01*
X98078119Y-50535380D02*
X97982880Y-50535380D01*
X97887642Y-50583000D01*
X97840023Y-50630619D01*
X97792404Y-50725857D01*
X97744785Y-50916333D01*
X97744785Y-51154428D01*
X97792404Y-51344904D01*
X97840023Y-51440142D01*
X97887642Y-51487761D01*
X97982880Y-51535380D01*
X98078119Y-51535380D01*
X98173357Y-51487761D01*
X98220976Y-51440142D01*
X98268595Y-51344904D01*
X98316214Y-51154428D01*
X98316214Y-50916333D01*
X98268595Y-50725857D01*
X98220976Y-50630619D01*
X98173357Y-50583000D01*
X98078119Y-50535380D01*
X96792404Y-51535380D02*
X97363833Y-51535380D01*
X97078119Y-51535380D02*
X97078119Y-50535380D01*
X97173357Y-50678238D01*
X97268595Y-50773476D01*
X97363833Y-50821095D01*
%TO.C,C202*%
X97639142Y-60856952D02*
X97686761Y-60809333D01*
X97734380Y-60666476D01*
X97734380Y-60571238D01*
X97686761Y-60428380D01*
X97591523Y-60333142D01*
X97496285Y-60285523D01*
X97305809Y-60237904D01*
X97162952Y-60237904D01*
X96972476Y-60285523D01*
X96877238Y-60333142D01*
X96782000Y-60428380D01*
X96734380Y-60571238D01*
X96734380Y-60666476D01*
X96782000Y-60809333D01*
X96829619Y-60856952D01*
X96829619Y-61237904D02*
X96782000Y-61285523D01*
X96734380Y-61380761D01*
X96734380Y-61618857D01*
X96782000Y-61714095D01*
X96829619Y-61761714D01*
X96924857Y-61809333D01*
X97020095Y-61809333D01*
X97162952Y-61761714D01*
X97734380Y-61190285D01*
X97734380Y-61809333D01*
X96734380Y-62428380D02*
X96734380Y-62523619D01*
X96782000Y-62618857D01*
X96829619Y-62666476D01*
X96924857Y-62714095D01*
X97115333Y-62761714D01*
X97353428Y-62761714D01*
X97543904Y-62714095D01*
X97639142Y-62666476D01*
X97686761Y-62618857D01*
X97734380Y-62523619D01*
X97734380Y-62428380D01*
X97686761Y-62333142D01*
X97639142Y-62285523D01*
X97543904Y-62237904D01*
X97353428Y-62190285D01*
X97115333Y-62190285D01*
X96924857Y-62237904D01*
X96829619Y-62285523D01*
X96782000Y-62333142D01*
X96734380Y-62428380D01*
X96829619Y-63142666D02*
X96782000Y-63190285D01*
X96734380Y-63285523D01*
X96734380Y-63523619D01*
X96782000Y-63618857D01*
X96829619Y-63666476D01*
X96924857Y-63714095D01*
X97020095Y-63714095D01*
X97162952Y-63666476D01*
X97734380Y-63095047D01*
X97734380Y-63714095D01*
%TO.C,C203*%
X104983547Y-51411142D02*
X105031166Y-51458761D01*
X105174023Y-51506380D01*
X105269261Y-51506380D01*
X105412119Y-51458761D01*
X105507357Y-51363523D01*
X105554976Y-51268285D01*
X105602595Y-51077809D01*
X105602595Y-50934952D01*
X105554976Y-50744476D01*
X105507357Y-50649238D01*
X105412119Y-50554000D01*
X105269261Y-50506380D01*
X105174023Y-50506380D01*
X105031166Y-50554000D01*
X104983547Y-50601619D01*
X104602595Y-50601619D02*
X104554976Y-50554000D01*
X104459738Y-50506380D01*
X104221642Y-50506380D01*
X104126404Y-50554000D01*
X104078785Y-50601619D01*
X104031166Y-50696857D01*
X104031166Y-50792095D01*
X104078785Y-50934952D01*
X104650214Y-51506380D01*
X104031166Y-51506380D01*
X103412119Y-50506380D02*
X103316880Y-50506380D01*
X103221642Y-50554000D01*
X103174023Y-50601619D01*
X103126404Y-50696857D01*
X103078785Y-50887333D01*
X103078785Y-51125428D01*
X103126404Y-51315904D01*
X103174023Y-51411142D01*
X103221642Y-51458761D01*
X103316880Y-51506380D01*
X103412119Y-51506380D01*
X103507357Y-51458761D01*
X103554976Y-51411142D01*
X103602595Y-51315904D01*
X103650214Y-51125428D01*
X103650214Y-50887333D01*
X103602595Y-50696857D01*
X103554976Y-50601619D01*
X103507357Y-50554000D01*
X103412119Y-50506380D01*
X102745452Y-50506380D02*
X102126404Y-50506380D01*
X102459738Y-50887333D01*
X102316880Y-50887333D01*
X102221642Y-50934952D01*
X102174023Y-50982571D01*
X102126404Y-51077809D01*
X102126404Y-51315904D01*
X102174023Y-51411142D01*
X102221642Y-51458761D01*
X102316880Y-51506380D01*
X102602595Y-51506380D01*
X102697833Y-51458761D01*
X102745452Y-51411142D01*
%TO.C,C301*%
X99671047Y-74173142D02*
X99718666Y-74220761D01*
X99861523Y-74268380D01*
X99956761Y-74268380D01*
X100099619Y-74220761D01*
X100194857Y-74125523D01*
X100242476Y-74030285D01*
X100290095Y-73839809D01*
X100290095Y-73696952D01*
X100242476Y-73506476D01*
X100194857Y-73411238D01*
X100099619Y-73316000D01*
X99956761Y-73268380D01*
X99861523Y-73268380D01*
X99718666Y-73316000D01*
X99671047Y-73363619D01*
X99337714Y-73268380D02*
X98718666Y-73268380D01*
X99052000Y-73649333D01*
X98909142Y-73649333D01*
X98813904Y-73696952D01*
X98766285Y-73744571D01*
X98718666Y-73839809D01*
X98718666Y-74077904D01*
X98766285Y-74173142D01*
X98813904Y-74220761D01*
X98909142Y-74268380D01*
X99194857Y-74268380D01*
X99290095Y-74220761D01*
X99337714Y-74173142D01*
X98099619Y-73268380D02*
X98004380Y-73268380D01*
X97909142Y-73316000D01*
X97861523Y-73363619D01*
X97813904Y-73458857D01*
X97766285Y-73649333D01*
X97766285Y-73887428D01*
X97813904Y-74077904D01*
X97861523Y-74173142D01*
X97909142Y-74220761D01*
X98004380Y-74268380D01*
X98099619Y-74268380D01*
X98194857Y-74220761D01*
X98242476Y-74173142D01*
X98290095Y-74077904D01*
X98337714Y-73887428D01*
X98337714Y-73649333D01*
X98290095Y-73458857D01*
X98242476Y-73363619D01*
X98194857Y-73316000D01*
X98099619Y-73268380D01*
X96813904Y-74268380D02*
X97385333Y-74268380D01*
X97099619Y-74268380D02*
X97099619Y-73268380D01*
X97194857Y-73411238D01*
X97290095Y-73506476D01*
X97385333Y-73554095D01*
%TO.C,C302*%
X97385142Y-83716952D02*
X97432761Y-83669333D01*
X97480380Y-83526476D01*
X97480380Y-83431238D01*
X97432761Y-83288380D01*
X97337523Y-83193142D01*
X97242285Y-83145523D01*
X97051809Y-83097904D01*
X96908952Y-83097904D01*
X96718476Y-83145523D01*
X96623238Y-83193142D01*
X96528000Y-83288380D01*
X96480380Y-83431238D01*
X96480380Y-83526476D01*
X96528000Y-83669333D01*
X96575619Y-83716952D01*
X96480380Y-84050285D02*
X96480380Y-84669333D01*
X96861333Y-84336000D01*
X96861333Y-84478857D01*
X96908952Y-84574095D01*
X96956571Y-84621714D01*
X97051809Y-84669333D01*
X97289904Y-84669333D01*
X97385142Y-84621714D01*
X97432761Y-84574095D01*
X97480380Y-84478857D01*
X97480380Y-84193142D01*
X97432761Y-84097904D01*
X97385142Y-84050285D01*
X96480380Y-85288380D02*
X96480380Y-85383619D01*
X96528000Y-85478857D01*
X96575619Y-85526476D01*
X96670857Y-85574095D01*
X96861333Y-85621714D01*
X97099428Y-85621714D01*
X97289904Y-85574095D01*
X97385142Y-85526476D01*
X97432761Y-85478857D01*
X97480380Y-85383619D01*
X97480380Y-85288380D01*
X97432761Y-85193142D01*
X97385142Y-85145523D01*
X97289904Y-85097904D01*
X97099428Y-85050285D01*
X96861333Y-85050285D01*
X96670857Y-85097904D01*
X96575619Y-85145523D01*
X96528000Y-85193142D01*
X96480380Y-85288380D01*
X96575619Y-86002666D02*
X96528000Y-86050285D01*
X96480380Y-86145523D01*
X96480380Y-86383619D01*
X96528000Y-86478857D01*
X96575619Y-86526476D01*
X96670857Y-86574095D01*
X96766095Y-86574095D01*
X96908952Y-86526476D01*
X97480380Y-85955047D01*
X97480380Y-86574095D01*
%TO.C,C303*%
X104497047Y-74271142D02*
X104544666Y-74318761D01*
X104687523Y-74366380D01*
X104782761Y-74366380D01*
X104925619Y-74318761D01*
X105020857Y-74223523D01*
X105068476Y-74128285D01*
X105116095Y-73937809D01*
X105116095Y-73794952D01*
X105068476Y-73604476D01*
X105020857Y-73509238D01*
X104925619Y-73414000D01*
X104782761Y-73366380D01*
X104687523Y-73366380D01*
X104544666Y-73414000D01*
X104497047Y-73461619D01*
X104163714Y-73366380D02*
X103544666Y-73366380D01*
X103878000Y-73747333D01*
X103735142Y-73747333D01*
X103639904Y-73794952D01*
X103592285Y-73842571D01*
X103544666Y-73937809D01*
X103544666Y-74175904D01*
X103592285Y-74271142D01*
X103639904Y-74318761D01*
X103735142Y-74366380D01*
X104020857Y-74366380D01*
X104116095Y-74318761D01*
X104163714Y-74271142D01*
X102925619Y-73366380D02*
X102830380Y-73366380D01*
X102735142Y-73414000D01*
X102687523Y-73461619D01*
X102639904Y-73556857D01*
X102592285Y-73747333D01*
X102592285Y-73985428D01*
X102639904Y-74175904D01*
X102687523Y-74271142D01*
X102735142Y-74318761D01*
X102830380Y-74366380D01*
X102925619Y-74366380D01*
X103020857Y-74318761D01*
X103068476Y-74271142D01*
X103116095Y-74175904D01*
X103163714Y-73985428D01*
X103163714Y-73747333D01*
X103116095Y-73556857D01*
X103068476Y-73461619D01*
X103020857Y-73414000D01*
X102925619Y-73366380D01*
X102258952Y-73366380D02*
X101639904Y-73366380D01*
X101973238Y-73747333D01*
X101830380Y-73747333D01*
X101735142Y-73794952D01*
X101687523Y-73842571D01*
X101639904Y-73937809D01*
X101639904Y-74175904D01*
X101687523Y-74271142D01*
X101735142Y-74318761D01*
X101830380Y-74366380D01*
X102116095Y-74366380D01*
X102211333Y-74318761D01*
X102258952Y-74271142D01*
%TO.C,C401*%
X95861047Y-99827142D02*
X95908666Y-99874761D01*
X96051523Y-99922380D01*
X96146761Y-99922380D01*
X96289619Y-99874761D01*
X96384857Y-99779523D01*
X96432476Y-99684285D01*
X96480095Y-99493809D01*
X96480095Y-99350952D01*
X96432476Y-99160476D01*
X96384857Y-99065238D01*
X96289619Y-98970000D01*
X96146761Y-98922380D01*
X96051523Y-98922380D01*
X95908666Y-98970000D01*
X95861047Y-99017619D01*
X95003904Y-99255714D02*
X95003904Y-99922380D01*
X95242000Y-98874761D02*
X95480095Y-99589047D01*
X94861047Y-99589047D01*
X94289619Y-98922380D02*
X94194380Y-98922380D01*
X94099142Y-98970000D01*
X94051523Y-99017619D01*
X94003904Y-99112857D01*
X93956285Y-99303333D01*
X93956285Y-99541428D01*
X94003904Y-99731904D01*
X94051523Y-99827142D01*
X94099142Y-99874761D01*
X94194380Y-99922380D01*
X94289619Y-99922380D01*
X94384857Y-99874761D01*
X94432476Y-99827142D01*
X94480095Y-99731904D01*
X94527714Y-99541428D01*
X94527714Y-99303333D01*
X94480095Y-99112857D01*
X94432476Y-99017619D01*
X94384857Y-98970000D01*
X94289619Y-98922380D01*
X93003904Y-99922380D02*
X93575333Y-99922380D01*
X93289619Y-99922380D02*
X93289619Y-98922380D01*
X93384857Y-99065238D01*
X93480095Y-99160476D01*
X93575333Y-99208095D01*
%TO.C,C402*%
X93829142Y-109370952D02*
X93876761Y-109323333D01*
X93924380Y-109180476D01*
X93924380Y-109085238D01*
X93876761Y-108942380D01*
X93781523Y-108847142D01*
X93686285Y-108799523D01*
X93495809Y-108751904D01*
X93352952Y-108751904D01*
X93162476Y-108799523D01*
X93067238Y-108847142D01*
X92972000Y-108942380D01*
X92924380Y-109085238D01*
X92924380Y-109180476D01*
X92972000Y-109323333D01*
X93019619Y-109370952D01*
X93257714Y-110228095D02*
X93924380Y-110228095D01*
X92876761Y-109990000D02*
X93591047Y-109751904D01*
X93591047Y-110370952D01*
X92924380Y-110942380D02*
X92924380Y-111037619D01*
X92972000Y-111132857D01*
X93019619Y-111180476D01*
X93114857Y-111228095D01*
X93305333Y-111275714D01*
X93543428Y-111275714D01*
X93733904Y-111228095D01*
X93829142Y-111180476D01*
X93876761Y-111132857D01*
X93924380Y-111037619D01*
X93924380Y-110942380D01*
X93876761Y-110847142D01*
X93829142Y-110799523D01*
X93733904Y-110751904D01*
X93543428Y-110704285D01*
X93305333Y-110704285D01*
X93114857Y-110751904D01*
X93019619Y-110799523D01*
X92972000Y-110847142D01*
X92924380Y-110942380D01*
X93019619Y-111656666D02*
X92972000Y-111704285D01*
X92924380Y-111799523D01*
X92924380Y-112037619D01*
X92972000Y-112132857D01*
X93019619Y-112180476D01*
X93114857Y-112228095D01*
X93210095Y-112228095D01*
X93352952Y-112180476D01*
X93924380Y-111609047D01*
X93924380Y-112228095D01*
%TO.C,C403*%
X100687047Y-99925142D02*
X100734666Y-99972761D01*
X100877523Y-100020380D01*
X100972761Y-100020380D01*
X101115619Y-99972761D01*
X101210857Y-99877523D01*
X101258476Y-99782285D01*
X101306095Y-99591809D01*
X101306095Y-99448952D01*
X101258476Y-99258476D01*
X101210857Y-99163238D01*
X101115619Y-99068000D01*
X100972761Y-99020380D01*
X100877523Y-99020380D01*
X100734666Y-99068000D01*
X100687047Y-99115619D01*
X99829904Y-99353714D02*
X99829904Y-100020380D01*
X100068000Y-98972761D02*
X100306095Y-99687047D01*
X99687047Y-99687047D01*
X99115619Y-99020380D02*
X99020380Y-99020380D01*
X98925142Y-99068000D01*
X98877523Y-99115619D01*
X98829904Y-99210857D01*
X98782285Y-99401333D01*
X98782285Y-99639428D01*
X98829904Y-99829904D01*
X98877523Y-99925142D01*
X98925142Y-99972761D01*
X99020380Y-100020380D01*
X99115619Y-100020380D01*
X99210857Y-99972761D01*
X99258476Y-99925142D01*
X99306095Y-99829904D01*
X99353714Y-99639428D01*
X99353714Y-99401333D01*
X99306095Y-99210857D01*
X99258476Y-99115619D01*
X99210857Y-99068000D01*
X99115619Y-99020380D01*
X98448952Y-99020380D02*
X97829904Y-99020380D01*
X98163238Y-99401333D01*
X98020380Y-99401333D01*
X97925142Y-99448952D01*
X97877523Y-99496571D01*
X97829904Y-99591809D01*
X97829904Y-99829904D01*
X97877523Y-99925142D01*
X97925142Y-99972761D01*
X98020380Y-100020380D01*
X98306095Y-100020380D01*
X98401333Y-99972761D01*
X98448952Y-99925142D01*
%TO.C,C501*%
X99417047Y-126751142D02*
X99464666Y-126798761D01*
X99607523Y-126846380D01*
X99702761Y-126846380D01*
X99845619Y-126798761D01*
X99940857Y-126703523D01*
X99988476Y-126608285D01*
X100036095Y-126417809D01*
X100036095Y-126274952D01*
X99988476Y-126084476D01*
X99940857Y-125989238D01*
X99845619Y-125894000D01*
X99702761Y-125846380D01*
X99607523Y-125846380D01*
X99464666Y-125894000D01*
X99417047Y-125941619D01*
X98512285Y-125846380D02*
X98988476Y-125846380D01*
X99036095Y-126322571D01*
X98988476Y-126274952D01*
X98893238Y-126227333D01*
X98655142Y-126227333D01*
X98559904Y-126274952D01*
X98512285Y-126322571D01*
X98464666Y-126417809D01*
X98464666Y-126655904D01*
X98512285Y-126751142D01*
X98559904Y-126798761D01*
X98655142Y-126846380D01*
X98893238Y-126846380D01*
X98988476Y-126798761D01*
X99036095Y-126751142D01*
X97845619Y-125846380D02*
X97750380Y-125846380D01*
X97655142Y-125894000D01*
X97607523Y-125941619D01*
X97559904Y-126036857D01*
X97512285Y-126227333D01*
X97512285Y-126465428D01*
X97559904Y-126655904D01*
X97607523Y-126751142D01*
X97655142Y-126798761D01*
X97750380Y-126846380D01*
X97845619Y-126846380D01*
X97940857Y-126798761D01*
X97988476Y-126751142D01*
X98036095Y-126655904D01*
X98083714Y-126465428D01*
X98083714Y-126227333D01*
X98036095Y-126036857D01*
X97988476Y-125941619D01*
X97940857Y-125894000D01*
X97845619Y-125846380D01*
X96559904Y-126846380D02*
X97131333Y-126846380D01*
X96845619Y-126846380D02*
X96845619Y-125846380D01*
X96940857Y-125989238D01*
X97036095Y-126084476D01*
X97131333Y-126132095D01*
%TO.C,C502*%
X97385142Y-136294952D02*
X97432761Y-136247333D01*
X97480380Y-136104476D01*
X97480380Y-136009238D01*
X97432761Y-135866380D01*
X97337523Y-135771142D01*
X97242285Y-135723523D01*
X97051809Y-135675904D01*
X96908952Y-135675904D01*
X96718476Y-135723523D01*
X96623238Y-135771142D01*
X96528000Y-135866380D01*
X96480380Y-136009238D01*
X96480380Y-136104476D01*
X96528000Y-136247333D01*
X96575619Y-136294952D01*
X96480380Y-137199714D02*
X96480380Y-136723523D01*
X96956571Y-136675904D01*
X96908952Y-136723523D01*
X96861333Y-136818761D01*
X96861333Y-137056857D01*
X96908952Y-137152095D01*
X96956571Y-137199714D01*
X97051809Y-137247333D01*
X97289904Y-137247333D01*
X97385142Y-137199714D01*
X97432761Y-137152095D01*
X97480380Y-137056857D01*
X97480380Y-136818761D01*
X97432761Y-136723523D01*
X97385142Y-136675904D01*
X96480380Y-137866380D02*
X96480380Y-137961619D01*
X96528000Y-138056857D01*
X96575619Y-138104476D01*
X96670857Y-138152095D01*
X96861333Y-138199714D01*
X97099428Y-138199714D01*
X97289904Y-138152095D01*
X97385142Y-138104476D01*
X97432761Y-138056857D01*
X97480380Y-137961619D01*
X97480380Y-137866380D01*
X97432761Y-137771142D01*
X97385142Y-137723523D01*
X97289904Y-137675904D01*
X97099428Y-137628285D01*
X96861333Y-137628285D01*
X96670857Y-137675904D01*
X96575619Y-137723523D01*
X96528000Y-137771142D01*
X96480380Y-137866380D01*
X96575619Y-138580666D02*
X96528000Y-138628285D01*
X96480380Y-138723523D01*
X96480380Y-138961619D01*
X96528000Y-139056857D01*
X96575619Y-139104476D01*
X96670857Y-139152095D01*
X96766095Y-139152095D01*
X96908952Y-139104476D01*
X97480380Y-138533047D01*
X97480380Y-139152095D01*
%TO.C,C503*%
X104497047Y-126849142D02*
X104544666Y-126896761D01*
X104687523Y-126944380D01*
X104782761Y-126944380D01*
X104925619Y-126896761D01*
X105020857Y-126801523D01*
X105068476Y-126706285D01*
X105116095Y-126515809D01*
X105116095Y-126372952D01*
X105068476Y-126182476D01*
X105020857Y-126087238D01*
X104925619Y-125992000D01*
X104782761Y-125944380D01*
X104687523Y-125944380D01*
X104544666Y-125992000D01*
X104497047Y-126039619D01*
X103592285Y-125944380D02*
X104068476Y-125944380D01*
X104116095Y-126420571D01*
X104068476Y-126372952D01*
X103973238Y-126325333D01*
X103735142Y-126325333D01*
X103639904Y-126372952D01*
X103592285Y-126420571D01*
X103544666Y-126515809D01*
X103544666Y-126753904D01*
X103592285Y-126849142D01*
X103639904Y-126896761D01*
X103735142Y-126944380D01*
X103973238Y-126944380D01*
X104068476Y-126896761D01*
X104116095Y-126849142D01*
X102925619Y-125944380D02*
X102830380Y-125944380D01*
X102735142Y-125992000D01*
X102687523Y-126039619D01*
X102639904Y-126134857D01*
X102592285Y-126325333D01*
X102592285Y-126563428D01*
X102639904Y-126753904D01*
X102687523Y-126849142D01*
X102735142Y-126896761D01*
X102830380Y-126944380D01*
X102925619Y-126944380D01*
X103020857Y-126896761D01*
X103068476Y-126849142D01*
X103116095Y-126753904D01*
X103163714Y-126563428D01*
X103163714Y-126325333D01*
X103116095Y-126134857D01*
X103068476Y-126039619D01*
X103020857Y-125992000D01*
X102925619Y-125944380D01*
X102258952Y-125944380D02*
X101639904Y-125944380D01*
X101973238Y-126325333D01*
X101830380Y-126325333D01*
X101735142Y-126372952D01*
X101687523Y-126420571D01*
X101639904Y-126515809D01*
X101639904Y-126753904D01*
X101687523Y-126849142D01*
X101735142Y-126896761D01*
X101830380Y-126944380D01*
X102116095Y-126944380D01*
X102211333Y-126896761D01*
X102258952Y-126849142D01*
%TO.C,J101*%
X113553714Y-91146380D02*
X113553714Y-91860666D01*
X113601333Y-92003523D01*
X113696571Y-92098761D01*
X113839428Y-92146380D01*
X113934666Y-92146380D01*
X112553714Y-92146380D02*
X113125142Y-92146380D01*
X112839428Y-92146380D02*
X112839428Y-91146380D01*
X112934666Y-91289238D01*
X113029904Y-91384476D01*
X113125142Y-91432095D01*
X111934666Y-91146380D02*
X111839428Y-91146380D01*
X111744190Y-91194000D01*
X111696571Y-91241619D01*
X111648952Y-91336857D01*
X111601333Y-91527333D01*
X111601333Y-91765428D01*
X111648952Y-91955904D01*
X111696571Y-92051142D01*
X111744190Y-92098761D01*
X111839428Y-92146380D01*
X111934666Y-92146380D01*
X112029904Y-92098761D01*
X112077523Y-92051142D01*
X112125142Y-91955904D01*
X112172761Y-91765428D01*
X112172761Y-91527333D01*
X112125142Y-91336857D01*
X112077523Y-91241619D01*
X112029904Y-91194000D01*
X111934666Y-91146380D01*
X110648952Y-92146380D02*
X111220380Y-92146380D01*
X110934666Y-92146380D02*
X110934666Y-91146380D01*
X111029904Y-91289238D01*
X111125142Y-91384476D01*
X111220380Y-91432095D01*
%TO.C,R201*%
X106259047Y-59760380D02*
X106592380Y-59284190D01*
X106830476Y-59760380D02*
X106830476Y-58760380D01*
X106449523Y-58760380D01*
X106354285Y-58808000D01*
X106306666Y-58855619D01*
X106259047Y-58950857D01*
X106259047Y-59093714D01*
X106306666Y-59188952D01*
X106354285Y-59236571D01*
X106449523Y-59284190D01*
X106830476Y-59284190D01*
X105878095Y-58855619D02*
X105830476Y-58808000D01*
X105735238Y-58760380D01*
X105497142Y-58760380D01*
X105401904Y-58808000D01*
X105354285Y-58855619D01*
X105306666Y-58950857D01*
X105306666Y-59046095D01*
X105354285Y-59188952D01*
X105925714Y-59760380D01*
X105306666Y-59760380D01*
X104687619Y-58760380D02*
X104592380Y-58760380D01*
X104497142Y-58808000D01*
X104449523Y-58855619D01*
X104401904Y-58950857D01*
X104354285Y-59141333D01*
X104354285Y-59379428D01*
X104401904Y-59569904D01*
X104449523Y-59665142D01*
X104497142Y-59712761D01*
X104592380Y-59760380D01*
X104687619Y-59760380D01*
X104782857Y-59712761D01*
X104830476Y-59665142D01*
X104878095Y-59569904D01*
X104925714Y-59379428D01*
X104925714Y-59141333D01*
X104878095Y-58950857D01*
X104830476Y-58855619D01*
X104782857Y-58808000D01*
X104687619Y-58760380D01*
X103401904Y-59760380D02*
X103973333Y-59760380D01*
X103687619Y-59760380D02*
X103687619Y-58760380D01*
X103782857Y-58903238D01*
X103878095Y-58998476D01*
X103973333Y-59046095D01*
%TO.C,R202*%
X109544380Y-52728952D02*
X109068190Y-52395619D01*
X109544380Y-52157523D02*
X108544380Y-52157523D01*
X108544380Y-52538476D01*
X108592000Y-52633714D01*
X108639619Y-52681333D01*
X108734857Y-52728952D01*
X108877714Y-52728952D01*
X108972952Y-52681333D01*
X109020571Y-52633714D01*
X109068190Y-52538476D01*
X109068190Y-52157523D01*
X108639619Y-53109904D02*
X108592000Y-53157523D01*
X108544380Y-53252761D01*
X108544380Y-53490857D01*
X108592000Y-53586095D01*
X108639619Y-53633714D01*
X108734857Y-53681333D01*
X108830095Y-53681333D01*
X108972952Y-53633714D01*
X109544380Y-53062285D01*
X109544380Y-53681333D01*
X108544380Y-54300380D02*
X108544380Y-54395619D01*
X108592000Y-54490857D01*
X108639619Y-54538476D01*
X108734857Y-54586095D01*
X108925333Y-54633714D01*
X109163428Y-54633714D01*
X109353904Y-54586095D01*
X109449142Y-54538476D01*
X109496761Y-54490857D01*
X109544380Y-54395619D01*
X109544380Y-54300380D01*
X109496761Y-54205142D01*
X109449142Y-54157523D01*
X109353904Y-54109904D01*
X109163428Y-54062285D01*
X108925333Y-54062285D01*
X108734857Y-54109904D01*
X108639619Y-54157523D01*
X108592000Y-54205142D01*
X108544380Y-54300380D01*
X108639619Y-55014666D02*
X108592000Y-55062285D01*
X108544380Y-55157523D01*
X108544380Y-55395619D01*
X108592000Y-55490857D01*
X108639619Y-55538476D01*
X108734857Y-55586095D01*
X108830095Y-55586095D01*
X108972952Y-55538476D01*
X109544380Y-54967047D01*
X109544380Y-55586095D01*
%TO.C,R203*%
X74874380Y-55268952D02*
X74398190Y-54935619D01*
X74874380Y-54697523D02*
X73874380Y-54697523D01*
X73874380Y-55078476D01*
X73922000Y-55173714D01*
X73969619Y-55221333D01*
X74064857Y-55268952D01*
X74207714Y-55268952D01*
X74302952Y-55221333D01*
X74350571Y-55173714D01*
X74398190Y-55078476D01*
X74398190Y-54697523D01*
X73969619Y-55649904D02*
X73922000Y-55697523D01*
X73874380Y-55792761D01*
X73874380Y-56030857D01*
X73922000Y-56126095D01*
X73969619Y-56173714D01*
X74064857Y-56221333D01*
X74160095Y-56221333D01*
X74302952Y-56173714D01*
X74874380Y-55602285D01*
X74874380Y-56221333D01*
X73874380Y-56840380D02*
X73874380Y-56935619D01*
X73922000Y-57030857D01*
X73969619Y-57078476D01*
X74064857Y-57126095D01*
X74255333Y-57173714D01*
X74493428Y-57173714D01*
X74683904Y-57126095D01*
X74779142Y-57078476D01*
X74826761Y-57030857D01*
X74874380Y-56935619D01*
X74874380Y-56840380D01*
X74826761Y-56745142D01*
X74779142Y-56697523D01*
X74683904Y-56649904D01*
X74493428Y-56602285D01*
X74255333Y-56602285D01*
X74064857Y-56649904D01*
X73969619Y-56697523D01*
X73922000Y-56745142D01*
X73874380Y-56840380D01*
X73874380Y-57507047D02*
X73874380Y-58126095D01*
X74255333Y-57792761D01*
X74255333Y-57935619D01*
X74302952Y-58030857D01*
X74350571Y-58078476D01*
X74445809Y-58126095D01*
X74683904Y-58126095D01*
X74779142Y-58078476D01*
X74826761Y-58030857D01*
X74874380Y-57935619D01*
X74874380Y-57649904D01*
X74826761Y-57554666D01*
X74779142Y-57507047D01*
%TO.C,R205*%
X102814380Y-61364952D02*
X102338190Y-61031619D01*
X102814380Y-60793523D02*
X101814380Y-60793523D01*
X101814380Y-61174476D01*
X101862000Y-61269714D01*
X101909619Y-61317333D01*
X102004857Y-61364952D01*
X102147714Y-61364952D01*
X102242952Y-61317333D01*
X102290571Y-61269714D01*
X102338190Y-61174476D01*
X102338190Y-60793523D01*
X101909619Y-61745904D02*
X101862000Y-61793523D01*
X101814380Y-61888761D01*
X101814380Y-62126857D01*
X101862000Y-62222095D01*
X101909619Y-62269714D01*
X102004857Y-62317333D01*
X102100095Y-62317333D01*
X102242952Y-62269714D01*
X102814380Y-61698285D01*
X102814380Y-62317333D01*
X101814380Y-62936380D02*
X101814380Y-63031619D01*
X101862000Y-63126857D01*
X101909619Y-63174476D01*
X102004857Y-63222095D01*
X102195333Y-63269714D01*
X102433428Y-63269714D01*
X102623904Y-63222095D01*
X102719142Y-63174476D01*
X102766761Y-63126857D01*
X102814380Y-63031619D01*
X102814380Y-62936380D01*
X102766761Y-62841142D01*
X102719142Y-62793523D01*
X102623904Y-62745904D01*
X102433428Y-62698285D01*
X102195333Y-62698285D01*
X102004857Y-62745904D01*
X101909619Y-62793523D01*
X101862000Y-62841142D01*
X101814380Y-62936380D01*
X101814380Y-64174476D02*
X101814380Y-63698285D01*
X102290571Y-63650666D01*
X102242952Y-63698285D01*
X102195333Y-63793523D01*
X102195333Y-64031619D01*
X102242952Y-64126857D01*
X102290571Y-64174476D01*
X102385809Y-64222095D01*
X102623904Y-64222095D01*
X102719142Y-64174476D01*
X102766761Y-64126857D01*
X102814380Y-64031619D01*
X102814380Y-63793523D01*
X102766761Y-63698285D01*
X102719142Y-63650666D01*
%TO.C,R206*%
X76144380Y-43076952D02*
X75668190Y-42743619D01*
X76144380Y-42505523D02*
X75144380Y-42505523D01*
X75144380Y-42886476D01*
X75192000Y-42981714D01*
X75239619Y-43029333D01*
X75334857Y-43076952D01*
X75477714Y-43076952D01*
X75572952Y-43029333D01*
X75620571Y-42981714D01*
X75668190Y-42886476D01*
X75668190Y-42505523D01*
X75239619Y-43457904D02*
X75192000Y-43505523D01*
X75144380Y-43600761D01*
X75144380Y-43838857D01*
X75192000Y-43934095D01*
X75239619Y-43981714D01*
X75334857Y-44029333D01*
X75430095Y-44029333D01*
X75572952Y-43981714D01*
X76144380Y-43410285D01*
X76144380Y-44029333D01*
X75144380Y-44648380D02*
X75144380Y-44743619D01*
X75192000Y-44838857D01*
X75239619Y-44886476D01*
X75334857Y-44934095D01*
X75525333Y-44981714D01*
X75763428Y-44981714D01*
X75953904Y-44934095D01*
X76049142Y-44886476D01*
X76096761Y-44838857D01*
X76144380Y-44743619D01*
X76144380Y-44648380D01*
X76096761Y-44553142D01*
X76049142Y-44505523D01*
X75953904Y-44457904D01*
X75763428Y-44410285D01*
X75525333Y-44410285D01*
X75334857Y-44457904D01*
X75239619Y-44505523D01*
X75192000Y-44553142D01*
X75144380Y-44648380D01*
X75144380Y-45838857D02*
X75144380Y-45648380D01*
X75192000Y-45553142D01*
X75239619Y-45505523D01*
X75382476Y-45410285D01*
X75572952Y-45362666D01*
X75953904Y-45362666D01*
X76049142Y-45410285D01*
X76096761Y-45457904D01*
X76144380Y-45553142D01*
X76144380Y-45743619D01*
X76096761Y-45838857D01*
X76049142Y-45886476D01*
X75953904Y-45934095D01*
X75715809Y-45934095D01*
X75620571Y-45886476D01*
X75572952Y-45838857D01*
X75525333Y-45743619D01*
X75525333Y-45553142D01*
X75572952Y-45457904D01*
X75620571Y-45410285D01*
X75715809Y-45362666D01*
%TO.C,R207*%
X100274380Y-60856952D02*
X99798190Y-60523619D01*
X100274380Y-60285523D02*
X99274380Y-60285523D01*
X99274380Y-60666476D01*
X99322000Y-60761714D01*
X99369619Y-60809333D01*
X99464857Y-60856952D01*
X99607714Y-60856952D01*
X99702952Y-60809333D01*
X99750571Y-60761714D01*
X99798190Y-60666476D01*
X99798190Y-60285523D01*
X99369619Y-61237904D02*
X99322000Y-61285523D01*
X99274380Y-61380761D01*
X99274380Y-61618857D01*
X99322000Y-61714095D01*
X99369619Y-61761714D01*
X99464857Y-61809333D01*
X99560095Y-61809333D01*
X99702952Y-61761714D01*
X100274380Y-61190285D01*
X100274380Y-61809333D01*
X99274380Y-62428380D02*
X99274380Y-62523619D01*
X99322000Y-62618857D01*
X99369619Y-62666476D01*
X99464857Y-62714095D01*
X99655333Y-62761714D01*
X99893428Y-62761714D01*
X100083904Y-62714095D01*
X100179142Y-62666476D01*
X100226761Y-62618857D01*
X100274380Y-62523619D01*
X100274380Y-62428380D01*
X100226761Y-62333142D01*
X100179142Y-62285523D01*
X100083904Y-62237904D01*
X99893428Y-62190285D01*
X99655333Y-62190285D01*
X99464857Y-62237904D01*
X99369619Y-62285523D01*
X99322000Y-62333142D01*
X99274380Y-62428380D01*
X99274380Y-63095047D02*
X99274380Y-63761714D01*
X100274380Y-63333142D01*
%TO.C,R208*%
X92575047Y-61538380D02*
X92908380Y-61062190D01*
X93146476Y-61538380D02*
X93146476Y-60538380D01*
X92765523Y-60538380D01*
X92670285Y-60586000D01*
X92622666Y-60633619D01*
X92575047Y-60728857D01*
X92575047Y-60871714D01*
X92622666Y-60966952D01*
X92670285Y-61014571D01*
X92765523Y-61062190D01*
X93146476Y-61062190D01*
X92194095Y-60633619D02*
X92146476Y-60586000D01*
X92051238Y-60538380D01*
X91813142Y-60538380D01*
X91717904Y-60586000D01*
X91670285Y-60633619D01*
X91622666Y-60728857D01*
X91622666Y-60824095D01*
X91670285Y-60966952D01*
X92241714Y-61538380D01*
X91622666Y-61538380D01*
X91003619Y-60538380D02*
X90908380Y-60538380D01*
X90813142Y-60586000D01*
X90765523Y-60633619D01*
X90717904Y-60728857D01*
X90670285Y-60919333D01*
X90670285Y-61157428D01*
X90717904Y-61347904D01*
X90765523Y-61443142D01*
X90813142Y-61490761D01*
X90908380Y-61538380D01*
X91003619Y-61538380D01*
X91098857Y-61490761D01*
X91146476Y-61443142D01*
X91194095Y-61347904D01*
X91241714Y-61157428D01*
X91241714Y-60919333D01*
X91194095Y-60728857D01*
X91146476Y-60633619D01*
X91098857Y-60586000D01*
X91003619Y-60538380D01*
X90098857Y-60966952D02*
X90194095Y-60919333D01*
X90241714Y-60871714D01*
X90289333Y-60776476D01*
X90289333Y-60728857D01*
X90241714Y-60633619D01*
X90194095Y-60586000D01*
X90098857Y-60538380D01*
X89908380Y-60538380D01*
X89813142Y-60586000D01*
X89765523Y-60633619D01*
X89717904Y-60728857D01*
X89717904Y-60776476D01*
X89765523Y-60871714D01*
X89813142Y-60919333D01*
X89908380Y-60966952D01*
X90098857Y-60966952D01*
X90194095Y-61014571D01*
X90241714Y-61062190D01*
X90289333Y-61157428D01*
X90289333Y-61347904D01*
X90241714Y-61443142D01*
X90194095Y-61490761D01*
X90098857Y-61538380D01*
X89908380Y-61538380D01*
X89813142Y-61490761D01*
X89765523Y-61443142D01*
X89717904Y-61347904D01*
X89717904Y-61157428D01*
X89765523Y-61062190D01*
X89813142Y-61014571D01*
X89908380Y-60966952D01*
%TO.C,R209*%
X95194380Y-60856952D02*
X94718190Y-60523619D01*
X95194380Y-60285523D02*
X94194380Y-60285523D01*
X94194380Y-60666476D01*
X94242000Y-60761714D01*
X94289619Y-60809333D01*
X94384857Y-60856952D01*
X94527714Y-60856952D01*
X94622952Y-60809333D01*
X94670571Y-60761714D01*
X94718190Y-60666476D01*
X94718190Y-60285523D01*
X94289619Y-61237904D02*
X94242000Y-61285523D01*
X94194380Y-61380761D01*
X94194380Y-61618857D01*
X94242000Y-61714095D01*
X94289619Y-61761714D01*
X94384857Y-61809333D01*
X94480095Y-61809333D01*
X94622952Y-61761714D01*
X95194380Y-61190285D01*
X95194380Y-61809333D01*
X94194380Y-62428380D02*
X94194380Y-62523619D01*
X94242000Y-62618857D01*
X94289619Y-62666476D01*
X94384857Y-62714095D01*
X94575333Y-62761714D01*
X94813428Y-62761714D01*
X95003904Y-62714095D01*
X95099142Y-62666476D01*
X95146761Y-62618857D01*
X95194380Y-62523619D01*
X95194380Y-62428380D01*
X95146761Y-62333142D01*
X95099142Y-62285523D01*
X95003904Y-62237904D01*
X94813428Y-62190285D01*
X94575333Y-62190285D01*
X94384857Y-62237904D01*
X94289619Y-62285523D01*
X94242000Y-62333142D01*
X94194380Y-62428380D01*
X95194380Y-63237904D02*
X95194380Y-63428380D01*
X95146761Y-63523619D01*
X95099142Y-63571238D01*
X94956285Y-63666476D01*
X94765809Y-63714095D01*
X94384857Y-63714095D01*
X94289619Y-63666476D01*
X94242000Y-63618857D01*
X94194380Y-63523619D01*
X94194380Y-63333142D01*
X94242000Y-63237904D01*
X94289619Y-63190285D01*
X94384857Y-63142666D01*
X94622952Y-63142666D01*
X94718190Y-63190285D01*
X94765809Y-63237904D01*
X94813428Y-63333142D01*
X94813428Y-63523619D01*
X94765809Y-63618857D01*
X94718190Y-63666476D01*
X94622952Y-63714095D01*
%TO.C,R210*%
X68142380Y-55284952D02*
X67666190Y-54951619D01*
X68142380Y-54713523D02*
X67142380Y-54713523D01*
X67142380Y-55094476D01*
X67190000Y-55189714D01*
X67237619Y-55237333D01*
X67332857Y-55284952D01*
X67475714Y-55284952D01*
X67570952Y-55237333D01*
X67618571Y-55189714D01*
X67666190Y-55094476D01*
X67666190Y-54713523D01*
X67237619Y-55665904D02*
X67190000Y-55713523D01*
X67142380Y-55808761D01*
X67142380Y-56046857D01*
X67190000Y-56142095D01*
X67237619Y-56189714D01*
X67332857Y-56237333D01*
X67428095Y-56237333D01*
X67570952Y-56189714D01*
X68142380Y-55618285D01*
X68142380Y-56237333D01*
X68142380Y-57189714D02*
X68142380Y-56618285D01*
X68142380Y-56904000D02*
X67142380Y-56904000D01*
X67285238Y-56808761D01*
X67380476Y-56713523D01*
X67428095Y-56618285D01*
X67142380Y-57808761D02*
X67142380Y-57904000D01*
X67190000Y-57999238D01*
X67237619Y-58046857D01*
X67332857Y-58094476D01*
X67523333Y-58142095D01*
X67761428Y-58142095D01*
X67951904Y-58094476D01*
X68047142Y-58046857D01*
X68094761Y-57999238D01*
X68142380Y-57904000D01*
X68142380Y-57808761D01*
X68094761Y-57713523D01*
X68047142Y-57665904D01*
X67951904Y-57618285D01*
X67761428Y-57570666D01*
X67523333Y-57570666D01*
X67332857Y-57618285D01*
X67237619Y-57665904D01*
X67190000Y-57713523D01*
X67142380Y-57808761D01*
%TO.C,R212*%
X92067047Y-51380380D02*
X92400380Y-50904190D01*
X92638476Y-51380380D02*
X92638476Y-50380380D01*
X92257523Y-50380380D01*
X92162285Y-50428000D01*
X92114666Y-50475619D01*
X92067047Y-50570857D01*
X92067047Y-50713714D01*
X92114666Y-50808952D01*
X92162285Y-50856571D01*
X92257523Y-50904190D01*
X92638476Y-50904190D01*
X91686095Y-50475619D02*
X91638476Y-50428000D01*
X91543238Y-50380380D01*
X91305142Y-50380380D01*
X91209904Y-50428000D01*
X91162285Y-50475619D01*
X91114666Y-50570857D01*
X91114666Y-50666095D01*
X91162285Y-50808952D01*
X91733714Y-51380380D01*
X91114666Y-51380380D01*
X90162285Y-51380380D02*
X90733714Y-51380380D01*
X90448000Y-51380380D02*
X90448000Y-50380380D01*
X90543238Y-50523238D01*
X90638476Y-50618476D01*
X90733714Y-50666095D01*
X89781333Y-50475619D02*
X89733714Y-50428000D01*
X89638476Y-50380380D01*
X89400380Y-50380380D01*
X89305142Y-50428000D01*
X89257523Y-50475619D01*
X89209904Y-50570857D01*
X89209904Y-50666095D01*
X89257523Y-50808952D01*
X89828952Y-51380380D01*
X89209904Y-51380380D01*
%TO.C,R213*%
X88241047Y-57856380D02*
X88574380Y-57380190D01*
X88812476Y-57856380D02*
X88812476Y-56856380D01*
X88431523Y-56856380D01*
X88336285Y-56904000D01*
X88288666Y-56951619D01*
X88241047Y-57046857D01*
X88241047Y-57189714D01*
X88288666Y-57284952D01*
X88336285Y-57332571D01*
X88431523Y-57380190D01*
X88812476Y-57380190D01*
X87860095Y-56951619D02*
X87812476Y-56904000D01*
X87717238Y-56856380D01*
X87479142Y-56856380D01*
X87383904Y-56904000D01*
X87336285Y-56951619D01*
X87288666Y-57046857D01*
X87288666Y-57142095D01*
X87336285Y-57284952D01*
X87907714Y-57856380D01*
X87288666Y-57856380D01*
X86336285Y-57856380D02*
X86907714Y-57856380D01*
X86622000Y-57856380D02*
X86622000Y-56856380D01*
X86717238Y-56999238D01*
X86812476Y-57094476D01*
X86907714Y-57142095D01*
X86002952Y-56856380D02*
X85383904Y-56856380D01*
X85717238Y-57237333D01*
X85574380Y-57237333D01*
X85479142Y-57284952D01*
X85431523Y-57332571D01*
X85383904Y-57427809D01*
X85383904Y-57665904D01*
X85431523Y-57761142D01*
X85479142Y-57808761D01*
X85574380Y-57856380D01*
X85860095Y-57856380D01*
X85955333Y-57808761D01*
X86002952Y-57761142D01*
%TO.C,R215*%
X96877047Y-43124380D02*
X97210380Y-42648190D01*
X97448476Y-43124380D02*
X97448476Y-42124380D01*
X97067523Y-42124380D01*
X96972285Y-42172000D01*
X96924666Y-42219619D01*
X96877047Y-42314857D01*
X96877047Y-42457714D01*
X96924666Y-42552952D01*
X96972285Y-42600571D01*
X97067523Y-42648190D01*
X97448476Y-42648190D01*
X96496095Y-42219619D02*
X96448476Y-42172000D01*
X96353238Y-42124380D01*
X96115142Y-42124380D01*
X96019904Y-42172000D01*
X95972285Y-42219619D01*
X95924666Y-42314857D01*
X95924666Y-42410095D01*
X95972285Y-42552952D01*
X96543714Y-43124380D01*
X95924666Y-43124380D01*
X94972285Y-43124380D02*
X95543714Y-43124380D01*
X95258000Y-43124380D02*
X95258000Y-42124380D01*
X95353238Y-42267238D01*
X95448476Y-42362476D01*
X95543714Y-42410095D01*
X94067523Y-42124380D02*
X94543714Y-42124380D01*
X94591333Y-42600571D01*
X94543714Y-42552952D01*
X94448476Y-42505333D01*
X94210380Y-42505333D01*
X94115142Y-42552952D01*
X94067523Y-42600571D01*
X94019904Y-42695809D01*
X94019904Y-42933904D01*
X94067523Y-43029142D01*
X94115142Y-43076761D01*
X94210380Y-43124380D01*
X94448476Y-43124380D01*
X94543714Y-43076761D01*
X94591333Y-43029142D01*
%TO.C,R217*%
X120212380Y-44870952D02*
X119736190Y-44537619D01*
X120212380Y-44299523D02*
X119212380Y-44299523D01*
X119212380Y-44680476D01*
X119260000Y-44775714D01*
X119307619Y-44823333D01*
X119402857Y-44870952D01*
X119545714Y-44870952D01*
X119640952Y-44823333D01*
X119688571Y-44775714D01*
X119736190Y-44680476D01*
X119736190Y-44299523D01*
X119307619Y-45251904D02*
X119260000Y-45299523D01*
X119212380Y-45394761D01*
X119212380Y-45632857D01*
X119260000Y-45728095D01*
X119307619Y-45775714D01*
X119402857Y-45823333D01*
X119498095Y-45823333D01*
X119640952Y-45775714D01*
X120212380Y-45204285D01*
X120212380Y-45823333D01*
X120212380Y-46775714D02*
X120212380Y-46204285D01*
X120212380Y-46490000D02*
X119212380Y-46490000D01*
X119355238Y-46394761D01*
X119450476Y-46299523D01*
X119498095Y-46204285D01*
X119212380Y-47109047D02*
X119212380Y-47775714D01*
X120212380Y-47347142D01*
%TO.C,R218*%
X88241047Y-43632380D02*
X88574380Y-43156190D01*
X88812476Y-43632380D02*
X88812476Y-42632380D01*
X88431523Y-42632380D01*
X88336285Y-42680000D01*
X88288666Y-42727619D01*
X88241047Y-42822857D01*
X88241047Y-42965714D01*
X88288666Y-43060952D01*
X88336285Y-43108571D01*
X88431523Y-43156190D01*
X88812476Y-43156190D01*
X87860095Y-42727619D02*
X87812476Y-42680000D01*
X87717238Y-42632380D01*
X87479142Y-42632380D01*
X87383904Y-42680000D01*
X87336285Y-42727619D01*
X87288666Y-42822857D01*
X87288666Y-42918095D01*
X87336285Y-43060952D01*
X87907714Y-43632380D01*
X87288666Y-43632380D01*
X86336285Y-43632380D02*
X86907714Y-43632380D01*
X86622000Y-43632380D02*
X86622000Y-42632380D01*
X86717238Y-42775238D01*
X86812476Y-42870476D01*
X86907714Y-42918095D01*
X85764857Y-43060952D02*
X85860095Y-43013333D01*
X85907714Y-42965714D01*
X85955333Y-42870476D01*
X85955333Y-42822857D01*
X85907714Y-42727619D01*
X85860095Y-42680000D01*
X85764857Y-42632380D01*
X85574380Y-42632380D01*
X85479142Y-42680000D01*
X85431523Y-42727619D01*
X85383904Y-42822857D01*
X85383904Y-42870476D01*
X85431523Y-42965714D01*
X85479142Y-43013333D01*
X85574380Y-43060952D01*
X85764857Y-43060952D01*
X85860095Y-43108571D01*
X85907714Y-43156190D01*
X85955333Y-43251428D01*
X85955333Y-43441904D01*
X85907714Y-43537142D01*
X85860095Y-43584761D01*
X85764857Y-43632380D01*
X85574380Y-43632380D01*
X85479142Y-43584761D01*
X85431523Y-43537142D01*
X85383904Y-43441904D01*
X85383904Y-43251428D01*
X85431523Y-43156190D01*
X85479142Y-43108571D01*
X85574380Y-43060952D01*
%TO.C,R219*%
X114372380Y-44870952D02*
X113896190Y-44537619D01*
X114372380Y-44299523D02*
X113372380Y-44299523D01*
X113372380Y-44680476D01*
X113420000Y-44775714D01*
X113467619Y-44823333D01*
X113562857Y-44870952D01*
X113705714Y-44870952D01*
X113800952Y-44823333D01*
X113848571Y-44775714D01*
X113896190Y-44680476D01*
X113896190Y-44299523D01*
X113467619Y-45251904D02*
X113420000Y-45299523D01*
X113372380Y-45394761D01*
X113372380Y-45632857D01*
X113420000Y-45728095D01*
X113467619Y-45775714D01*
X113562857Y-45823333D01*
X113658095Y-45823333D01*
X113800952Y-45775714D01*
X114372380Y-45204285D01*
X114372380Y-45823333D01*
X114372380Y-46775714D02*
X114372380Y-46204285D01*
X114372380Y-46490000D02*
X113372380Y-46490000D01*
X113515238Y-46394761D01*
X113610476Y-46299523D01*
X113658095Y-46204285D01*
X114372380Y-47251904D02*
X114372380Y-47442380D01*
X114324761Y-47537619D01*
X114277142Y-47585238D01*
X114134285Y-47680476D01*
X113943809Y-47728095D01*
X113562857Y-47728095D01*
X113467619Y-47680476D01*
X113420000Y-47632857D01*
X113372380Y-47537619D01*
X113372380Y-47347142D01*
X113420000Y-47251904D01*
X113467619Y-47204285D01*
X113562857Y-47156666D01*
X113800952Y-47156666D01*
X113896190Y-47204285D01*
X113943809Y-47251904D01*
X113991428Y-47347142D01*
X113991428Y-47537619D01*
X113943809Y-47632857D01*
X113896190Y-47680476D01*
X113800952Y-47728095D01*
%TO.C,R220*%
X120212380Y-51474952D02*
X119736190Y-51141619D01*
X120212380Y-50903523D02*
X119212380Y-50903523D01*
X119212380Y-51284476D01*
X119260000Y-51379714D01*
X119307619Y-51427333D01*
X119402857Y-51474952D01*
X119545714Y-51474952D01*
X119640952Y-51427333D01*
X119688571Y-51379714D01*
X119736190Y-51284476D01*
X119736190Y-50903523D01*
X119307619Y-51855904D02*
X119260000Y-51903523D01*
X119212380Y-51998761D01*
X119212380Y-52236857D01*
X119260000Y-52332095D01*
X119307619Y-52379714D01*
X119402857Y-52427333D01*
X119498095Y-52427333D01*
X119640952Y-52379714D01*
X120212380Y-51808285D01*
X120212380Y-52427333D01*
X119307619Y-52808285D02*
X119260000Y-52855904D01*
X119212380Y-52951142D01*
X119212380Y-53189238D01*
X119260000Y-53284476D01*
X119307619Y-53332095D01*
X119402857Y-53379714D01*
X119498095Y-53379714D01*
X119640952Y-53332095D01*
X120212380Y-52760666D01*
X120212380Y-53379714D01*
X119212380Y-53998761D02*
X119212380Y-54094000D01*
X119260000Y-54189238D01*
X119307619Y-54236857D01*
X119402857Y-54284476D01*
X119593333Y-54332095D01*
X119831428Y-54332095D01*
X120021904Y-54284476D01*
X120117142Y-54236857D01*
X120164761Y-54189238D01*
X120212380Y-54094000D01*
X120212380Y-53998761D01*
X120164761Y-53903523D01*
X120117142Y-53855904D01*
X120021904Y-53808285D01*
X119831428Y-53760666D01*
X119593333Y-53760666D01*
X119402857Y-53808285D01*
X119307619Y-53855904D01*
X119260000Y-53903523D01*
X119212380Y-53998761D01*
%TO.C,R221*%
X67380380Y-44600952D02*
X66904190Y-44267619D01*
X67380380Y-44029523D02*
X66380380Y-44029523D01*
X66380380Y-44410476D01*
X66428000Y-44505714D01*
X66475619Y-44553333D01*
X66570857Y-44600952D01*
X66713714Y-44600952D01*
X66808952Y-44553333D01*
X66856571Y-44505714D01*
X66904190Y-44410476D01*
X66904190Y-44029523D01*
X66475619Y-44981904D02*
X66428000Y-45029523D01*
X66380380Y-45124761D01*
X66380380Y-45362857D01*
X66428000Y-45458095D01*
X66475619Y-45505714D01*
X66570857Y-45553333D01*
X66666095Y-45553333D01*
X66808952Y-45505714D01*
X67380380Y-44934285D01*
X67380380Y-45553333D01*
X66475619Y-45934285D02*
X66428000Y-45981904D01*
X66380380Y-46077142D01*
X66380380Y-46315238D01*
X66428000Y-46410476D01*
X66475619Y-46458095D01*
X66570857Y-46505714D01*
X66666095Y-46505714D01*
X66808952Y-46458095D01*
X67380380Y-45886666D01*
X67380380Y-46505714D01*
X67380380Y-47458095D02*
X67380380Y-46886666D01*
X67380380Y-47172380D02*
X66380380Y-47172380D01*
X66523238Y-47077142D01*
X66618476Y-46981904D01*
X66666095Y-46886666D01*
%TO.C,R222*%
X67254380Y-49680952D02*
X66778190Y-49347619D01*
X67254380Y-49109523D02*
X66254380Y-49109523D01*
X66254380Y-49490476D01*
X66302000Y-49585714D01*
X66349619Y-49633333D01*
X66444857Y-49680952D01*
X66587714Y-49680952D01*
X66682952Y-49633333D01*
X66730571Y-49585714D01*
X66778190Y-49490476D01*
X66778190Y-49109523D01*
X66349619Y-50061904D02*
X66302000Y-50109523D01*
X66254380Y-50204761D01*
X66254380Y-50442857D01*
X66302000Y-50538095D01*
X66349619Y-50585714D01*
X66444857Y-50633333D01*
X66540095Y-50633333D01*
X66682952Y-50585714D01*
X67254380Y-50014285D01*
X67254380Y-50633333D01*
X66349619Y-51014285D02*
X66302000Y-51061904D01*
X66254380Y-51157142D01*
X66254380Y-51395238D01*
X66302000Y-51490476D01*
X66349619Y-51538095D01*
X66444857Y-51585714D01*
X66540095Y-51585714D01*
X66682952Y-51538095D01*
X67254380Y-50966666D01*
X67254380Y-51585714D01*
X66349619Y-51966666D02*
X66302000Y-52014285D01*
X66254380Y-52109523D01*
X66254380Y-52347619D01*
X66302000Y-52442857D01*
X66349619Y-52490476D01*
X66444857Y-52538095D01*
X66540095Y-52538095D01*
X66682952Y-52490476D01*
X67254380Y-51919047D01*
X67254380Y-52538095D01*
%TO.C,R301*%
X103830380Y-85748952D02*
X103354190Y-85415619D01*
X103830380Y-85177523D02*
X102830380Y-85177523D01*
X102830380Y-85558476D01*
X102878000Y-85653714D01*
X102925619Y-85701333D01*
X103020857Y-85748952D01*
X103163714Y-85748952D01*
X103258952Y-85701333D01*
X103306571Y-85653714D01*
X103354190Y-85558476D01*
X103354190Y-85177523D01*
X102830380Y-86082285D02*
X102830380Y-86701333D01*
X103211333Y-86368000D01*
X103211333Y-86510857D01*
X103258952Y-86606095D01*
X103306571Y-86653714D01*
X103401809Y-86701333D01*
X103639904Y-86701333D01*
X103735142Y-86653714D01*
X103782761Y-86606095D01*
X103830380Y-86510857D01*
X103830380Y-86225142D01*
X103782761Y-86129904D01*
X103735142Y-86082285D01*
X102830380Y-87320380D02*
X102830380Y-87415619D01*
X102878000Y-87510857D01*
X102925619Y-87558476D01*
X103020857Y-87606095D01*
X103211333Y-87653714D01*
X103449428Y-87653714D01*
X103639904Y-87606095D01*
X103735142Y-87558476D01*
X103782761Y-87510857D01*
X103830380Y-87415619D01*
X103830380Y-87320380D01*
X103782761Y-87225142D01*
X103735142Y-87177523D01*
X103639904Y-87129904D01*
X103449428Y-87082285D01*
X103211333Y-87082285D01*
X103020857Y-87129904D01*
X102925619Y-87177523D01*
X102878000Y-87225142D01*
X102830380Y-87320380D01*
X103830380Y-88606095D02*
X103830380Y-88034666D01*
X103830380Y-88320380D02*
X102830380Y-88320380D01*
X102973238Y-88225142D01*
X103068476Y-88129904D01*
X103116095Y-88034666D01*
%TO.C,R302*%
X108561047Y-78684380D02*
X108894380Y-78208190D01*
X109132476Y-78684380D02*
X109132476Y-77684380D01*
X108751523Y-77684380D01*
X108656285Y-77732000D01*
X108608666Y-77779619D01*
X108561047Y-77874857D01*
X108561047Y-78017714D01*
X108608666Y-78112952D01*
X108656285Y-78160571D01*
X108751523Y-78208190D01*
X109132476Y-78208190D01*
X108227714Y-77684380D02*
X107608666Y-77684380D01*
X107942000Y-78065333D01*
X107799142Y-78065333D01*
X107703904Y-78112952D01*
X107656285Y-78160571D01*
X107608666Y-78255809D01*
X107608666Y-78493904D01*
X107656285Y-78589142D01*
X107703904Y-78636761D01*
X107799142Y-78684380D01*
X108084857Y-78684380D01*
X108180095Y-78636761D01*
X108227714Y-78589142D01*
X106989619Y-77684380D02*
X106894380Y-77684380D01*
X106799142Y-77732000D01*
X106751523Y-77779619D01*
X106703904Y-77874857D01*
X106656285Y-78065333D01*
X106656285Y-78303428D01*
X106703904Y-78493904D01*
X106751523Y-78589142D01*
X106799142Y-78636761D01*
X106894380Y-78684380D01*
X106989619Y-78684380D01*
X107084857Y-78636761D01*
X107132476Y-78589142D01*
X107180095Y-78493904D01*
X107227714Y-78303428D01*
X107227714Y-78065333D01*
X107180095Y-77874857D01*
X107132476Y-77779619D01*
X107084857Y-77732000D01*
X106989619Y-77684380D01*
X106275333Y-77779619D02*
X106227714Y-77732000D01*
X106132476Y-77684380D01*
X105894380Y-77684380D01*
X105799142Y-77732000D01*
X105751523Y-77779619D01*
X105703904Y-77874857D01*
X105703904Y-77970095D01*
X105751523Y-78112952D01*
X106322952Y-78684380D01*
X105703904Y-78684380D01*
%TO.C,R303*%
X74366380Y-79144952D02*
X73890190Y-78811619D01*
X74366380Y-78573523D02*
X73366380Y-78573523D01*
X73366380Y-78954476D01*
X73414000Y-79049714D01*
X73461619Y-79097333D01*
X73556857Y-79144952D01*
X73699714Y-79144952D01*
X73794952Y-79097333D01*
X73842571Y-79049714D01*
X73890190Y-78954476D01*
X73890190Y-78573523D01*
X73366380Y-79478285D02*
X73366380Y-80097333D01*
X73747333Y-79764000D01*
X73747333Y-79906857D01*
X73794952Y-80002095D01*
X73842571Y-80049714D01*
X73937809Y-80097333D01*
X74175904Y-80097333D01*
X74271142Y-80049714D01*
X74318761Y-80002095D01*
X74366380Y-79906857D01*
X74366380Y-79621142D01*
X74318761Y-79525904D01*
X74271142Y-79478285D01*
X73366380Y-80716380D02*
X73366380Y-80811619D01*
X73414000Y-80906857D01*
X73461619Y-80954476D01*
X73556857Y-81002095D01*
X73747333Y-81049714D01*
X73985428Y-81049714D01*
X74175904Y-81002095D01*
X74271142Y-80954476D01*
X74318761Y-80906857D01*
X74366380Y-80811619D01*
X74366380Y-80716380D01*
X74318761Y-80621142D01*
X74271142Y-80573523D01*
X74175904Y-80525904D01*
X73985428Y-80478285D01*
X73747333Y-80478285D01*
X73556857Y-80525904D01*
X73461619Y-80573523D01*
X73414000Y-80621142D01*
X73366380Y-80716380D01*
X73366380Y-81383047D02*
X73366380Y-82002095D01*
X73747333Y-81668761D01*
X73747333Y-81811619D01*
X73794952Y-81906857D01*
X73842571Y-81954476D01*
X73937809Y-82002095D01*
X74175904Y-82002095D01*
X74271142Y-81954476D01*
X74318761Y-81906857D01*
X74366380Y-81811619D01*
X74366380Y-81525904D01*
X74318761Y-81430666D01*
X74271142Y-81383047D01*
%TO.C,R305*%
X102052380Y-83716952D02*
X101576190Y-83383619D01*
X102052380Y-83145523D02*
X101052380Y-83145523D01*
X101052380Y-83526476D01*
X101100000Y-83621714D01*
X101147619Y-83669333D01*
X101242857Y-83716952D01*
X101385714Y-83716952D01*
X101480952Y-83669333D01*
X101528571Y-83621714D01*
X101576190Y-83526476D01*
X101576190Y-83145523D01*
X101052380Y-84050285D02*
X101052380Y-84669333D01*
X101433333Y-84336000D01*
X101433333Y-84478857D01*
X101480952Y-84574095D01*
X101528571Y-84621714D01*
X101623809Y-84669333D01*
X101861904Y-84669333D01*
X101957142Y-84621714D01*
X102004761Y-84574095D01*
X102052380Y-84478857D01*
X102052380Y-84193142D01*
X102004761Y-84097904D01*
X101957142Y-84050285D01*
X101052380Y-85288380D02*
X101052380Y-85383619D01*
X101100000Y-85478857D01*
X101147619Y-85526476D01*
X101242857Y-85574095D01*
X101433333Y-85621714D01*
X101671428Y-85621714D01*
X101861904Y-85574095D01*
X101957142Y-85526476D01*
X102004761Y-85478857D01*
X102052380Y-85383619D01*
X102052380Y-85288380D01*
X102004761Y-85193142D01*
X101957142Y-85145523D01*
X101861904Y-85097904D01*
X101671428Y-85050285D01*
X101433333Y-85050285D01*
X101242857Y-85097904D01*
X101147619Y-85145523D01*
X101100000Y-85193142D01*
X101052380Y-85288380D01*
X101052380Y-86526476D02*
X101052380Y-86050285D01*
X101528571Y-86002666D01*
X101480952Y-86050285D01*
X101433333Y-86145523D01*
X101433333Y-86383619D01*
X101480952Y-86478857D01*
X101528571Y-86526476D01*
X101623809Y-86574095D01*
X101861904Y-86574095D01*
X101957142Y-86526476D01*
X102004761Y-86478857D01*
X102052380Y-86383619D01*
X102052380Y-86145523D01*
X102004761Y-86050285D01*
X101957142Y-86002666D01*
%TO.C,R306*%
X78430380Y-69746952D02*
X77954190Y-69413619D01*
X78430380Y-69175523D02*
X77430380Y-69175523D01*
X77430380Y-69556476D01*
X77478000Y-69651714D01*
X77525619Y-69699333D01*
X77620857Y-69746952D01*
X77763714Y-69746952D01*
X77858952Y-69699333D01*
X77906571Y-69651714D01*
X77954190Y-69556476D01*
X77954190Y-69175523D01*
X77430380Y-70080285D02*
X77430380Y-70699333D01*
X77811333Y-70366000D01*
X77811333Y-70508857D01*
X77858952Y-70604095D01*
X77906571Y-70651714D01*
X78001809Y-70699333D01*
X78239904Y-70699333D01*
X78335142Y-70651714D01*
X78382761Y-70604095D01*
X78430380Y-70508857D01*
X78430380Y-70223142D01*
X78382761Y-70127904D01*
X78335142Y-70080285D01*
X77430380Y-71318380D02*
X77430380Y-71413619D01*
X77478000Y-71508857D01*
X77525619Y-71556476D01*
X77620857Y-71604095D01*
X77811333Y-71651714D01*
X78049428Y-71651714D01*
X78239904Y-71604095D01*
X78335142Y-71556476D01*
X78382761Y-71508857D01*
X78430380Y-71413619D01*
X78430380Y-71318380D01*
X78382761Y-71223142D01*
X78335142Y-71175523D01*
X78239904Y-71127904D01*
X78049428Y-71080285D01*
X77811333Y-71080285D01*
X77620857Y-71127904D01*
X77525619Y-71175523D01*
X77478000Y-71223142D01*
X77430380Y-71318380D01*
X77430380Y-72508857D02*
X77430380Y-72318380D01*
X77478000Y-72223142D01*
X77525619Y-72175523D01*
X77668476Y-72080285D01*
X77858952Y-72032666D01*
X78239904Y-72032666D01*
X78335142Y-72080285D01*
X78382761Y-72127904D01*
X78430380Y-72223142D01*
X78430380Y-72413619D01*
X78382761Y-72508857D01*
X78335142Y-72556476D01*
X78239904Y-72604095D01*
X78001809Y-72604095D01*
X77906571Y-72556476D01*
X77858952Y-72508857D01*
X77811333Y-72413619D01*
X77811333Y-72223142D01*
X77858952Y-72127904D01*
X77906571Y-72080285D01*
X78001809Y-72032666D01*
%TO.C,R307*%
X99766380Y-83716952D02*
X99290190Y-83383619D01*
X99766380Y-83145523D02*
X98766380Y-83145523D01*
X98766380Y-83526476D01*
X98814000Y-83621714D01*
X98861619Y-83669333D01*
X98956857Y-83716952D01*
X99099714Y-83716952D01*
X99194952Y-83669333D01*
X99242571Y-83621714D01*
X99290190Y-83526476D01*
X99290190Y-83145523D01*
X98766380Y-84050285D02*
X98766380Y-84669333D01*
X99147333Y-84336000D01*
X99147333Y-84478857D01*
X99194952Y-84574095D01*
X99242571Y-84621714D01*
X99337809Y-84669333D01*
X99575904Y-84669333D01*
X99671142Y-84621714D01*
X99718761Y-84574095D01*
X99766380Y-84478857D01*
X99766380Y-84193142D01*
X99718761Y-84097904D01*
X99671142Y-84050285D01*
X98766380Y-85288380D02*
X98766380Y-85383619D01*
X98814000Y-85478857D01*
X98861619Y-85526476D01*
X98956857Y-85574095D01*
X99147333Y-85621714D01*
X99385428Y-85621714D01*
X99575904Y-85574095D01*
X99671142Y-85526476D01*
X99718761Y-85478857D01*
X99766380Y-85383619D01*
X99766380Y-85288380D01*
X99718761Y-85193142D01*
X99671142Y-85145523D01*
X99575904Y-85097904D01*
X99385428Y-85050285D01*
X99147333Y-85050285D01*
X98956857Y-85097904D01*
X98861619Y-85145523D01*
X98814000Y-85193142D01*
X98766380Y-85288380D01*
X98766380Y-85955047D02*
X98766380Y-86621714D01*
X99766380Y-86193142D01*
%TO.C,R308*%
X91543047Y-84144380D02*
X91876380Y-83668190D01*
X92114476Y-84144380D02*
X92114476Y-83144380D01*
X91733523Y-83144380D01*
X91638285Y-83192000D01*
X91590666Y-83239619D01*
X91543047Y-83334857D01*
X91543047Y-83477714D01*
X91590666Y-83572952D01*
X91638285Y-83620571D01*
X91733523Y-83668190D01*
X92114476Y-83668190D01*
X91209714Y-83144380D02*
X90590666Y-83144380D01*
X90924000Y-83525333D01*
X90781142Y-83525333D01*
X90685904Y-83572952D01*
X90638285Y-83620571D01*
X90590666Y-83715809D01*
X90590666Y-83953904D01*
X90638285Y-84049142D01*
X90685904Y-84096761D01*
X90781142Y-84144380D01*
X91066857Y-84144380D01*
X91162095Y-84096761D01*
X91209714Y-84049142D01*
X89971619Y-83144380D02*
X89876380Y-83144380D01*
X89781142Y-83192000D01*
X89733523Y-83239619D01*
X89685904Y-83334857D01*
X89638285Y-83525333D01*
X89638285Y-83763428D01*
X89685904Y-83953904D01*
X89733523Y-84049142D01*
X89781142Y-84096761D01*
X89876380Y-84144380D01*
X89971619Y-84144380D01*
X90066857Y-84096761D01*
X90114476Y-84049142D01*
X90162095Y-83953904D01*
X90209714Y-83763428D01*
X90209714Y-83525333D01*
X90162095Y-83334857D01*
X90114476Y-83239619D01*
X90066857Y-83192000D01*
X89971619Y-83144380D01*
X89066857Y-83572952D02*
X89162095Y-83525333D01*
X89209714Y-83477714D01*
X89257333Y-83382476D01*
X89257333Y-83334857D01*
X89209714Y-83239619D01*
X89162095Y-83192000D01*
X89066857Y-83144380D01*
X88876380Y-83144380D01*
X88781142Y-83192000D01*
X88733523Y-83239619D01*
X88685904Y-83334857D01*
X88685904Y-83382476D01*
X88733523Y-83477714D01*
X88781142Y-83525333D01*
X88876380Y-83572952D01*
X89066857Y-83572952D01*
X89162095Y-83620571D01*
X89209714Y-83668190D01*
X89257333Y-83763428D01*
X89257333Y-83953904D01*
X89209714Y-84049142D01*
X89162095Y-84096761D01*
X89066857Y-84144380D01*
X88876380Y-84144380D01*
X88781142Y-84096761D01*
X88733523Y-84049142D01*
X88685904Y-83953904D01*
X88685904Y-83763428D01*
X88733523Y-83668190D01*
X88781142Y-83620571D01*
X88876380Y-83572952D01*
%TO.C,R309*%
X94940380Y-83716952D02*
X94464190Y-83383619D01*
X94940380Y-83145523D02*
X93940380Y-83145523D01*
X93940380Y-83526476D01*
X93988000Y-83621714D01*
X94035619Y-83669333D01*
X94130857Y-83716952D01*
X94273714Y-83716952D01*
X94368952Y-83669333D01*
X94416571Y-83621714D01*
X94464190Y-83526476D01*
X94464190Y-83145523D01*
X93940380Y-84050285D02*
X93940380Y-84669333D01*
X94321333Y-84336000D01*
X94321333Y-84478857D01*
X94368952Y-84574095D01*
X94416571Y-84621714D01*
X94511809Y-84669333D01*
X94749904Y-84669333D01*
X94845142Y-84621714D01*
X94892761Y-84574095D01*
X94940380Y-84478857D01*
X94940380Y-84193142D01*
X94892761Y-84097904D01*
X94845142Y-84050285D01*
X93940380Y-85288380D02*
X93940380Y-85383619D01*
X93988000Y-85478857D01*
X94035619Y-85526476D01*
X94130857Y-85574095D01*
X94321333Y-85621714D01*
X94559428Y-85621714D01*
X94749904Y-85574095D01*
X94845142Y-85526476D01*
X94892761Y-85478857D01*
X94940380Y-85383619D01*
X94940380Y-85288380D01*
X94892761Y-85193142D01*
X94845142Y-85145523D01*
X94749904Y-85097904D01*
X94559428Y-85050285D01*
X94321333Y-85050285D01*
X94130857Y-85097904D01*
X94035619Y-85145523D01*
X93988000Y-85193142D01*
X93940380Y-85288380D01*
X94940380Y-86097904D02*
X94940380Y-86288380D01*
X94892761Y-86383619D01*
X94845142Y-86431238D01*
X94702285Y-86526476D01*
X94511809Y-86574095D01*
X94130857Y-86574095D01*
X94035619Y-86526476D01*
X93988000Y-86478857D01*
X93940380Y-86383619D01*
X93940380Y-86193142D01*
X93988000Y-86097904D01*
X94035619Y-86050285D01*
X94130857Y-86002666D01*
X94368952Y-86002666D01*
X94464190Y-86050285D01*
X94511809Y-86097904D01*
X94559428Y-86193142D01*
X94559428Y-86383619D01*
X94511809Y-86478857D01*
X94464190Y-86526476D01*
X94368952Y-86574095D01*
%TO.C,R310*%
X68142380Y-79144952D02*
X67666190Y-78811619D01*
X68142380Y-78573523D02*
X67142380Y-78573523D01*
X67142380Y-78954476D01*
X67190000Y-79049714D01*
X67237619Y-79097333D01*
X67332857Y-79144952D01*
X67475714Y-79144952D01*
X67570952Y-79097333D01*
X67618571Y-79049714D01*
X67666190Y-78954476D01*
X67666190Y-78573523D01*
X67142380Y-79478285D02*
X67142380Y-80097333D01*
X67523333Y-79764000D01*
X67523333Y-79906857D01*
X67570952Y-80002095D01*
X67618571Y-80049714D01*
X67713809Y-80097333D01*
X67951904Y-80097333D01*
X68047142Y-80049714D01*
X68094761Y-80002095D01*
X68142380Y-79906857D01*
X68142380Y-79621142D01*
X68094761Y-79525904D01*
X68047142Y-79478285D01*
X68142380Y-81049714D02*
X68142380Y-80478285D01*
X68142380Y-80764000D02*
X67142380Y-80764000D01*
X67285238Y-80668761D01*
X67380476Y-80573523D01*
X67428095Y-80478285D01*
X67142380Y-81668761D02*
X67142380Y-81764000D01*
X67190000Y-81859238D01*
X67237619Y-81906857D01*
X67332857Y-81954476D01*
X67523333Y-82002095D01*
X67761428Y-82002095D01*
X67951904Y-81954476D01*
X68047142Y-81906857D01*
X68094761Y-81859238D01*
X68142380Y-81764000D01*
X68142380Y-81668761D01*
X68094761Y-81573523D01*
X68047142Y-81525904D01*
X67951904Y-81478285D01*
X67761428Y-81430666D01*
X67523333Y-81430666D01*
X67332857Y-81478285D01*
X67237619Y-81525904D01*
X67190000Y-81573523D01*
X67142380Y-81668761D01*
%TO.C,R312*%
X87987047Y-76144380D02*
X88320380Y-75668190D01*
X88558476Y-76144380D02*
X88558476Y-75144380D01*
X88177523Y-75144380D01*
X88082285Y-75192000D01*
X88034666Y-75239619D01*
X87987047Y-75334857D01*
X87987047Y-75477714D01*
X88034666Y-75572952D01*
X88082285Y-75620571D01*
X88177523Y-75668190D01*
X88558476Y-75668190D01*
X87653714Y-75144380D02*
X87034666Y-75144380D01*
X87368000Y-75525333D01*
X87225142Y-75525333D01*
X87129904Y-75572952D01*
X87082285Y-75620571D01*
X87034666Y-75715809D01*
X87034666Y-75953904D01*
X87082285Y-76049142D01*
X87129904Y-76096761D01*
X87225142Y-76144380D01*
X87510857Y-76144380D01*
X87606095Y-76096761D01*
X87653714Y-76049142D01*
X86082285Y-76144380D02*
X86653714Y-76144380D01*
X86368000Y-76144380D02*
X86368000Y-75144380D01*
X86463238Y-75287238D01*
X86558476Y-75382476D01*
X86653714Y-75430095D01*
X85701333Y-75239619D02*
X85653714Y-75192000D01*
X85558476Y-75144380D01*
X85320380Y-75144380D01*
X85225142Y-75192000D01*
X85177523Y-75239619D01*
X85129904Y-75334857D01*
X85129904Y-75430095D01*
X85177523Y-75572952D01*
X85748952Y-76144380D01*
X85129904Y-76144380D01*
%TO.C,R313*%
X87733047Y-78430380D02*
X88066380Y-77954190D01*
X88304476Y-78430380D02*
X88304476Y-77430380D01*
X87923523Y-77430380D01*
X87828285Y-77478000D01*
X87780666Y-77525619D01*
X87733047Y-77620857D01*
X87733047Y-77763714D01*
X87780666Y-77858952D01*
X87828285Y-77906571D01*
X87923523Y-77954190D01*
X88304476Y-77954190D01*
X87399714Y-77430380D02*
X86780666Y-77430380D01*
X87114000Y-77811333D01*
X86971142Y-77811333D01*
X86875904Y-77858952D01*
X86828285Y-77906571D01*
X86780666Y-78001809D01*
X86780666Y-78239904D01*
X86828285Y-78335142D01*
X86875904Y-78382761D01*
X86971142Y-78430380D01*
X87256857Y-78430380D01*
X87352095Y-78382761D01*
X87399714Y-78335142D01*
X85828285Y-78430380D02*
X86399714Y-78430380D01*
X86114000Y-78430380D02*
X86114000Y-77430380D01*
X86209238Y-77573238D01*
X86304476Y-77668476D01*
X86399714Y-77716095D01*
X85494952Y-77430380D02*
X84875904Y-77430380D01*
X85209238Y-77811333D01*
X85066380Y-77811333D01*
X84971142Y-77858952D01*
X84923523Y-77906571D01*
X84875904Y-78001809D01*
X84875904Y-78239904D01*
X84923523Y-78335142D01*
X84971142Y-78382761D01*
X85066380Y-78430380D01*
X85352095Y-78430380D01*
X85447333Y-78382761D01*
X85494952Y-78335142D01*
%TO.C,R315*%
X92813047Y-67762380D02*
X93146380Y-67286190D01*
X93384476Y-67762380D02*
X93384476Y-66762380D01*
X93003523Y-66762380D01*
X92908285Y-66810000D01*
X92860666Y-66857619D01*
X92813047Y-66952857D01*
X92813047Y-67095714D01*
X92860666Y-67190952D01*
X92908285Y-67238571D01*
X93003523Y-67286190D01*
X93384476Y-67286190D01*
X92479714Y-66762380D02*
X91860666Y-66762380D01*
X92194000Y-67143333D01*
X92051142Y-67143333D01*
X91955904Y-67190952D01*
X91908285Y-67238571D01*
X91860666Y-67333809D01*
X91860666Y-67571904D01*
X91908285Y-67667142D01*
X91955904Y-67714761D01*
X92051142Y-67762380D01*
X92336857Y-67762380D01*
X92432095Y-67714761D01*
X92479714Y-67667142D01*
X90908285Y-67762380D02*
X91479714Y-67762380D01*
X91194000Y-67762380D02*
X91194000Y-66762380D01*
X91289238Y-66905238D01*
X91384476Y-67000476D01*
X91479714Y-67048095D01*
X90003523Y-66762380D02*
X90479714Y-66762380D01*
X90527333Y-67238571D01*
X90479714Y-67190952D01*
X90384476Y-67143333D01*
X90146380Y-67143333D01*
X90051142Y-67190952D01*
X90003523Y-67238571D01*
X89955904Y-67333809D01*
X89955904Y-67571904D01*
X90003523Y-67667142D01*
X90051142Y-67714761D01*
X90146380Y-67762380D01*
X90384476Y-67762380D01*
X90479714Y-67714761D01*
X90527333Y-67667142D01*
%TO.C,R316*%
X119229047Y-74366380D02*
X119562380Y-73890190D01*
X119800476Y-74366380D02*
X119800476Y-73366380D01*
X119419523Y-73366380D01*
X119324285Y-73414000D01*
X119276666Y-73461619D01*
X119229047Y-73556857D01*
X119229047Y-73699714D01*
X119276666Y-73794952D01*
X119324285Y-73842571D01*
X119419523Y-73890190D01*
X119800476Y-73890190D01*
X118895714Y-73366380D02*
X118276666Y-73366380D01*
X118610000Y-73747333D01*
X118467142Y-73747333D01*
X118371904Y-73794952D01*
X118324285Y-73842571D01*
X118276666Y-73937809D01*
X118276666Y-74175904D01*
X118324285Y-74271142D01*
X118371904Y-74318761D01*
X118467142Y-74366380D01*
X118752857Y-74366380D01*
X118848095Y-74318761D01*
X118895714Y-74271142D01*
X117324285Y-74366380D02*
X117895714Y-74366380D01*
X117610000Y-74366380D02*
X117610000Y-73366380D01*
X117705238Y-73509238D01*
X117800476Y-73604476D01*
X117895714Y-73652095D01*
X116467142Y-73366380D02*
X116657619Y-73366380D01*
X116752857Y-73414000D01*
X116800476Y-73461619D01*
X116895714Y-73604476D01*
X116943333Y-73794952D01*
X116943333Y-74175904D01*
X116895714Y-74271142D01*
X116848095Y-74318761D01*
X116752857Y-74366380D01*
X116562380Y-74366380D01*
X116467142Y-74318761D01*
X116419523Y-74271142D01*
X116371904Y-74175904D01*
X116371904Y-73937809D01*
X116419523Y-73842571D01*
X116467142Y-73794952D01*
X116562380Y-73747333D01*
X116752857Y-73747333D01*
X116848095Y-73794952D01*
X116895714Y-73842571D01*
X116943333Y-73937809D01*
%TO.C,R317*%
X111450380Y-66952952D02*
X110974190Y-66619619D01*
X111450380Y-66381523D02*
X110450380Y-66381523D01*
X110450380Y-66762476D01*
X110498000Y-66857714D01*
X110545619Y-66905333D01*
X110640857Y-66952952D01*
X110783714Y-66952952D01*
X110878952Y-66905333D01*
X110926571Y-66857714D01*
X110974190Y-66762476D01*
X110974190Y-66381523D01*
X110450380Y-67286285D02*
X110450380Y-67905333D01*
X110831333Y-67572000D01*
X110831333Y-67714857D01*
X110878952Y-67810095D01*
X110926571Y-67857714D01*
X111021809Y-67905333D01*
X111259904Y-67905333D01*
X111355142Y-67857714D01*
X111402761Y-67810095D01*
X111450380Y-67714857D01*
X111450380Y-67429142D01*
X111402761Y-67333904D01*
X111355142Y-67286285D01*
X111450380Y-68857714D02*
X111450380Y-68286285D01*
X111450380Y-68572000D02*
X110450380Y-68572000D01*
X110593238Y-68476761D01*
X110688476Y-68381523D01*
X110736095Y-68286285D01*
X110450380Y-69191047D02*
X110450380Y-69857714D01*
X111450380Y-69429142D01*
%TO.C,R318*%
X87987047Y-72588380D02*
X88320380Y-72112190D01*
X88558476Y-72588380D02*
X88558476Y-71588380D01*
X88177523Y-71588380D01*
X88082285Y-71636000D01*
X88034666Y-71683619D01*
X87987047Y-71778857D01*
X87987047Y-71921714D01*
X88034666Y-72016952D01*
X88082285Y-72064571D01*
X88177523Y-72112190D01*
X88558476Y-72112190D01*
X87653714Y-71588380D02*
X87034666Y-71588380D01*
X87368000Y-71969333D01*
X87225142Y-71969333D01*
X87129904Y-72016952D01*
X87082285Y-72064571D01*
X87034666Y-72159809D01*
X87034666Y-72397904D01*
X87082285Y-72493142D01*
X87129904Y-72540761D01*
X87225142Y-72588380D01*
X87510857Y-72588380D01*
X87606095Y-72540761D01*
X87653714Y-72493142D01*
X86082285Y-72588380D02*
X86653714Y-72588380D01*
X86368000Y-72588380D02*
X86368000Y-71588380D01*
X86463238Y-71731238D01*
X86558476Y-71826476D01*
X86653714Y-71874095D01*
X85510857Y-72016952D02*
X85606095Y-71969333D01*
X85653714Y-71921714D01*
X85701333Y-71826476D01*
X85701333Y-71778857D01*
X85653714Y-71683619D01*
X85606095Y-71636000D01*
X85510857Y-71588380D01*
X85320380Y-71588380D01*
X85225142Y-71636000D01*
X85177523Y-71683619D01*
X85129904Y-71778857D01*
X85129904Y-71826476D01*
X85177523Y-71921714D01*
X85225142Y-71969333D01*
X85320380Y-72016952D01*
X85510857Y-72016952D01*
X85606095Y-72064571D01*
X85653714Y-72112190D01*
X85701333Y-72207428D01*
X85701333Y-72397904D01*
X85653714Y-72493142D01*
X85606095Y-72540761D01*
X85510857Y-72588380D01*
X85320380Y-72588380D01*
X85225142Y-72540761D01*
X85177523Y-72493142D01*
X85129904Y-72397904D01*
X85129904Y-72207428D01*
X85177523Y-72112190D01*
X85225142Y-72064571D01*
X85320380Y-72016952D01*
%TO.C,R319*%
X115768380Y-66952952D02*
X115292190Y-66619619D01*
X115768380Y-66381523D02*
X114768380Y-66381523D01*
X114768380Y-66762476D01*
X114816000Y-66857714D01*
X114863619Y-66905333D01*
X114958857Y-66952952D01*
X115101714Y-66952952D01*
X115196952Y-66905333D01*
X115244571Y-66857714D01*
X115292190Y-66762476D01*
X115292190Y-66381523D01*
X114768380Y-67286285D02*
X114768380Y-67905333D01*
X115149333Y-67572000D01*
X115149333Y-67714857D01*
X115196952Y-67810095D01*
X115244571Y-67857714D01*
X115339809Y-67905333D01*
X115577904Y-67905333D01*
X115673142Y-67857714D01*
X115720761Y-67810095D01*
X115768380Y-67714857D01*
X115768380Y-67429142D01*
X115720761Y-67333904D01*
X115673142Y-67286285D01*
X115768380Y-68857714D02*
X115768380Y-68286285D01*
X115768380Y-68572000D02*
X114768380Y-68572000D01*
X114911238Y-68476761D01*
X115006476Y-68381523D01*
X115054095Y-68286285D01*
X115768380Y-69333904D02*
X115768380Y-69524380D01*
X115720761Y-69619619D01*
X115673142Y-69667238D01*
X115530285Y-69762476D01*
X115339809Y-69810095D01*
X114958857Y-69810095D01*
X114863619Y-69762476D01*
X114816000Y-69714857D01*
X114768380Y-69619619D01*
X114768380Y-69429142D01*
X114816000Y-69333904D01*
X114863619Y-69286285D01*
X114958857Y-69238666D01*
X115196952Y-69238666D01*
X115292190Y-69286285D01*
X115339809Y-69333904D01*
X115387428Y-69429142D01*
X115387428Y-69619619D01*
X115339809Y-69714857D01*
X115292190Y-69762476D01*
X115196952Y-69810095D01*
%TO.C,R320*%
X111450380Y-77620952D02*
X110974190Y-77287619D01*
X111450380Y-77049523D02*
X110450380Y-77049523D01*
X110450380Y-77430476D01*
X110498000Y-77525714D01*
X110545619Y-77573333D01*
X110640857Y-77620952D01*
X110783714Y-77620952D01*
X110878952Y-77573333D01*
X110926571Y-77525714D01*
X110974190Y-77430476D01*
X110974190Y-77049523D01*
X110450380Y-77954285D02*
X110450380Y-78573333D01*
X110831333Y-78240000D01*
X110831333Y-78382857D01*
X110878952Y-78478095D01*
X110926571Y-78525714D01*
X111021809Y-78573333D01*
X111259904Y-78573333D01*
X111355142Y-78525714D01*
X111402761Y-78478095D01*
X111450380Y-78382857D01*
X111450380Y-78097142D01*
X111402761Y-78001904D01*
X111355142Y-77954285D01*
X110545619Y-78954285D02*
X110498000Y-79001904D01*
X110450380Y-79097142D01*
X110450380Y-79335238D01*
X110498000Y-79430476D01*
X110545619Y-79478095D01*
X110640857Y-79525714D01*
X110736095Y-79525714D01*
X110878952Y-79478095D01*
X111450380Y-78906666D01*
X111450380Y-79525714D01*
X110450380Y-80144761D02*
X110450380Y-80240000D01*
X110498000Y-80335238D01*
X110545619Y-80382857D01*
X110640857Y-80430476D01*
X110831333Y-80478095D01*
X111069428Y-80478095D01*
X111259904Y-80430476D01*
X111355142Y-80382857D01*
X111402761Y-80335238D01*
X111450380Y-80240000D01*
X111450380Y-80144761D01*
X111402761Y-80049523D01*
X111355142Y-80001904D01*
X111259904Y-79954285D01*
X111069428Y-79906666D01*
X110831333Y-79906666D01*
X110640857Y-79954285D01*
X110545619Y-80001904D01*
X110498000Y-80049523D01*
X110450380Y-80144761D01*
%TO.C,R321*%
X67380380Y-68492952D02*
X66904190Y-68159619D01*
X67380380Y-67921523D02*
X66380380Y-67921523D01*
X66380380Y-68302476D01*
X66428000Y-68397714D01*
X66475619Y-68445333D01*
X66570857Y-68492952D01*
X66713714Y-68492952D01*
X66808952Y-68445333D01*
X66856571Y-68397714D01*
X66904190Y-68302476D01*
X66904190Y-67921523D01*
X66380380Y-68826285D02*
X66380380Y-69445333D01*
X66761333Y-69112000D01*
X66761333Y-69254857D01*
X66808952Y-69350095D01*
X66856571Y-69397714D01*
X66951809Y-69445333D01*
X67189904Y-69445333D01*
X67285142Y-69397714D01*
X67332761Y-69350095D01*
X67380380Y-69254857D01*
X67380380Y-68969142D01*
X67332761Y-68873904D01*
X67285142Y-68826285D01*
X66475619Y-69826285D02*
X66428000Y-69873904D01*
X66380380Y-69969142D01*
X66380380Y-70207238D01*
X66428000Y-70302476D01*
X66475619Y-70350095D01*
X66570857Y-70397714D01*
X66666095Y-70397714D01*
X66808952Y-70350095D01*
X67380380Y-69778666D01*
X67380380Y-70397714D01*
X67380380Y-71350095D02*
X67380380Y-70778666D01*
X67380380Y-71064380D02*
X66380380Y-71064380D01*
X66523238Y-70969142D01*
X66618476Y-70873904D01*
X66666095Y-70778666D01*
%TO.C,R322*%
X67508380Y-73556952D02*
X67032190Y-73223619D01*
X67508380Y-72985523D02*
X66508380Y-72985523D01*
X66508380Y-73366476D01*
X66556000Y-73461714D01*
X66603619Y-73509333D01*
X66698857Y-73556952D01*
X66841714Y-73556952D01*
X66936952Y-73509333D01*
X66984571Y-73461714D01*
X67032190Y-73366476D01*
X67032190Y-72985523D01*
X66508380Y-73890285D02*
X66508380Y-74509333D01*
X66889333Y-74176000D01*
X66889333Y-74318857D01*
X66936952Y-74414095D01*
X66984571Y-74461714D01*
X67079809Y-74509333D01*
X67317904Y-74509333D01*
X67413142Y-74461714D01*
X67460761Y-74414095D01*
X67508380Y-74318857D01*
X67508380Y-74033142D01*
X67460761Y-73937904D01*
X67413142Y-73890285D01*
X66603619Y-74890285D02*
X66556000Y-74937904D01*
X66508380Y-75033142D01*
X66508380Y-75271238D01*
X66556000Y-75366476D01*
X66603619Y-75414095D01*
X66698857Y-75461714D01*
X66794095Y-75461714D01*
X66936952Y-75414095D01*
X67508380Y-74842666D01*
X67508380Y-75461714D01*
X66603619Y-75842666D02*
X66556000Y-75890285D01*
X66508380Y-75985523D01*
X66508380Y-76223619D01*
X66556000Y-76318857D01*
X66603619Y-76366476D01*
X66698857Y-76414095D01*
X66794095Y-76414095D01*
X66936952Y-76366476D01*
X67508380Y-75795047D01*
X67508380Y-76414095D01*
%TO.C,R401*%
X101957047Y-110688380D02*
X102290380Y-110212190D01*
X102528476Y-110688380D02*
X102528476Y-109688380D01*
X102147523Y-109688380D01*
X102052285Y-109736000D01*
X102004666Y-109783619D01*
X101957047Y-109878857D01*
X101957047Y-110021714D01*
X102004666Y-110116952D01*
X102052285Y-110164571D01*
X102147523Y-110212190D01*
X102528476Y-110212190D01*
X101099904Y-110021714D02*
X101099904Y-110688380D01*
X101338000Y-109640761D02*
X101576095Y-110355047D01*
X100957047Y-110355047D01*
X100385619Y-109688380D02*
X100290380Y-109688380D01*
X100195142Y-109736000D01*
X100147523Y-109783619D01*
X100099904Y-109878857D01*
X100052285Y-110069333D01*
X100052285Y-110307428D01*
X100099904Y-110497904D01*
X100147523Y-110593142D01*
X100195142Y-110640761D01*
X100290380Y-110688380D01*
X100385619Y-110688380D01*
X100480857Y-110640761D01*
X100528476Y-110593142D01*
X100576095Y-110497904D01*
X100623714Y-110307428D01*
X100623714Y-110069333D01*
X100576095Y-109878857D01*
X100528476Y-109783619D01*
X100480857Y-109736000D01*
X100385619Y-109688380D01*
X99099904Y-110688380D02*
X99671333Y-110688380D01*
X99385619Y-110688380D02*
X99385619Y-109688380D01*
X99480857Y-109831238D01*
X99576095Y-109926476D01*
X99671333Y-109974095D01*
%TO.C,R402*%
X105767047Y-106370380D02*
X106100380Y-105894190D01*
X106338476Y-106370380D02*
X106338476Y-105370380D01*
X105957523Y-105370380D01*
X105862285Y-105418000D01*
X105814666Y-105465619D01*
X105767047Y-105560857D01*
X105767047Y-105703714D01*
X105814666Y-105798952D01*
X105862285Y-105846571D01*
X105957523Y-105894190D01*
X106338476Y-105894190D01*
X104909904Y-105703714D02*
X104909904Y-106370380D01*
X105148000Y-105322761D02*
X105386095Y-106037047D01*
X104767047Y-106037047D01*
X104195619Y-105370380D02*
X104100380Y-105370380D01*
X104005142Y-105418000D01*
X103957523Y-105465619D01*
X103909904Y-105560857D01*
X103862285Y-105751333D01*
X103862285Y-105989428D01*
X103909904Y-106179904D01*
X103957523Y-106275142D01*
X104005142Y-106322761D01*
X104100380Y-106370380D01*
X104195619Y-106370380D01*
X104290857Y-106322761D01*
X104338476Y-106275142D01*
X104386095Y-106179904D01*
X104433714Y-105989428D01*
X104433714Y-105751333D01*
X104386095Y-105560857D01*
X104338476Y-105465619D01*
X104290857Y-105418000D01*
X104195619Y-105370380D01*
X103481333Y-105465619D02*
X103433714Y-105418000D01*
X103338476Y-105370380D01*
X103100380Y-105370380D01*
X103005142Y-105418000D01*
X102957523Y-105465619D01*
X102909904Y-105560857D01*
X102909904Y-105656095D01*
X102957523Y-105798952D01*
X103528952Y-106370380D01*
X102909904Y-106370380D01*
%TO.C,R403*%
X74874380Y-109116952D02*
X74398190Y-108783619D01*
X74874380Y-108545523D02*
X73874380Y-108545523D01*
X73874380Y-108926476D01*
X73922000Y-109021714D01*
X73969619Y-109069333D01*
X74064857Y-109116952D01*
X74207714Y-109116952D01*
X74302952Y-109069333D01*
X74350571Y-109021714D01*
X74398190Y-108926476D01*
X74398190Y-108545523D01*
X74207714Y-109974095D02*
X74874380Y-109974095D01*
X73826761Y-109736000D02*
X74541047Y-109497904D01*
X74541047Y-110116952D01*
X73874380Y-110688380D02*
X73874380Y-110783619D01*
X73922000Y-110878857D01*
X73969619Y-110926476D01*
X74064857Y-110974095D01*
X74255333Y-111021714D01*
X74493428Y-111021714D01*
X74683904Y-110974095D01*
X74779142Y-110926476D01*
X74826761Y-110878857D01*
X74874380Y-110783619D01*
X74874380Y-110688380D01*
X74826761Y-110593142D01*
X74779142Y-110545523D01*
X74683904Y-110497904D01*
X74493428Y-110450285D01*
X74255333Y-110450285D01*
X74064857Y-110497904D01*
X73969619Y-110545523D01*
X73922000Y-110593142D01*
X73874380Y-110688380D01*
X73874380Y-111355047D02*
X73874380Y-111974095D01*
X74255333Y-111640761D01*
X74255333Y-111783619D01*
X74302952Y-111878857D01*
X74350571Y-111926476D01*
X74445809Y-111974095D01*
X74683904Y-111974095D01*
X74779142Y-111926476D01*
X74826761Y-111878857D01*
X74874380Y-111783619D01*
X74874380Y-111497904D01*
X74826761Y-111402666D01*
X74779142Y-111355047D01*
%TO.C,R405*%
X98242380Y-102004952D02*
X97766190Y-101671619D01*
X98242380Y-101433523D02*
X97242380Y-101433523D01*
X97242380Y-101814476D01*
X97290000Y-101909714D01*
X97337619Y-101957333D01*
X97432857Y-102004952D01*
X97575714Y-102004952D01*
X97670952Y-101957333D01*
X97718571Y-101909714D01*
X97766190Y-101814476D01*
X97766190Y-101433523D01*
X97575714Y-102862095D02*
X98242380Y-102862095D01*
X97194761Y-102624000D02*
X97909047Y-102385904D01*
X97909047Y-103004952D01*
X97242380Y-103576380D02*
X97242380Y-103671619D01*
X97290000Y-103766857D01*
X97337619Y-103814476D01*
X97432857Y-103862095D01*
X97623333Y-103909714D01*
X97861428Y-103909714D01*
X98051904Y-103862095D01*
X98147142Y-103814476D01*
X98194761Y-103766857D01*
X98242380Y-103671619D01*
X98242380Y-103576380D01*
X98194761Y-103481142D01*
X98147142Y-103433523D01*
X98051904Y-103385904D01*
X97861428Y-103338285D01*
X97623333Y-103338285D01*
X97432857Y-103385904D01*
X97337619Y-103433523D01*
X97290000Y-103481142D01*
X97242380Y-103576380D01*
X97242380Y-104814476D02*
X97242380Y-104338285D01*
X97718571Y-104290666D01*
X97670952Y-104338285D01*
X97623333Y-104433523D01*
X97623333Y-104671619D01*
X97670952Y-104766857D01*
X97718571Y-104814476D01*
X97813809Y-104862095D01*
X98051904Y-104862095D01*
X98147142Y-104814476D01*
X98194761Y-104766857D01*
X98242380Y-104671619D01*
X98242380Y-104433523D01*
X98194761Y-104338285D01*
X98147142Y-104290666D01*
%TO.C,R406*%
X78684380Y-100988952D02*
X78208190Y-100655619D01*
X78684380Y-100417523D02*
X77684380Y-100417523D01*
X77684380Y-100798476D01*
X77732000Y-100893714D01*
X77779619Y-100941333D01*
X77874857Y-100988952D01*
X78017714Y-100988952D01*
X78112952Y-100941333D01*
X78160571Y-100893714D01*
X78208190Y-100798476D01*
X78208190Y-100417523D01*
X78017714Y-101846095D02*
X78684380Y-101846095D01*
X77636761Y-101608000D02*
X78351047Y-101369904D01*
X78351047Y-101988952D01*
X77684380Y-102560380D02*
X77684380Y-102655619D01*
X77732000Y-102750857D01*
X77779619Y-102798476D01*
X77874857Y-102846095D01*
X78065333Y-102893714D01*
X78303428Y-102893714D01*
X78493904Y-102846095D01*
X78589142Y-102798476D01*
X78636761Y-102750857D01*
X78684380Y-102655619D01*
X78684380Y-102560380D01*
X78636761Y-102465142D01*
X78589142Y-102417523D01*
X78493904Y-102369904D01*
X78303428Y-102322285D01*
X78065333Y-102322285D01*
X77874857Y-102369904D01*
X77779619Y-102417523D01*
X77732000Y-102465142D01*
X77684380Y-102560380D01*
X77684380Y-103750857D02*
X77684380Y-103560380D01*
X77732000Y-103465142D01*
X77779619Y-103417523D01*
X77922476Y-103322285D01*
X78112952Y-103274666D01*
X78493904Y-103274666D01*
X78589142Y-103322285D01*
X78636761Y-103369904D01*
X78684380Y-103465142D01*
X78684380Y-103655619D01*
X78636761Y-103750857D01*
X78589142Y-103798476D01*
X78493904Y-103846095D01*
X78255809Y-103846095D01*
X78160571Y-103798476D01*
X78112952Y-103750857D01*
X78065333Y-103655619D01*
X78065333Y-103465142D01*
X78112952Y-103369904D01*
X78160571Y-103322285D01*
X78255809Y-103274666D01*
%TO.C,R407*%
X95956380Y-109370952D02*
X95480190Y-109037619D01*
X95956380Y-108799523D02*
X94956380Y-108799523D01*
X94956380Y-109180476D01*
X95004000Y-109275714D01*
X95051619Y-109323333D01*
X95146857Y-109370952D01*
X95289714Y-109370952D01*
X95384952Y-109323333D01*
X95432571Y-109275714D01*
X95480190Y-109180476D01*
X95480190Y-108799523D01*
X95289714Y-110228095D02*
X95956380Y-110228095D01*
X94908761Y-109990000D02*
X95623047Y-109751904D01*
X95623047Y-110370952D01*
X94956380Y-110942380D02*
X94956380Y-111037619D01*
X95004000Y-111132857D01*
X95051619Y-111180476D01*
X95146857Y-111228095D01*
X95337333Y-111275714D01*
X95575428Y-111275714D01*
X95765904Y-111228095D01*
X95861142Y-111180476D01*
X95908761Y-111132857D01*
X95956380Y-111037619D01*
X95956380Y-110942380D01*
X95908761Y-110847142D01*
X95861142Y-110799523D01*
X95765904Y-110751904D01*
X95575428Y-110704285D01*
X95337333Y-110704285D01*
X95146857Y-110751904D01*
X95051619Y-110799523D01*
X95004000Y-110847142D01*
X94956380Y-110942380D01*
X94956380Y-111609047D02*
X94956380Y-112275714D01*
X95956380Y-111847142D01*
%TO.C,R408*%
X98242380Y-113180952D02*
X97766190Y-112847619D01*
X98242380Y-112609523D02*
X97242380Y-112609523D01*
X97242380Y-112990476D01*
X97290000Y-113085714D01*
X97337619Y-113133333D01*
X97432857Y-113180952D01*
X97575714Y-113180952D01*
X97670952Y-113133333D01*
X97718571Y-113085714D01*
X97766190Y-112990476D01*
X97766190Y-112609523D01*
X97575714Y-114038095D02*
X98242380Y-114038095D01*
X97194761Y-113800000D02*
X97909047Y-113561904D01*
X97909047Y-114180952D01*
X97242380Y-114752380D02*
X97242380Y-114847619D01*
X97290000Y-114942857D01*
X97337619Y-114990476D01*
X97432857Y-115038095D01*
X97623333Y-115085714D01*
X97861428Y-115085714D01*
X98051904Y-115038095D01*
X98147142Y-114990476D01*
X98194761Y-114942857D01*
X98242380Y-114847619D01*
X98242380Y-114752380D01*
X98194761Y-114657142D01*
X98147142Y-114609523D01*
X98051904Y-114561904D01*
X97861428Y-114514285D01*
X97623333Y-114514285D01*
X97432857Y-114561904D01*
X97337619Y-114609523D01*
X97290000Y-114657142D01*
X97242380Y-114752380D01*
X97670952Y-115657142D02*
X97623333Y-115561904D01*
X97575714Y-115514285D01*
X97480476Y-115466666D01*
X97432857Y-115466666D01*
X97337619Y-115514285D01*
X97290000Y-115561904D01*
X97242380Y-115657142D01*
X97242380Y-115847619D01*
X97290000Y-115942857D01*
X97337619Y-115990476D01*
X97432857Y-116038095D01*
X97480476Y-116038095D01*
X97575714Y-115990476D01*
X97623333Y-115942857D01*
X97670952Y-115847619D01*
X97670952Y-115657142D01*
X97718571Y-115561904D01*
X97766190Y-115514285D01*
X97861428Y-115466666D01*
X98051904Y-115466666D01*
X98147142Y-115514285D01*
X98194761Y-115561904D01*
X98242380Y-115657142D01*
X98242380Y-115847619D01*
X98194761Y-115942857D01*
X98147142Y-115990476D01*
X98051904Y-116038095D01*
X97861428Y-116038095D01*
X97766190Y-115990476D01*
X97718571Y-115942857D01*
X97670952Y-115847619D01*
%TO.C,R409*%
X89606380Y-109100952D02*
X89130190Y-108767619D01*
X89606380Y-108529523D02*
X88606380Y-108529523D01*
X88606380Y-108910476D01*
X88654000Y-109005714D01*
X88701619Y-109053333D01*
X88796857Y-109100952D01*
X88939714Y-109100952D01*
X89034952Y-109053333D01*
X89082571Y-109005714D01*
X89130190Y-108910476D01*
X89130190Y-108529523D01*
X88939714Y-109958095D02*
X89606380Y-109958095D01*
X88558761Y-109720000D02*
X89273047Y-109481904D01*
X89273047Y-110100952D01*
X88606380Y-110672380D02*
X88606380Y-110767619D01*
X88654000Y-110862857D01*
X88701619Y-110910476D01*
X88796857Y-110958095D01*
X88987333Y-111005714D01*
X89225428Y-111005714D01*
X89415904Y-110958095D01*
X89511142Y-110910476D01*
X89558761Y-110862857D01*
X89606380Y-110767619D01*
X89606380Y-110672380D01*
X89558761Y-110577142D01*
X89511142Y-110529523D01*
X89415904Y-110481904D01*
X89225428Y-110434285D01*
X88987333Y-110434285D01*
X88796857Y-110481904D01*
X88701619Y-110529523D01*
X88654000Y-110577142D01*
X88606380Y-110672380D01*
X89606380Y-111481904D02*
X89606380Y-111672380D01*
X89558761Y-111767619D01*
X89511142Y-111815238D01*
X89368285Y-111910476D01*
X89177809Y-111958095D01*
X88796857Y-111958095D01*
X88701619Y-111910476D01*
X88654000Y-111862857D01*
X88606380Y-111767619D01*
X88606380Y-111577142D01*
X88654000Y-111481904D01*
X88701619Y-111434285D01*
X88796857Y-111386666D01*
X89034952Y-111386666D01*
X89130190Y-111434285D01*
X89177809Y-111481904D01*
X89225428Y-111577142D01*
X89225428Y-111767619D01*
X89177809Y-111862857D01*
X89130190Y-111910476D01*
X89034952Y-111958095D01*
%TO.C,R410*%
X68142380Y-109116952D02*
X67666190Y-108783619D01*
X68142380Y-108545523D02*
X67142380Y-108545523D01*
X67142380Y-108926476D01*
X67190000Y-109021714D01*
X67237619Y-109069333D01*
X67332857Y-109116952D01*
X67475714Y-109116952D01*
X67570952Y-109069333D01*
X67618571Y-109021714D01*
X67666190Y-108926476D01*
X67666190Y-108545523D01*
X67475714Y-109974095D02*
X68142380Y-109974095D01*
X67094761Y-109736000D02*
X67809047Y-109497904D01*
X67809047Y-110116952D01*
X68142380Y-111021714D02*
X68142380Y-110450285D01*
X68142380Y-110736000D02*
X67142380Y-110736000D01*
X67285238Y-110640761D01*
X67380476Y-110545523D01*
X67428095Y-110450285D01*
X67142380Y-111640761D02*
X67142380Y-111736000D01*
X67190000Y-111831238D01*
X67237619Y-111878857D01*
X67332857Y-111926476D01*
X67523333Y-111974095D01*
X67761428Y-111974095D01*
X67951904Y-111926476D01*
X68047142Y-111878857D01*
X68094761Y-111831238D01*
X68142380Y-111736000D01*
X68142380Y-111640761D01*
X68094761Y-111545523D01*
X68047142Y-111497904D01*
X67951904Y-111450285D01*
X67761428Y-111402666D01*
X67523333Y-111402666D01*
X67332857Y-111450285D01*
X67237619Y-111497904D01*
X67190000Y-111545523D01*
X67142380Y-111640761D01*
%TO.C,R412*%
X91797047Y-101544380D02*
X92130380Y-101068190D01*
X92368476Y-101544380D02*
X92368476Y-100544380D01*
X91987523Y-100544380D01*
X91892285Y-100592000D01*
X91844666Y-100639619D01*
X91797047Y-100734857D01*
X91797047Y-100877714D01*
X91844666Y-100972952D01*
X91892285Y-101020571D01*
X91987523Y-101068190D01*
X92368476Y-101068190D01*
X90939904Y-100877714D02*
X90939904Y-101544380D01*
X91178000Y-100496761D02*
X91416095Y-101211047D01*
X90797047Y-101211047D01*
X89892285Y-101544380D02*
X90463714Y-101544380D01*
X90178000Y-101544380D02*
X90178000Y-100544380D01*
X90273238Y-100687238D01*
X90368476Y-100782476D01*
X90463714Y-100830095D01*
X89511333Y-100639619D02*
X89463714Y-100592000D01*
X89368476Y-100544380D01*
X89130380Y-100544380D01*
X89035142Y-100592000D01*
X88987523Y-100639619D01*
X88939904Y-100734857D01*
X88939904Y-100830095D01*
X88987523Y-100972952D01*
X89558952Y-101544380D01*
X88939904Y-101544380D01*
%TO.C,R413*%
X83161047Y-105354380D02*
X83494380Y-104878190D01*
X83732476Y-105354380D02*
X83732476Y-104354380D01*
X83351523Y-104354380D01*
X83256285Y-104402000D01*
X83208666Y-104449619D01*
X83161047Y-104544857D01*
X83161047Y-104687714D01*
X83208666Y-104782952D01*
X83256285Y-104830571D01*
X83351523Y-104878190D01*
X83732476Y-104878190D01*
X82303904Y-104687714D02*
X82303904Y-105354380D01*
X82542000Y-104306761D02*
X82780095Y-105021047D01*
X82161047Y-105021047D01*
X81256285Y-105354380D02*
X81827714Y-105354380D01*
X81542000Y-105354380D02*
X81542000Y-104354380D01*
X81637238Y-104497238D01*
X81732476Y-104592476D01*
X81827714Y-104640095D01*
X80922952Y-104354380D02*
X80303904Y-104354380D01*
X80637238Y-104735333D01*
X80494380Y-104735333D01*
X80399142Y-104782952D01*
X80351523Y-104830571D01*
X80303904Y-104925809D01*
X80303904Y-105163904D01*
X80351523Y-105259142D01*
X80399142Y-105306761D01*
X80494380Y-105354380D01*
X80780095Y-105354380D01*
X80875333Y-105306761D01*
X80922952Y-105259142D01*
%TO.C,R415*%
X91940047Y-91384380D02*
X92273380Y-90908190D01*
X92511476Y-91384380D02*
X92511476Y-90384380D01*
X92130523Y-90384380D01*
X92035285Y-90432000D01*
X91987666Y-90479619D01*
X91940047Y-90574857D01*
X91940047Y-90717714D01*
X91987666Y-90812952D01*
X92035285Y-90860571D01*
X92130523Y-90908190D01*
X92511476Y-90908190D01*
X91082904Y-90717714D02*
X91082904Y-91384380D01*
X91321000Y-90336761D02*
X91559095Y-91051047D01*
X90940047Y-91051047D01*
X90035285Y-91384380D02*
X90606714Y-91384380D01*
X90321000Y-91384380D02*
X90321000Y-90384380D01*
X90416238Y-90527238D01*
X90511476Y-90622476D01*
X90606714Y-90670095D01*
X89130523Y-90384380D02*
X89606714Y-90384380D01*
X89654333Y-90860571D01*
X89606714Y-90812952D01*
X89511476Y-90765333D01*
X89273380Y-90765333D01*
X89178142Y-90812952D01*
X89130523Y-90860571D01*
X89082904Y-90955809D01*
X89082904Y-91193904D01*
X89130523Y-91289142D01*
X89178142Y-91336761D01*
X89273380Y-91384380D01*
X89511476Y-91384380D01*
X89606714Y-91336761D01*
X89654333Y-91289142D01*
%TO.C,R416*%
X116148380Y-104528952D02*
X115672190Y-104195619D01*
X116148380Y-103957523D02*
X115148380Y-103957523D01*
X115148380Y-104338476D01*
X115196000Y-104433714D01*
X115243619Y-104481333D01*
X115338857Y-104528952D01*
X115481714Y-104528952D01*
X115576952Y-104481333D01*
X115624571Y-104433714D01*
X115672190Y-104338476D01*
X115672190Y-103957523D01*
X115481714Y-105386095D02*
X116148380Y-105386095D01*
X115100761Y-105148000D02*
X115815047Y-104909904D01*
X115815047Y-105528952D01*
X116148380Y-106433714D02*
X116148380Y-105862285D01*
X116148380Y-106148000D02*
X115148380Y-106148000D01*
X115291238Y-106052761D01*
X115386476Y-105957523D01*
X115434095Y-105862285D01*
X115148380Y-107290857D02*
X115148380Y-107100380D01*
X115196000Y-107005142D01*
X115243619Y-106957523D01*
X115386476Y-106862285D01*
X115576952Y-106814666D01*
X115957904Y-106814666D01*
X116053142Y-106862285D01*
X116100761Y-106909904D01*
X116148380Y-107005142D01*
X116148380Y-107195619D01*
X116100761Y-107290857D01*
X116053142Y-107338476D01*
X115957904Y-107386095D01*
X115719809Y-107386095D01*
X115624571Y-107338476D01*
X115576952Y-107290857D01*
X115529333Y-107195619D01*
X115529333Y-107005142D01*
X115576952Y-106909904D01*
X115624571Y-106862285D01*
X115719809Y-106814666D01*
%TO.C,R417*%
X110308380Y-111418952D02*
X109832190Y-111085619D01*
X110308380Y-110847523D02*
X109308380Y-110847523D01*
X109308380Y-111228476D01*
X109356000Y-111323714D01*
X109403619Y-111371333D01*
X109498857Y-111418952D01*
X109641714Y-111418952D01*
X109736952Y-111371333D01*
X109784571Y-111323714D01*
X109832190Y-111228476D01*
X109832190Y-110847523D01*
X109641714Y-112276095D02*
X110308380Y-112276095D01*
X109260761Y-112038000D02*
X109975047Y-111799904D01*
X109975047Y-112418952D01*
X110308380Y-113323714D02*
X110308380Y-112752285D01*
X110308380Y-113038000D02*
X109308380Y-113038000D01*
X109451238Y-112942761D01*
X109546476Y-112847523D01*
X109594095Y-112752285D01*
X109308380Y-113657047D02*
X109308380Y-114323714D01*
X110308380Y-113895142D01*
%TO.C,R418*%
X85447047Y-98750380D02*
X85780380Y-98274190D01*
X86018476Y-98750380D02*
X86018476Y-97750380D01*
X85637523Y-97750380D01*
X85542285Y-97798000D01*
X85494666Y-97845619D01*
X85447047Y-97940857D01*
X85447047Y-98083714D01*
X85494666Y-98178952D01*
X85542285Y-98226571D01*
X85637523Y-98274190D01*
X86018476Y-98274190D01*
X84589904Y-98083714D02*
X84589904Y-98750380D01*
X84828000Y-97702761D02*
X85066095Y-98417047D01*
X84447047Y-98417047D01*
X83542285Y-98750380D02*
X84113714Y-98750380D01*
X83828000Y-98750380D02*
X83828000Y-97750380D01*
X83923238Y-97893238D01*
X84018476Y-97988476D01*
X84113714Y-98036095D01*
X82970857Y-98178952D02*
X83066095Y-98131333D01*
X83113714Y-98083714D01*
X83161333Y-97988476D01*
X83161333Y-97940857D01*
X83113714Y-97845619D01*
X83066095Y-97798000D01*
X82970857Y-97750380D01*
X82780380Y-97750380D01*
X82685142Y-97798000D01*
X82637523Y-97845619D01*
X82589904Y-97940857D01*
X82589904Y-97988476D01*
X82637523Y-98083714D01*
X82685142Y-98131333D01*
X82780380Y-98178952D01*
X82970857Y-98178952D01*
X83066095Y-98226571D01*
X83113714Y-98274190D01*
X83161333Y-98369428D01*
X83161333Y-98559904D01*
X83113714Y-98655142D01*
X83066095Y-98702761D01*
X82970857Y-98750380D01*
X82780380Y-98750380D01*
X82685142Y-98702761D01*
X82637523Y-98655142D01*
X82589904Y-98559904D01*
X82589904Y-98369428D01*
X82637523Y-98274190D01*
X82685142Y-98226571D01*
X82780380Y-98178952D01*
%TO.C,R419*%
X116148380Y-111418952D02*
X115672190Y-111085619D01*
X116148380Y-110847523D02*
X115148380Y-110847523D01*
X115148380Y-111228476D01*
X115196000Y-111323714D01*
X115243619Y-111371333D01*
X115338857Y-111418952D01*
X115481714Y-111418952D01*
X115576952Y-111371333D01*
X115624571Y-111323714D01*
X115672190Y-111228476D01*
X115672190Y-110847523D01*
X115481714Y-112276095D02*
X116148380Y-112276095D01*
X115100761Y-112038000D02*
X115815047Y-111799904D01*
X115815047Y-112418952D01*
X116148380Y-113323714D02*
X116148380Y-112752285D01*
X116148380Y-113038000D02*
X115148380Y-113038000D01*
X115291238Y-112942761D01*
X115386476Y-112847523D01*
X115434095Y-112752285D01*
X116148380Y-113799904D02*
X116148380Y-113990380D01*
X116100761Y-114085619D01*
X116053142Y-114133238D01*
X115910285Y-114228476D01*
X115719809Y-114276095D01*
X115338857Y-114276095D01*
X115243619Y-114228476D01*
X115196000Y-114180857D01*
X115148380Y-114085619D01*
X115148380Y-113895142D01*
X115196000Y-113799904D01*
X115243619Y-113752285D01*
X115338857Y-113704666D01*
X115576952Y-113704666D01*
X115672190Y-113752285D01*
X115719809Y-113799904D01*
X115767428Y-113895142D01*
X115767428Y-114085619D01*
X115719809Y-114180857D01*
X115672190Y-114228476D01*
X115576952Y-114276095D01*
%TO.C,R420*%
X110308380Y-104528952D02*
X109832190Y-104195619D01*
X110308380Y-103957523D02*
X109308380Y-103957523D01*
X109308380Y-104338476D01*
X109356000Y-104433714D01*
X109403619Y-104481333D01*
X109498857Y-104528952D01*
X109641714Y-104528952D01*
X109736952Y-104481333D01*
X109784571Y-104433714D01*
X109832190Y-104338476D01*
X109832190Y-103957523D01*
X109641714Y-105386095D02*
X110308380Y-105386095D01*
X109260761Y-105148000D02*
X109975047Y-104909904D01*
X109975047Y-105528952D01*
X109403619Y-105862285D02*
X109356000Y-105909904D01*
X109308380Y-106005142D01*
X109308380Y-106243238D01*
X109356000Y-106338476D01*
X109403619Y-106386095D01*
X109498857Y-106433714D01*
X109594095Y-106433714D01*
X109736952Y-106386095D01*
X110308380Y-105814666D01*
X110308380Y-106433714D01*
X109308380Y-107052761D02*
X109308380Y-107148000D01*
X109356000Y-107243238D01*
X109403619Y-107290857D01*
X109498857Y-107338476D01*
X109689333Y-107386095D01*
X109927428Y-107386095D01*
X110117904Y-107338476D01*
X110213142Y-107290857D01*
X110260761Y-107243238D01*
X110308380Y-107148000D01*
X110308380Y-107052761D01*
X110260761Y-106957523D01*
X110213142Y-106909904D01*
X110117904Y-106862285D01*
X109927428Y-106814666D01*
X109689333Y-106814666D01*
X109498857Y-106862285D01*
X109403619Y-106909904D01*
X109356000Y-106957523D01*
X109308380Y-107052761D01*
%TO.C,R421*%
X67762380Y-98448952D02*
X67286190Y-98115619D01*
X67762380Y-97877523D02*
X66762380Y-97877523D01*
X66762380Y-98258476D01*
X66810000Y-98353714D01*
X66857619Y-98401333D01*
X66952857Y-98448952D01*
X67095714Y-98448952D01*
X67190952Y-98401333D01*
X67238571Y-98353714D01*
X67286190Y-98258476D01*
X67286190Y-97877523D01*
X67095714Y-99306095D02*
X67762380Y-99306095D01*
X66714761Y-99068000D02*
X67429047Y-98829904D01*
X67429047Y-99448952D01*
X66857619Y-99782285D02*
X66810000Y-99829904D01*
X66762380Y-99925142D01*
X66762380Y-100163238D01*
X66810000Y-100258476D01*
X66857619Y-100306095D01*
X66952857Y-100353714D01*
X67048095Y-100353714D01*
X67190952Y-100306095D01*
X67762380Y-99734666D01*
X67762380Y-100353714D01*
X67762380Y-101306095D02*
X67762380Y-100734666D01*
X67762380Y-101020380D02*
X66762380Y-101020380D01*
X66905238Y-100925142D01*
X67000476Y-100829904D01*
X67048095Y-100734666D01*
%TO.C,R422*%
X67762380Y-103274952D02*
X67286190Y-102941619D01*
X67762380Y-102703523D02*
X66762380Y-102703523D01*
X66762380Y-103084476D01*
X66810000Y-103179714D01*
X66857619Y-103227333D01*
X66952857Y-103274952D01*
X67095714Y-103274952D01*
X67190952Y-103227333D01*
X67238571Y-103179714D01*
X67286190Y-103084476D01*
X67286190Y-102703523D01*
X67095714Y-104132095D02*
X67762380Y-104132095D01*
X66714761Y-103894000D02*
X67429047Y-103655904D01*
X67429047Y-104274952D01*
X66857619Y-104608285D02*
X66810000Y-104655904D01*
X66762380Y-104751142D01*
X66762380Y-104989238D01*
X66810000Y-105084476D01*
X66857619Y-105132095D01*
X66952857Y-105179714D01*
X67048095Y-105179714D01*
X67190952Y-105132095D01*
X67762380Y-104560666D01*
X67762380Y-105179714D01*
X66857619Y-105560666D02*
X66810000Y-105608285D01*
X66762380Y-105703523D01*
X66762380Y-105941619D01*
X66810000Y-106036857D01*
X66857619Y-106084476D01*
X66952857Y-106132095D01*
X67048095Y-106132095D01*
X67190952Y-106084476D01*
X67762380Y-105513047D01*
X67762380Y-106132095D01*
%TO.C,R501*%
X105783047Y-137612380D02*
X106116380Y-137136190D01*
X106354476Y-137612380D02*
X106354476Y-136612380D01*
X105973523Y-136612380D01*
X105878285Y-136660000D01*
X105830666Y-136707619D01*
X105783047Y-136802857D01*
X105783047Y-136945714D01*
X105830666Y-137040952D01*
X105878285Y-137088571D01*
X105973523Y-137136190D01*
X106354476Y-137136190D01*
X104878285Y-136612380D02*
X105354476Y-136612380D01*
X105402095Y-137088571D01*
X105354476Y-137040952D01*
X105259238Y-136993333D01*
X105021142Y-136993333D01*
X104925904Y-137040952D01*
X104878285Y-137088571D01*
X104830666Y-137183809D01*
X104830666Y-137421904D01*
X104878285Y-137517142D01*
X104925904Y-137564761D01*
X105021142Y-137612380D01*
X105259238Y-137612380D01*
X105354476Y-137564761D01*
X105402095Y-137517142D01*
X104211619Y-136612380D02*
X104116380Y-136612380D01*
X104021142Y-136660000D01*
X103973523Y-136707619D01*
X103925904Y-136802857D01*
X103878285Y-136993333D01*
X103878285Y-137231428D01*
X103925904Y-137421904D01*
X103973523Y-137517142D01*
X104021142Y-137564761D01*
X104116380Y-137612380D01*
X104211619Y-137612380D01*
X104306857Y-137564761D01*
X104354476Y-137517142D01*
X104402095Y-137421904D01*
X104449714Y-137231428D01*
X104449714Y-136993333D01*
X104402095Y-136802857D01*
X104354476Y-136707619D01*
X104306857Y-136660000D01*
X104211619Y-136612380D01*
X102925904Y-137612380D02*
X103497333Y-137612380D01*
X103211619Y-137612380D02*
X103211619Y-136612380D01*
X103306857Y-136755238D01*
X103402095Y-136850476D01*
X103497333Y-136898095D01*
%TO.C,R502*%
X109577047Y-133294380D02*
X109910380Y-132818190D01*
X110148476Y-133294380D02*
X110148476Y-132294380D01*
X109767523Y-132294380D01*
X109672285Y-132342000D01*
X109624666Y-132389619D01*
X109577047Y-132484857D01*
X109577047Y-132627714D01*
X109624666Y-132722952D01*
X109672285Y-132770571D01*
X109767523Y-132818190D01*
X110148476Y-132818190D01*
X108672285Y-132294380D02*
X109148476Y-132294380D01*
X109196095Y-132770571D01*
X109148476Y-132722952D01*
X109053238Y-132675333D01*
X108815142Y-132675333D01*
X108719904Y-132722952D01*
X108672285Y-132770571D01*
X108624666Y-132865809D01*
X108624666Y-133103904D01*
X108672285Y-133199142D01*
X108719904Y-133246761D01*
X108815142Y-133294380D01*
X109053238Y-133294380D01*
X109148476Y-133246761D01*
X109196095Y-133199142D01*
X108005619Y-132294380D02*
X107910380Y-132294380D01*
X107815142Y-132342000D01*
X107767523Y-132389619D01*
X107719904Y-132484857D01*
X107672285Y-132675333D01*
X107672285Y-132913428D01*
X107719904Y-133103904D01*
X107767523Y-133199142D01*
X107815142Y-133246761D01*
X107910380Y-133294380D01*
X108005619Y-133294380D01*
X108100857Y-133246761D01*
X108148476Y-133199142D01*
X108196095Y-133103904D01*
X108243714Y-132913428D01*
X108243714Y-132675333D01*
X108196095Y-132484857D01*
X108148476Y-132389619D01*
X108100857Y-132342000D01*
X108005619Y-132294380D01*
X107291333Y-132389619D02*
X107243714Y-132342000D01*
X107148476Y-132294380D01*
X106910380Y-132294380D01*
X106815142Y-132342000D01*
X106767523Y-132389619D01*
X106719904Y-132484857D01*
X106719904Y-132580095D01*
X106767523Y-132722952D01*
X107338952Y-133294380D01*
X106719904Y-133294380D01*
%TO.C,R503*%
X71572380Y-130198952D02*
X71096190Y-129865619D01*
X71572380Y-129627523D02*
X70572380Y-129627523D01*
X70572380Y-130008476D01*
X70620000Y-130103714D01*
X70667619Y-130151333D01*
X70762857Y-130198952D01*
X70905714Y-130198952D01*
X71000952Y-130151333D01*
X71048571Y-130103714D01*
X71096190Y-130008476D01*
X71096190Y-129627523D01*
X70572380Y-131103714D02*
X70572380Y-130627523D01*
X71048571Y-130579904D01*
X71000952Y-130627523D01*
X70953333Y-130722761D01*
X70953333Y-130960857D01*
X71000952Y-131056095D01*
X71048571Y-131103714D01*
X71143809Y-131151333D01*
X71381904Y-131151333D01*
X71477142Y-131103714D01*
X71524761Y-131056095D01*
X71572380Y-130960857D01*
X71572380Y-130722761D01*
X71524761Y-130627523D01*
X71477142Y-130579904D01*
X70572380Y-131770380D02*
X70572380Y-131865619D01*
X70620000Y-131960857D01*
X70667619Y-132008476D01*
X70762857Y-132056095D01*
X70953333Y-132103714D01*
X71191428Y-132103714D01*
X71381904Y-132056095D01*
X71477142Y-132008476D01*
X71524761Y-131960857D01*
X71572380Y-131865619D01*
X71572380Y-131770380D01*
X71524761Y-131675142D01*
X71477142Y-131627523D01*
X71381904Y-131579904D01*
X71191428Y-131532285D01*
X70953333Y-131532285D01*
X70762857Y-131579904D01*
X70667619Y-131627523D01*
X70620000Y-131675142D01*
X70572380Y-131770380D01*
X70572380Y-132437047D02*
X70572380Y-133056095D01*
X70953333Y-132722761D01*
X70953333Y-132865619D01*
X71000952Y-132960857D01*
X71048571Y-133008476D01*
X71143809Y-133056095D01*
X71381904Y-133056095D01*
X71477142Y-133008476D01*
X71524761Y-132960857D01*
X71572380Y-132865619D01*
X71572380Y-132579904D01*
X71524761Y-132484666D01*
X71477142Y-132437047D01*
%TO.C,R505*%
X102052380Y-136294952D02*
X101576190Y-135961619D01*
X102052380Y-135723523D02*
X101052380Y-135723523D01*
X101052380Y-136104476D01*
X101100000Y-136199714D01*
X101147619Y-136247333D01*
X101242857Y-136294952D01*
X101385714Y-136294952D01*
X101480952Y-136247333D01*
X101528571Y-136199714D01*
X101576190Y-136104476D01*
X101576190Y-135723523D01*
X101052380Y-137199714D02*
X101052380Y-136723523D01*
X101528571Y-136675904D01*
X101480952Y-136723523D01*
X101433333Y-136818761D01*
X101433333Y-137056857D01*
X101480952Y-137152095D01*
X101528571Y-137199714D01*
X101623809Y-137247333D01*
X101861904Y-137247333D01*
X101957142Y-137199714D01*
X102004761Y-137152095D01*
X102052380Y-137056857D01*
X102052380Y-136818761D01*
X102004761Y-136723523D01*
X101957142Y-136675904D01*
X101052380Y-137866380D02*
X101052380Y-137961619D01*
X101100000Y-138056857D01*
X101147619Y-138104476D01*
X101242857Y-138152095D01*
X101433333Y-138199714D01*
X101671428Y-138199714D01*
X101861904Y-138152095D01*
X101957142Y-138104476D01*
X102004761Y-138056857D01*
X102052380Y-137961619D01*
X102052380Y-137866380D01*
X102004761Y-137771142D01*
X101957142Y-137723523D01*
X101861904Y-137675904D01*
X101671428Y-137628285D01*
X101433333Y-137628285D01*
X101242857Y-137675904D01*
X101147619Y-137723523D01*
X101100000Y-137771142D01*
X101052380Y-137866380D01*
X101052380Y-139104476D02*
X101052380Y-138628285D01*
X101528571Y-138580666D01*
X101480952Y-138628285D01*
X101433333Y-138723523D01*
X101433333Y-138961619D01*
X101480952Y-139056857D01*
X101528571Y-139104476D01*
X101623809Y-139152095D01*
X101861904Y-139152095D01*
X101957142Y-139104476D01*
X102004761Y-139056857D01*
X102052380Y-138961619D01*
X102052380Y-138723523D01*
X102004761Y-138628285D01*
X101957142Y-138580666D01*
%TO.C,R506*%
X78938380Y-126150952D02*
X78462190Y-125817619D01*
X78938380Y-125579523D02*
X77938380Y-125579523D01*
X77938380Y-125960476D01*
X77986000Y-126055714D01*
X78033619Y-126103333D01*
X78128857Y-126150952D01*
X78271714Y-126150952D01*
X78366952Y-126103333D01*
X78414571Y-126055714D01*
X78462190Y-125960476D01*
X78462190Y-125579523D01*
X77938380Y-127055714D02*
X77938380Y-126579523D01*
X78414571Y-126531904D01*
X78366952Y-126579523D01*
X78319333Y-126674761D01*
X78319333Y-126912857D01*
X78366952Y-127008095D01*
X78414571Y-127055714D01*
X78509809Y-127103333D01*
X78747904Y-127103333D01*
X78843142Y-127055714D01*
X78890761Y-127008095D01*
X78938380Y-126912857D01*
X78938380Y-126674761D01*
X78890761Y-126579523D01*
X78843142Y-126531904D01*
X77938380Y-127722380D02*
X77938380Y-127817619D01*
X77986000Y-127912857D01*
X78033619Y-127960476D01*
X78128857Y-128008095D01*
X78319333Y-128055714D01*
X78557428Y-128055714D01*
X78747904Y-128008095D01*
X78843142Y-127960476D01*
X78890761Y-127912857D01*
X78938380Y-127817619D01*
X78938380Y-127722380D01*
X78890761Y-127627142D01*
X78843142Y-127579523D01*
X78747904Y-127531904D01*
X78557428Y-127484285D01*
X78319333Y-127484285D01*
X78128857Y-127531904D01*
X78033619Y-127579523D01*
X77986000Y-127627142D01*
X77938380Y-127722380D01*
X77938380Y-128912857D02*
X77938380Y-128722380D01*
X77986000Y-128627142D01*
X78033619Y-128579523D01*
X78176476Y-128484285D01*
X78366952Y-128436666D01*
X78747904Y-128436666D01*
X78843142Y-128484285D01*
X78890761Y-128531904D01*
X78938380Y-128627142D01*
X78938380Y-128817619D01*
X78890761Y-128912857D01*
X78843142Y-128960476D01*
X78747904Y-129008095D01*
X78509809Y-129008095D01*
X78414571Y-128960476D01*
X78366952Y-128912857D01*
X78319333Y-128817619D01*
X78319333Y-128627142D01*
X78366952Y-128531904D01*
X78414571Y-128484285D01*
X78509809Y-128436666D01*
%TO.C,R507*%
X100020380Y-136294952D02*
X99544190Y-135961619D01*
X100020380Y-135723523D02*
X99020380Y-135723523D01*
X99020380Y-136104476D01*
X99068000Y-136199714D01*
X99115619Y-136247333D01*
X99210857Y-136294952D01*
X99353714Y-136294952D01*
X99448952Y-136247333D01*
X99496571Y-136199714D01*
X99544190Y-136104476D01*
X99544190Y-135723523D01*
X99020380Y-137199714D02*
X99020380Y-136723523D01*
X99496571Y-136675904D01*
X99448952Y-136723523D01*
X99401333Y-136818761D01*
X99401333Y-137056857D01*
X99448952Y-137152095D01*
X99496571Y-137199714D01*
X99591809Y-137247333D01*
X99829904Y-137247333D01*
X99925142Y-137199714D01*
X99972761Y-137152095D01*
X100020380Y-137056857D01*
X100020380Y-136818761D01*
X99972761Y-136723523D01*
X99925142Y-136675904D01*
X99020380Y-137866380D02*
X99020380Y-137961619D01*
X99068000Y-138056857D01*
X99115619Y-138104476D01*
X99210857Y-138152095D01*
X99401333Y-138199714D01*
X99639428Y-138199714D01*
X99829904Y-138152095D01*
X99925142Y-138104476D01*
X99972761Y-138056857D01*
X100020380Y-137961619D01*
X100020380Y-137866380D01*
X99972761Y-137771142D01*
X99925142Y-137723523D01*
X99829904Y-137675904D01*
X99639428Y-137628285D01*
X99401333Y-137628285D01*
X99210857Y-137675904D01*
X99115619Y-137723523D01*
X99068000Y-137771142D01*
X99020380Y-137866380D01*
X99020380Y-138533047D02*
X99020380Y-139199714D01*
X100020380Y-138771142D01*
%TO.C,R508*%
X91273047Y-136976380D02*
X91606380Y-136500190D01*
X91844476Y-136976380D02*
X91844476Y-135976380D01*
X91463523Y-135976380D01*
X91368285Y-136024000D01*
X91320666Y-136071619D01*
X91273047Y-136166857D01*
X91273047Y-136309714D01*
X91320666Y-136404952D01*
X91368285Y-136452571D01*
X91463523Y-136500190D01*
X91844476Y-136500190D01*
X90368285Y-135976380D02*
X90844476Y-135976380D01*
X90892095Y-136452571D01*
X90844476Y-136404952D01*
X90749238Y-136357333D01*
X90511142Y-136357333D01*
X90415904Y-136404952D01*
X90368285Y-136452571D01*
X90320666Y-136547809D01*
X90320666Y-136785904D01*
X90368285Y-136881142D01*
X90415904Y-136928761D01*
X90511142Y-136976380D01*
X90749238Y-136976380D01*
X90844476Y-136928761D01*
X90892095Y-136881142D01*
X89701619Y-135976380D02*
X89606380Y-135976380D01*
X89511142Y-136024000D01*
X89463523Y-136071619D01*
X89415904Y-136166857D01*
X89368285Y-136357333D01*
X89368285Y-136595428D01*
X89415904Y-136785904D01*
X89463523Y-136881142D01*
X89511142Y-136928761D01*
X89606380Y-136976380D01*
X89701619Y-136976380D01*
X89796857Y-136928761D01*
X89844476Y-136881142D01*
X89892095Y-136785904D01*
X89939714Y-136595428D01*
X89939714Y-136357333D01*
X89892095Y-136166857D01*
X89844476Y-136071619D01*
X89796857Y-136024000D01*
X89701619Y-135976380D01*
X88796857Y-136404952D02*
X88892095Y-136357333D01*
X88939714Y-136309714D01*
X88987333Y-136214476D01*
X88987333Y-136166857D01*
X88939714Y-136071619D01*
X88892095Y-136024000D01*
X88796857Y-135976380D01*
X88606380Y-135976380D01*
X88511142Y-136024000D01*
X88463523Y-136071619D01*
X88415904Y-136166857D01*
X88415904Y-136214476D01*
X88463523Y-136309714D01*
X88511142Y-136357333D01*
X88606380Y-136404952D01*
X88796857Y-136404952D01*
X88892095Y-136452571D01*
X88939714Y-136500190D01*
X88987333Y-136595428D01*
X88987333Y-136785904D01*
X88939714Y-136881142D01*
X88892095Y-136928761D01*
X88796857Y-136976380D01*
X88606380Y-136976380D01*
X88511142Y-136928761D01*
X88463523Y-136881142D01*
X88415904Y-136785904D01*
X88415904Y-136595428D01*
X88463523Y-136500190D01*
X88511142Y-136452571D01*
X88606380Y-136404952D01*
%TO.C,R509*%
X94940380Y-136294952D02*
X94464190Y-135961619D01*
X94940380Y-135723523D02*
X93940380Y-135723523D01*
X93940380Y-136104476D01*
X93988000Y-136199714D01*
X94035619Y-136247333D01*
X94130857Y-136294952D01*
X94273714Y-136294952D01*
X94368952Y-136247333D01*
X94416571Y-136199714D01*
X94464190Y-136104476D01*
X94464190Y-135723523D01*
X93940380Y-137199714D02*
X93940380Y-136723523D01*
X94416571Y-136675904D01*
X94368952Y-136723523D01*
X94321333Y-136818761D01*
X94321333Y-137056857D01*
X94368952Y-137152095D01*
X94416571Y-137199714D01*
X94511809Y-137247333D01*
X94749904Y-137247333D01*
X94845142Y-137199714D01*
X94892761Y-137152095D01*
X94940380Y-137056857D01*
X94940380Y-136818761D01*
X94892761Y-136723523D01*
X94845142Y-136675904D01*
X93940380Y-137866380D02*
X93940380Y-137961619D01*
X93988000Y-138056857D01*
X94035619Y-138104476D01*
X94130857Y-138152095D01*
X94321333Y-138199714D01*
X94559428Y-138199714D01*
X94749904Y-138152095D01*
X94845142Y-138104476D01*
X94892761Y-138056857D01*
X94940380Y-137961619D01*
X94940380Y-137866380D01*
X94892761Y-137771142D01*
X94845142Y-137723523D01*
X94749904Y-137675904D01*
X94559428Y-137628285D01*
X94321333Y-137628285D01*
X94130857Y-137675904D01*
X94035619Y-137723523D01*
X93988000Y-137771142D01*
X93940380Y-137866380D01*
X94940380Y-138675904D02*
X94940380Y-138866380D01*
X94892761Y-138961619D01*
X94845142Y-139009238D01*
X94702285Y-139104476D01*
X94511809Y-139152095D01*
X94130857Y-139152095D01*
X94035619Y-139104476D01*
X93988000Y-139056857D01*
X93940380Y-138961619D01*
X93940380Y-138771142D01*
X93988000Y-138675904D01*
X94035619Y-138628285D01*
X94130857Y-138580666D01*
X94368952Y-138580666D01*
X94464190Y-138628285D01*
X94511809Y-138675904D01*
X94559428Y-138771142D01*
X94559428Y-138961619D01*
X94511809Y-139056857D01*
X94464190Y-139104476D01*
X94368952Y-139152095D01*
%TO.C,R510*%
X68142380Y-131976952D02*
X67666190Y-131643619D01*
X68142380Y-131405523D02*
X67142380Y-131405523D01*
X67142380Y-131786476D01*
X67190000Y-131881714D01*
X67237619Y-131929333D01*
X67332857Y-131976952D01*
X67475714Y-131976952D01*
X67570952Y-131929333D01*
X67618571Y-131881714D01*
X67666190Y-131786476D01*
X67666190Y-131405523D01*
X67142380Y-132881714D02*
X67142380Y-132405523D01*
X67618571Y-132357904D01*
X67570952Y-132405523D01*
X67523333Y-132500761D01*
X67523333Y-132738857D01*
X67570952Y-132834095D01*
X67618571Y-132881714D01*
X67713809Y-132929333D01*
X67951904Y-132929333D01*
X68047142Y-132881714D01*
X68094761Y-132834095D01*
X68142380Y-132738857D01*
X68142380Y-132500761D01*
X68094761Y-132405523D01*
X68047142Y-132357904D01*
X68142380Y-133881714D02*
X68142380Y-133310285D01*
X68142380Y-133596000D02*
X67142380Y-133596000D01*
X67285238Y-133500761D01*
X67380476Y-133405523D01*
X67428095Y-133310285D01*
X67142380Y-134500761D02*
X67142380Y-134596000D01*
X67190000Y-134691238D01*
X67237619Y-134738857D01*
X67332857Y-134786476D01*
X67523333Y-134834095D01*
X67761428Y-134834095D01*
X67951904Y-134786476D01*
X68047142Y-134738857D01*
X68094761Y-134691238D01*
X68142380Y-134596000D01*
X68142380Y-134500761D01*
X68094761Y-134405523D01*
X68047142Y-134357904D01*
X67951904Y-134310285D01*
X67761428Y-134262666D01*
X67523333Y-134262666D01*
X67332857Y-134310285D01*
X67237619Y-134357904D01*
X67190000Y-134405523D01*
X67142380Y-134500761D01*
%TO.C,R512*%
X91797047Y-126818380D02*
X92130380Y-126342190D01*
X92368476Y-126818380D02*
X92368476Y-125818380D01*
X91987523Y-125818380D01*
X91892285Y-125866000D01*
X91844666Y-125913619D01*
X91797047Y-126008857D01*
X91797047Y-126151714D01*
X91844666Y-126246952D01*
X91892285Y-126294571D01*
X91987523Y-126342190D01*
X92368476Y-126342190D01*
X90892285Y-125818380D02*
X91368476Y-125818380D01*
X91416095Y-126294571D01*
X91368476Y-126246952D01*
X91273238Y-126199333D01*
X91035142Y-126199333D01*
X90939904Y-126246952D01*
X90892285Y-126294571D01*
X90844666Y-126389809D01*
X90844666Y-126627904D01*
X90892285Y-126723142D01*
X90939904Y-126770761D01*
X91035142Y-126818380D01*
X91273238Y-126818380D01*
X91368476Y-126770761D01*
X91416095Y-126723142D01*
X89892285Y-126818380D02*
X90463714Y-126818380D01*
X90178000Y-126818380D02*
X90178000Y-125818380D01*
X90273238Y-125961238D01*
X90368476Y-126056476D01*
X90463714Y-126104095D01*
X89511333Y-125913619D02*
X89463714Y-125866000D01*
X89368476Y-125818380D01*
X89130380Y-125818380D01*
X89035142Y-125866000D01*
X88987523Y-125913619D01*
X88939904Y-126008857D01*
X88939904Y-126104095D01*
X88987523Y-126246952D01*
X89558952Y-126818380D01*
X88939904Y-126818380D01*
%TO.C,R513*%
X87733047Y-131516380D02*
X88066380Y-131040190D01*
X88304476Y-131516380D02*
X88304476Y-130516380D01*
X87923523Y-130516380D01*
X87828285Y-130564000D01*
X87780666Y-130611619D01*
X87733047Y-130706857D01*
X87733047Y-130849714D01*
X87780666Y-130944952D01*
X87828285Y-130992571D01*
X87923523Y-131040190D01*
X88304476Y-131040190D01*
X86828285Y-130516380D02*
X87304476Y-130516380D01*
X87352095Y-130992571D01*
X87304476Y-130944952D01*
X87209238Y-130897333D01*
X86971142Y-130897333D01*
X86875904Y-130944952D01*
X86828285Y-130992571D01*
X86780666Y-131087809D01*
X86780666Y-131325904D01*
X86828285Y-131421142D01*
X86875904Y-131468761D01*
X86971142Y-131516380D01*
X87209238Y-131516380D01*
X87304476Y-131468761D01*
X87352095Y-131421142D01*
X85828285Y-131516380D02*
X86399714Y-131516380D01*
X86114000Y-131516380D02*
X86114000Y-130516380D01*
X86209238Y-130659238D01*
X86304476Y-130754476D01*
X86399714Y-130802095D01*
X85494952Y-130516380D02*
X84875904Y-130516380D01*
X85209238Y-130897333D01*
X85066380Y-130897333D01*
X84971142Y-130944952D01*
X84923523Y-130992571D01*
X84875904Y-131087809D01*
X84875904Y-131325904D01*
X84923523Y-131421142D01*
X84971142Y-131468761D01*
X85066380Y-131516380D01*
X85352095Y-131516380D01*
X85447333Y-131468761D01*
X85494952Y-131421142D01*
%TO.C,R515*%
X95845047Y-118562380D02*
X96178380Y-118086190D01*
X96416476Y-118562380D02*
X96416476Y-117562380D01*
X96035523Y-117562380D01*
X95940285Y-117610000D01*
X95892666Y-117657619D01*
X95845047Y-117752857D01*
X95845047Y-117895714D01*
X95892666Y-117990952D01*
X95940285Y-118038571D01*
X96035523Y-118086190D01*
X96416476Y-118086190D01*
X94940285Y-117562380D02*
X95416476Y-117562380D01*
X95464095Y-118038571D01*
X95416476Y-117990952D01*
X95321238Y-117943333D01*
X95083142Y-117943333D01*
X94987904Y-117990952D01*
X94940285Y-118038571D01*
X94892666Y-118133809D01*
X94892666Y-118371904D01*
X94940285Y-118467142D01*
X94987904Y-118514761D01*
X95083142Y-118562380D01*
X95321238Y-118562380D01*
X95416476Y-118514761D01*
X95464095Y-118467142D01*
X93940285Y-118562380D02*
X94511714Y-118562380D01*
X94226000Y-118562380D02*
X94226000Y-117562380D01*
X94321238Y-117705238D01*
X94416476Y-117800476D01*
X94511714Y-117848095D01*
X93035523Y-117562380D02*
X93511714Y-117562380D01*
X93559333Y-118038571D01*
X93511714Y-117990952D01*
X93416476Y-117943333D01*
X93178380Y-117943333D01*
X93083142Y-117990952D01*
X93035523Y-118038571D01*
X92987904Y-118133809D01*
X92987904Y-118371904D01*
X93035523Y-118467142D01*
X93083142Y-118514761D01*
X93178380Y-118562380D01*
X93416476Y-118562380D01*
X93511714Y-118514761D01*
X93559333Y-118467142D01*
%TO.C,R516*%
X116530380Y-122832952D02*
X116054190Y-122499619D01*
X116530380Y-122261523D02*
X115530380Y-122261523D01*
X115530380Y-122642476D01*
X115578000Y-122737714D01*
X115625619Y-122785333D01*
X115720857Y-122832952D01*
X115863714Y-122832952D01*
X115958952Y-122785333D01*
X116006571Y-122737714D01*
X116054190Y-122642476D01*
X116054190Y-122261523D01*
X115530380Y-123737714D02*
X115530380Y-123261523D01*
X116006571Y-123213904D01*
X115958952Y-123261523D01*
X115911333Y-123356761D01*
X115911333Y-123594857D01*
X115958952Y-123690095D01*
X116006571Y-123737714D01*
X116101809Y-123785333D01*
X116339904Y-123785333D01*
X116435142Y-123737714D01*
X116482761Y-123690095D01*
X116530380Y-123594857D01*
X116530380Y-123356761D01*
X116482761Y-123261523D01*
X116435142Y-123213904D01*
X116530380Y-124737714D02*
X116530380Y-124166285D01*
X116530380Y-124452000D02*
X115530380Y-124452000D01*
X115673238Y-124356761D01*
X115768476Y-124261523D01*
X115816095Y-124166285D01*
X115530380Y-125594857D02*
X115530380Y-125404380D01*
X115578000Y-125309142D01*
X115625619Y-125261523D01*
X115768476Y-125166285D01*
X115958952Y-125118666D01*
X116339904Y-125118666D01*
X116435142Y-125166285D01*
X116482761Y-125213904D01*
X116530380Y-125309142D01*
X116530380Y-125499619D01*
X116482761Y-125594857D01*
X116435142Y-125642476D01*
X116339904Y-125690095D01*
X116101809Y-125690095D01*
X116006571Y-125642476D01*
X115958952Y-125594857D01*
X115911333Y-125499619D01*
X115911333Y-125309142D01*
X115958952Y-125213904D01*
X116006571Y-125166285D01*
X116101809Y-125118666D01*
%TO.C,R517*%
X118308380Y-133754952D02*
X117832190Y-133421619D01*
X118308380Y-133183523D02*
X117308380Y-133183523D01*
X117308380Y-133564476D01*
X117356000Y-133659714D01*
X117403619Y-133707333D01*
X117498857Y-133754952D01*
X117641714Y-133754952D01*
X117736952Y-133707333D01*
X117784571Y-133659714D01*
X117832190Y-133564476D01*
X117832190Y-133183523D01*
X117308380Y-134659714D02*
X117308380Y-134183523D01*
X117784571Y-134135904D01*
X117736952Y-134183523D01*
X117689333Y-134278761D01*
X117689333Y-134516857D01*
X117736952Y-134612095D01*
X117784571Y-134659714D01*
X117879809Y-134707333D01*
X118117904Y-134707333D01*
X118213142Y-134659714D01*
X118260761Y-134612095D01*
X118308380Y-134516857D01*
X118308380Y-134278761D01*
X118260761Y-134183523D01*
X118213142Y-134135904D01*
X118308380Y-135659714D02*
X118308380Y-135088285D01*
X118308380Y-135374000D02*
X117308380Y-135374000D01*
X117451238Y-135278761D01*
X117546476Y-135183523D01*
X117594095Y-135088285D01*
X117308380Y-135993047D02*
X117308380Y-136659714D01*
X118308380Y-136231142D01*
%TO.C,R518*%
X91543047Y-118562380D02*
X91876380Y-118086190D01*
X92114476Y-118562380D02*
X92114476Y-117562380D01*
X91733523Y-117562380D01*
X91638285Y-117610000D01*
X91590666Y-117657619D01*
X91543047Y-117752857D01*
X91543047Y-117895714D01*
X91590666Y-117990952D01*
X91638285Y-118038571D01*
X91733523Y-118086190D01*
X92114476Y-118086190D01*
X90638285Y-117562380D02*
X91114476Y-117562380D01*
X91162095Y-118038571D01*
X91114476Y-117990952D01*
X91019238Y-117943333D01*
X90781142Y-117943333D01*
X90685904Y-117990952D01*
X90638285Y-118038571D01*
X90590666Y-118133809D01*
X90590666Y-118371904D01*
X90638285Y-118467142D01*
X90685904Y-118514761D01*
X90781142Y-118562380D01*
X91019238Y-118562380D01*
X91114476Y-118514761D01*
X91162095Y-118467142D01*
X89638285Y-118562380D02*
X90209714Y-118562380D01*
X89924000Y-118562380D02*
X89924000Y-117562380D01*
X90019238Y-117705238D01*
X90114476Y-117800476D01*
X90209714Y-117848095D01*
X89066857Y-117990952D02*
X89162095Y-117943333D01*
X89209714Y-117895714D01*
X89257333Y-117800476D01*
X89257333Y-117752857D01*
X89209714Y-117657619D01*
X89162095Y-117610000D01*
X89066857Y-117562380D01*
X88876380Y-117562380D01*
X88781142Y-117610000D01*
X88733523Y-117657619D01*
X88685904Y-117752857D01*
X88685904Y-117800476D01*
X88733523Y-117895714D01*
X88781142Y-117943333D01*
X88876380Y-117990952D01*
X89066857Y-117990952D01*
X89162095Y-118038571D01*
X89209714Y-118086190D01*
X89257333Y-118181428D01*
X89257333Y-118371904D01*
X89209714Y-118467142D01*
X89162095Y-118514761D01*
X89066857Y-118562380D01*
X88876380Y-118562380D01*
X88781142Y-118514761D01*
X88733523Y-118467142D01*
X88685904Y-118371904D01*
X88685904Y-118181428D01*
X88733523Y-118086190D01*
X88781142Y-118038571D01*
X88876380Y-117990952D01*
%TO.C,R519*%
X115006380Y-133770952D02*
X114530190Y-133437619D01*
X115006380Y-133199523D02*
X114006380Y-133199523D01*
X114006380Y-133580476D01*
X114054000Y-133675714D01*
X114101619Y-133723333D01*
X114196857Y-133770952D01*
X114339714Y-133770952D01*
X114434952Y-133723333D01*
X114482571Y-133675714D01*
X114530190Y-133580476D01*
X114530190Y-133199523D01*
X114006380Y-134675714D02*
X114006380Y-134199523D01*
X114482571Y-134151904D01*
X114434952Y-134199523D01*
X114387333Y-134294761D01*
X114387333Y-134532857D01*
X114434952Y-134628095D01*
X114482571Y-134675714D01*
X114577809Y-134723333D01*
X114815904Y-134723333D01*
X114911142Y-134675714D01*
X114958761Y-134628095D01*
X115006380Y-134532857D01*
X115006380Y-134294761D01*
X114958761Y-134199523D01*
X114911142Y-134151904D01*
X115006380Y-135675714D02*
X115006380Y-135104285D01*
X115006380Y-135390000D02*
X114006380Y-135390000D01*
X114149238Y-135294761D01*
X114244476Y-135199523D01*
X114292095Y-135104285D01*
X115006380Y-136151904D02*
X115006380Y-136342380D01*
X114958761Y-136437619D01*
X114911142Y-136485238D01*
X114768285Y-136580476D01*
X114577809Y-136628095D01*
X114196857Y-136628095D01*
X114101619Y-136580476D01*
X114054000Y-136532857D01*
X114006380Y-136437619D01*
X114006380Y-136247142D01*
X114054000Y-136151904D01*
X114101619Y-136104285D01*
X114196857Y-136056666D01*
X114434952Y-136056666D01*
X114530190Y-136104285D01*
X114577809Y-136151904D01*
X114625428Y-136247142D01*
X114625428Y-136437619D01*
X114577809Y-136532857D01*
X114530190Y-136580476D01*
X114434952Y-136628095D01*
%TO.C,R520*%
X119070380Y-122832952D02*
X118594190Y-122499619D01*
X119070380Y-122261523D02*
X118070380Y-122261523D01*
X118070380Y-122642476D01*
X118118000Y-122737714D01*
X118165619Y-122785333D01*
X118260857Y-122832952D01*
X118403714Y-122832952D01*
X118498952Y-122785333D01*
X118546571Y-122737714D01*
X118594190Y-122642476D01*
X118594190Y-122261523D01*
X118070380Y-123737714D02*
X118070380Y-123261523D01*
X118546571Y-123213904D01*
X118498952Y-123261523D01*
X118451333Y-123356761D01*
X118451333Y-123594857D01*
X118498952Y-123690095D01*
X118546571Y-123737714D01*
X118641809Y-123785333D01*
X118879904Y-123785333D01*
X118975142Y-123737714D01*
X119022761Y-123690095D01*
X119070380Y-123594857D01*
X119070380Y-123356761D01*
X119022761Y-123261523D01*
X118975142Y-123213904D01*
X118165619Y-124166285D02*
X118118000Y-124213904D01*
X118070380Y-124309142D01*
X118070380Y-124547238D01*
X118118000Y-124642476D01*
X118165619Y-124690095D01*
X118260857Y-124737714D01*
X118356095Y-124737714D01*
X118498952Y-124690095D01*
X119070380Y-124118666D01*
X119070380Y-124737714D01*
X118070380Y-125356761D02*
X118070380Y-125452000D01*
X118118000Y-125547238D01*
X118165619Y-125594857D01*
X118260857Y-125642476D01*
X118451333Y-125690095D01*
X118689428Y-125690095D01*
X118879904Y-125642476D01*
X118975142Y-125594857D01*
X119022761Y-125547238D01*
X119070380Y-125452000D01*
X119070380Y-125356761D01*
X119022761Y-125261523D01*
X118975142Y-125213904D01*
X118879904Y-125166285D01*
X118689428Y-125118666D01*
X118451333Y-125118666D01*
X118260857Y-125166285D01*
X118165619Y-125213904D01*
X118118000Y-125261523D01*
X118070380Y-125356761D01*
%TO.C,R521*%
X67634380Y-122213952D02*
X67158190Y-121880619D01*
X67634380Y-121642523D02*
X66634380Y-121642523D01*
X66634380Y-122023476D01*
X66682000Y-122118714D01*
X66729619Y-122166333D01*
X66824857Y-122213952D01*
X66967714Y-122213952D01*
X67062952Y-122166333D01*
X67110571Y-122118714D01*
X67158190Y-122023476D01*
X67158190Y-121642523D01*
X66634380Y-123118714D02*
X66634380Y-122642523D01*
X67110571Y-122594904D01*
X67062952Y-122642523D01*
X67015333Y-122737761D01*
X67015333Y-122975857D01*
X67062952Y-123071095D01*
X67110571Y-123118714D01*
X67205809Y-123166333D01*
X67443904Y-123166333D01*
X67539142Y-123118714D01*
X67586761Y-123071095D01*
X67634380Y-122975857D01*
X67634380Y-122737761D01*
X67586761Y-122642523D01*
X67539142Y-122594904D01*
X66729619Y-123547285D02*
X66682000Y-123594904D01*
X66634380Y-123690142D01*
X66634380Y-123928238D01*
X66682000Y-124023476D01*
X66729619Y-124071095D01*
X66824857Y-124118714D01*
X66920095Y-124118714D01*
X67062952Y-124071095D01*
X67634380Y-123499666D01*
X67634380Y-124118714D01*
X67634380Y-125071095D02*
X67634380Y-124499666D01*
X67634380Y-124785380D02*
X66634380Y-124785380D01*
X66777238Y-124690142D01*
X66872476Y-124594904D01*
X66920095Y-124499666D01*
%TO.C,R522*%
X67762380Y-127150952D02*
X67286190Y-126817619D01*
X67762380Y-126579523D02*
X66762380Y-126579523D01*
X66762380Y-126960476D01*
X66810000Y-127055714D01*
X66857619Y-127103333D01*
X66952857Y-127150952D01*
X67095714Y-127150952D01*
X67190952Y-127103333D01*
X67238571Y-127055714D01*
X67286190Y-126960476D01*
X67286190Y-126579523D01*
X66762380Y-128055714D02*
X66762380Y-127579523D01*
X67238571Y-127531904D01*
X67190952Y-127579523D01*
X67143333Y-127674761D01*
X67143333Y-127912857D01*
X67190952Y-128008095D01*
X67238571Y-128055714D01*
X67333809Y-128103333D01*
X67571904Y-128103333D01*
X67667142Y-128055714D01*
X67714761Y-128008095D01*
X67762380Y-127912857D01*
X67762380Y-127674761D01*
X67714761Y-127579523D01*
X67667142Y-127531904D01*
X66857619Y-128484285D02*
X66810000Y-128531904D01*
X66762380Y-128627142D01*
X66762380Y-128865238D01*
X66810000Y-128960476D01*
X66857619Y-129008095D01*
X66952857Y-129055714D01*
X67048095Y-129055714D01*
X67190952Y-129008095D01*
X67762380Y-128436666D01*
X67762380Y-129055714D01*
X66857619Y-129436666D02*
X66810000Y-129484285D01*
X66762380Y-129579523D01*
X66762380Y-129817619D01*
X66810000Y-129912857D01*
X66857619Y-129960476D01*
X66952857Y-130008095D01*
X67048095Y-130008095D01*
X67190952Y-129960476D01*
X67762380Y-129389047D01*
X67762380Y-130008095D01*
%TD*%
M02*
